<mxfile host="app.diagrams.net" agent="Mozilla/5.0 (Windows NT 10.0; Win64; x64) AppleWebKit/537.36 (KHTML, like Gecko) Chrome/129.0.0.0 Safari/537.36" version="24.7.17">
  <diagram id="C5RBs43oDa-KdzZeNtuy" name="Page-1">
    <mxGraphModel dx="3976" dy="1420" grid="1" gridSize="10" guides="1" tooltips="1" connect="1" arrows="1" fold="1" page="1" pageScale="1" pageWidth="827" pageHeight="1169" math="0" shadow="0">
      <root>
        <mxCell id="WIyWlLk6GJQsqaUBKTNV-0" />
        <mxCell id="WIyWlLk6GJQsqaUBKTNV-1" parent="WIyWlLk6GJQsqaUBKTNV-0" />
        <UserObject label="&lt;span data-whi-clipboard=&quot;{:objects [{:deleted nil, :workspace-id #uuid &amp;quot;0114a7ee-93fc-4fdd-95fb-5dff189608b7&amp;quot;, :owned? true, :item-id #uuid &amp;quot;a1487fc2-3a77-4aab-8523-81797f7410a4&amp;quot;, :created #inst &amp;quot;2024-10-16T13:58:31.234-00:00&amp;quot;, :stag 2, :item-type :object, :parent-id #uuid &amp;quot;aa27e94d-1b7c-4483-94ba-3d9130af0e14&amp;quot;, :access :readwrite, :data {:text-anchor {:rel 0.9079820511001188, :x 1372, :y 527}, :path #paper &amp;quot;[\&amp;quot;CompoundPath\&amp;quot;,{\&amp;quot;applyMatrix\&amp;quot;:true,\&amp;quot;children\&amp;quot;:[[\&amp;quot;Path\&amp;quot;,{\&amp;quot;applyMatrix\&amp;quot;:true,\&amp;quot;segments\&amp;quot;:[[[1111.7758,432.39678],[-33.76883,-8.19682],[82.9632,20.13793]],[[1320,496],[-49.75005,-22.74288],[12.14757,5.55317]],[[1352.10164,513],[-9.34237,-5.77319],[0,0]]]}],[\&amp;quot;Path\&amp;quot;,{\&amp;quot;applyMatrix\&amp;quot;:true,\&amp;quot;segments\&amp;quot;:[[[1111.7758,432.39678],[-33.76883,-8.19682],[0.32403,0.07865]],[[1112.74756,432.63277],[-0.3238,-0.07867],[82.5809,20.06384]]]}],[\&amp;quot;Path\&amp;quot;,{\&amp;quot;applyMatrix\&amp;quot;:true,\&amp;quot;segments\&amp;quot;:[[[1112.74756,432.63277],[-0.3238,-0.07867],[82.5809,20.06384]],[[1320,496],[-49.55574,-22.65405],[12.14757,5.55317]],[[1352.10164,513],[-9.34237,-5.77319],[0,0]]]}],[\&amp;quot;Path\&amp;quot;,{\&amp;quot;applyMatrix\&amp;quot;:true,\&amp;quot;segments\&amp;quot;:[[[1387.90155,541],[0,0],[1.64198,1.65187]],[[1392.64225,545.97014],[-1.5203,-1.66141],[16.16594,17.66642]]]}]]}]&amp;quot;, :text-rect {:x 1332, :y 515, :width 80, :height 24}, :to-id #uuid &amp;quot;8f482cd9-7b97-4583-8356-5ecba0ebb025&amp;quot;, :from-id #uuid &amp;quot;497f6085-f50c-47be-abcd-0225d7133711&amp;quot;, :v 53, :to-rel {:rx 0.5, :ry 0.5, :a :y}, :content {#uuid &amp;quot;7f93d319-da38-4516-8604-a5c481604e23&amp;quot; {:tag :p, :idx &amp;quot;12&amp;quot;, :content [&amp;quot;1-to-Many&amp;quot;]}}, :from-rel {:rx 0.5, :ry 0.5, :a :x}, :object-type :connector, :points [{:x 1320, :y 496, :offset 218.0034421692406, :segment 0}], :to-endpoint :arrow, :style {:color :silver, :deco :outline}, :hitboxes nil, :to-pos {:x 1393, :y 546}, :gfx [:g {} nil [:path {:d &amp;quot;M1112.74756,432.63277c82.5809,20.06384 157.6967,40.71318 207.25244,63.36723c12.14757,5.55317 22.75928,11.22681 32.10164,17M1387.90155,541c0.67908,0.68317 1.34729,1.3672 2.00502,2.05205&amp;quot;, :fill :none, :clip-path nil, :stroke &amp;quot;#788896&amp;quot;, :stroke-linecap :round, :stroke-linejoin :round, :stroke-width 4}] nil [:polygon {:points &amp;quot;1391.94229,536.9974 1392.64225,545.97014 1383.7667,544.47861&amp;quot;, :fill &amp;quot;#788896&amp;quot;, :stroke &amp;quot;#788896&amp;quot;, :stroke-width 2, :clip-path nil, :stroke-linecap :round, :stroke-linejoin :round}] [:g.content [:g [:g [:g [:g nil [:g nil] [:text {:fill &amp;quot;#293845&amp;quot;, :hover-props {}} [:tspan {:x 1332.1750259399414, :y 533.6666660308838, :font-family &amp;quot;DIN Next, system-ui, sans-serif&amp;quot;, :font-size 18, :font-style :normal, :font-weight :normal} &amp;quot;1-to-Many&amp;quot;]]]]]]]], :baseline-path #paper &amp;quot;[\&amp;quot;Path\&amp;quot;,{\&amp;quot;applyMatrix\&amp;quot;:true,\&amp;quot;segments\&amp;quot;:[[[1008,408],[0,0],[121,28]],[[1320,496],[-70,-32],[70,32]],[[1428,600],[-19,-36],[0,0]]]}]&amp;quot;, :order [23], :from-pos {:x 1112, :y 432}, :connector-type :straight, :cont-path #paper &amp;quot;[\&amp;quot;Path\&amp;quot;,{\&amp;quot;applyMatrix\&amp;quot;:true,\&amp;quot;segments\&amp;quot;:[[[1111.7758,432.39678],[-33.76883,-8.19682],[82.9632,20.13793]],[[1320,496],[-49.75005,-22.74288],[34.64666,15.83847]],[[1392.64225,545.97014],[-15.8428,-17.31329],[16.16594,17.66642]]]}]&amp;quot;, :rect {:x 1107, :y 428, :width 309, :height 122}, :edges [{:y 408, :offset 420} {:x 1428, :offset 612}], :ref-item-deps nil}} {:deleted nil, :workspace-id #uuid &amp;quot;0114a7ee-93fc-4fdd-95fb-5dff189608b7&amp;quot;, :owned? true, :item-id #uuid &amp;quot;63be3a8c-62e0-484b-97f8-728eb4c4069e&amp;quot;, :created #inst &amp;quot;2024-10-16T13:58:31.303-00:00&amp;quot;, :stag 3, :item-type :object, :parent-id #uuid &amp;quot;aa27e94d-1b7c-4483-94ba-3d9130af0e14&amp;quot;, :access :readwrite, :data {:path #paper &amp;quot;[\&amp;quot;Path\&amp;quot;,{\&amp;quot;applyMatrix\&amp;quot;:true,\&amp;quot;segments\&amp;quot;:[[[675,456],[0,0],[-1.65685,0]],[[672,453],[0,1.65685],[0,0]],[[672,363],[0,0],[0,-1.65685]],[[675,360],[-1.65685,0],[0,0]],[[861,360],[0,0],[1.65685,0]],[[864,363],[0,-1.65685],[0,0]],[[864,453],[0,0],[0,1.65685]],[[861,456],[1.65685,0],[0,0]]],\&amp;quot;closed\&amp;quot;:true}]&amp;quot;, :text-rect {:x 684, :y 396, :width 168, :height 24}, :shape-type :rect, :v 53, :content {#uuid &amp;quot;9789ca33-c0c4-4dc4-89af-e091d88e5a9a&amp;quot; {:tag :p, :idx &amp;quot;12&amp;quot;, :content [&amp;quot;Subscription&amp;quot;]}}, :object-type :shape, :angle nil, :style {:color :dark-purple, :deco :outline}, :hitboxes nil, :gfx [:g [:rect {:x 672, :y 360, :width 192, :height 96, :rx 3, :ry 3, :fill &amp;quot;#e3cff3&amp;quot;}] [:rect {:y 360, :stroke-dasharray nil, :rx 3, :stroke &amp;quot;#730FC3&amp;quot;, :fill :none, :stroke-linejoin :round, :width 192, :stroke-dashoffset nil, :stroke-linecap :round, :stroke-width 2, :x 672, :ry 3, :height 96}] [:g.content [:g [:g [:g [:g nil [:g nil] [:text {:fill &amp;quot;#293845&amp;quot;, :hover-props {}} [:tspan {:x 718.9500579833984, :y 414.6666660308838, :font-family &amp;quot;DIN Next, system-ui, sans-serif&amp;quot;, :font-size 18, :font-style :normal, :font-weight :normal} &amp;quot;Subscription&amp;quot;]]]]]]]], :order [12], :rect {:x 672, :y 360, :width 192, :height 96}, :ref-item-deps nil}} {:deleted nil, :workspace-id #uuid &amp;quot;0114a7ee-93fc-4fdd-95fb-5dff189608b7&amp;quot;, :owned? true, :item-id #uuid &amp;quot;ed1b845b-bba5-42ad-a18e-7cd28c6c7bc0&amp;quot;, :created #inst &amp;quot;2024-10-16T13:58:31.358-00:00&amp;quot;, :stag 4, :item-type :object, :parent-id #uuid &amp;quot;aa27e94d-1b7c-4483-94ba-3d9130af0e14&amp;quot;, :access :readwrite, :data {:path #paper &amp;quot;[\&amp;quot;Path\&amp;quot;,{\&amp;quot;applyMatrix\&amp;quot;:true,\&amp;quot;segments\&amp;quot;:[[[423,456],[0,0],[-1.65685,0]],[[420,453],[0,1.65685],[0,0]],[[420,363],[0,0],[0,-1.65685]],[[423,360],[-1.65685,0],[0,0]],[[609,360],[0,0],[1.65685,0]],[[612,363],[0,-1.65685],[0,0]],[[612,453],[0,0],[0,1.65685]],[[609,456],[1.65685,0],[0,0]]],\&amp;quot;closed\&amp;quot;:true}]&amp;quot;, :text-rect {:x 432, :y 396, :width 168, :height 24}, :shape-type :rect, :v 53, :content {#uuid &amp;quot;98f22a21-2ab6-45c9-83f4-aa9c499566e6&amp;quot; {:tag :p, :idx &amp;quot;12&amp;quot;, :content [&amp;quot;Login_History&amp;quot;]}}, :object-type :shape, :angle nil, :style {:color :dark-purple, :deco :outline}, :hitboxes nil, :gfx [:g [:rect {:x 420, :y 360, :width 192, :height 96, :rx 3, :ry 3, :fill &amp;quot;#e3cff3&amp;quot;}] [:rect {:y 360, :stroke-dasharray nil, :rx 3, :stroke &amp;quot;#730FC3&amp;quot;, :fill :none, :stroke-linejoin :round, :width 192, :stroke-dashoffset nil, :stroke-linecap :round, :stroke-width 2, :x 420, :ry 3, :height 96}] [:g.content [:g [:g [:g [:g nil [:g nil] [:text {:fill &amp;quot;#293845&amp;quot;, :hover-props {}} [:tspan {:x 462.3510513305664, :y 414.6666660308838, :font-family &amp;quot;DIN Next, system-ui, sans-serif&amp;quot;, :font-size 18, :font-style :normal, :font-weight :normal} &amp;quot;Login_History&amp;quot;]]]]]]]], :order [11], :rect {:x 420, :y 360, :width 192, :height 96}, :ref-item-deps nil}} {:deleted nil, :workspace-id #uuid &amp;quot;0114a7ee-93fc-4fdd-95fb-5dff189608b7&amp;quot;, :owned? true, :item-id #uuid &amp;quot;c442fe28-c7f3-42ca-9bf5-f730ab45d82f&amp;quot;, :created #inst &amp;quot;2024-10-16T13:58:31.382-00:00&amp;quot;, :stag 5, :item-type :object, :parent-id #uuid &amp;quot;aa27e94d-1b7c-4483-94ba-3d9130af0e14&amp;quot;, :access :readwrite, :data {:path #paper &amp;quot;[\&amp;quot;Path\&amp;quot;,{\&amp;quot;applyMatrix\&amp;quot;:true,\&amp;quot;segments\&amp;quot;:[[[555,648],[0,0],[-1.65685,0]],[[552,645],[0,1.65685],[0,0]],[[552,555],[0,0],[0,-1.65685]],[[555,552],[-1.65685,0],[0,0]],[[741,552],[0,0],[1.65685,0]],[[744,555],[0,-1.65685],[0,0]],[[744,645],[0,0],[0,1.65685]],[[741,648],[1.65685,0],[0,0]]],\&amp;quot;closed\&amp;quot;:true}]&amp;quot;, :text-rect {:x 564, :y 588, :width 168, :height 24}, :shape-type :rect, :v 53, :content {#uuid &amp;quot;14b2b469-f804-4fbc-a025-f393ee1e0938&amp;quot; {:tag :p, :idx &amp;quot;12&amp;quot;, :content [&amp;quot;Movie&amp;quot;]}}, :object-type :shape, :angle nil, :style {:color :dark-purple, :deco :outline}, :hitboxes nil, :gfx [:g [:rect {:x 552, :y 552, :width 192, :height 96, :rx 3, :ry 3, :fill &amp;quot;#e3cff3&amp;quot;}] [:rect {:y 552, :stroke-dasharray nil, :rx 3, :stroke &amp;quot;#730FC3&amp;quot;, :fill :none, :stroke-linejoin :round, :width 192, :stroke-dashoffset nil, :stroke-linecap :round, :stroke-width 2, :x 552, :ry 3, :height 96}] [:g.content [:g [:g [:g [:g nil [:g nil] [:text {:fill &amp;quot;#293845&amp;quot;, :hover-props {}} [:tspan {:x 625.4460144042969, :y 606.6666660308838, :font-family &amp;quot;DIN Next, system-ui, sans-serif&amp;quot;, :font-size 18, :font-style :normal, :font-weight :normal} &amp;quot;Movie&amp;quot;]]]]]]]], :order [8], :rect {:x 552, :y 552, :width 192, :height 96}, :ref-item-deps nil}} {:deleted nil, :workspace-id #uuid &amp;quot;0114a7ee-93fc-4fdd-95fb-5dff189608b7&amp;quot;, :owned? true, :item-id #uuid &amp;quot;5527d55b-0a32-4e37-905b-84b3dec125c4&amp;quot;, :created #inst &amp;quot;2024-10-16T13:58:31.399-00:00&amp;quot;, :stag 6, :item-type :object, :parent-id #uuid &amp;quot;aa27e94d-1b7c-4483-94ba-3d9130af0e14&amp;quot;, :access :readwrite, :data {:path #paper &amp;quot;[\&amp;quot;Path\&amp;quot;,{\&amp;quot;applyMatrix\&amp;quot;:true,\&amp;quot;segments\&amp;quot;:[[[675,1008],[0,0],[-1.65685,0]],[[672,1005],[0,1.65685],[0,0]],[[672,915],[0,0],[0,-1.65685]],[[675,912],[-1.65685,0],[0,0]],[[861,912],[0,0],[1.65685,0]],[[864,915],[0,-1.65685],[0,0]],[[864,1005],[0,0],[0,1.65685]],[[861,1008],[1.65685,0],[0,0]]],\&amp;quot;closed\&amp;quot;:true}]&amp;quot;, :text-rect {:x 684, :y 948, :width 168, :height 24}, :shape-type :rect, :v 53, :content {#uuid &amp;quot;9407d656-25da-41fb-9916-b95ff06fb958&amp;quot; {:tag :p, :idx &amp;quot;12&amp;quot;, :content [&amp;quot;Actor&amp;quot;]}}, :object-type :shape, :angle nil, :style {:color :dark-purple, :deco :outline}, :hitboxes nil, :gfx [:g [:rect {:x 672, :y 912, :width 192, :height 96, :rx 3, :ry 3, :fill &amp;quot;#e3cff3&amp;quot;}] [:rect {:y 912, :stroke-dasharray nil, :rx 3, :stroke &amp;quot;#730FC3&amp;quot;, :fill :none, :stroke-linejoin :round, :width 192, :stroke-dashoffset nil, :stroke-linecap :round, :stroke-width 2, :x 672, :ry 3, :height 96}] [:g.content [:g [:g [:g [:g nil [:g nil] [:text {:fill &amp;quot;#293845&amp;quot;, :hover-props {}} [:tspan {:x 747.1650238037109, :y 966.6666660308838, :font-family &amp;quot;DIN Next, system-ui, sans-serif&amp;quot;, :font-size 18, :font-style :normal, :font-weight :normal} &amp;quot;Actor&amp;quot;]]]]]]]], :order [7], :rect {:x 672, :y 912, :width 192, :height 96}, :ref-item-deps nil}} {:deleted nil, :workspace-id #uuid &amp;quot;0114a7ee-93fc-4fdd-95fb-5dff189608b7&amp;quot;, :owned? true, :item-id #uuid &amp;quot;529ef331-4d39-445c-90db-37db01201c17&amp;quot;, :created #inst &amp;quot;2024-10-16T13:58:31.450-00:00&amp;quot;, :stag 7, :item-type :object, :parent-id #uuid &amp;quot;aa27e94d-1b7c-4483-94ba-3d9130af0e14&amp;quot;, :access :readwrite, :data {:path #paper &amp;quot;[\&amp;quot;Path\&amp;quot;,{\&amp;quot;applyMatrix\&amp;quot;:true,\&amp;quot;segments\&amp;quot;:[[[51,96],[0,0],[-1.65685,0]],[[48,93],[0,1.65685],[0,0]],[[48,3],[0,0],[0,-1.65685]],[[51,0],[-1.65685,0],[0,0]],[[237,0],[0,0],[1.65685,0]],[[240,3],[0,-1.65685],[0,0]],[[240,93],[0,0],[0,1.65685]],[[237,96],[1.65685,0],[0,0]]],\&amp;quot;closed\&amp;quot;:true}]&amp;quot;, :text-rect {:x 60, :y 36, :width 168, :height 24}, :shape-type :rect, :v 53, :content {#uuid &amp;quot;e9961d80-f50b-4f0d-b21c-f3a0b88328ff&amp;quot; {:tag :p, :idx &amp;quot;12&amp;quot;, :content [&amp;quot;Review&amp;quot;]}}, :object-type :shape, :angle nil, :style {:color :dark-purple, :deco :outline}, :hitboxes nil, :gfx [:g [:rect {:x 48, :y 0, :width 192, :height 96, :rx 3, :ry 3, :fill &amp;quot;#e3cff3&amp;quot;}] [:rect {:y 0, :stroke-dasharray nil, :rx 3, :stroke &amp;quot;#730FC3&amp;quot;, :fill :none, :stroke-linejoin :round, :width 192, :stroke-dashoffset nil, :stroke-linecap :round, :stroke-width 2, :x 48, :ry 3, :height 96}] [:g.content [:g [:g [:g [:g nil [:g nil] [:text {:fill &amp;quot;#293845&amp;quot;, :hover-props {}} [:tspan {:x 116.09102630615234, :y 54.66666603088379, :font-family &amp;quot;DIN Next, system-ui, sans-serif&amp;quot;, :font-size 18, :font-style :normal, :font-weight :normal} &amp;quot;Review&amp;quot;]]]]]]]], :order [1], :rect {:x 48, :y 0, :width 192, :height 96}, :ref-item-deps nil}} {:deleted nil, :workspace-id #uuid &amp;quot;0114a7ee-93fc-4fdd-95fb-5dff189608b7&amp;quot;, :owned? true, :item-id #uuid &amp;quot;8f482cd9-7b97-4583-8356-5ecba0ebb025&amp;quot;, :created #inst &amp;quot;2024-10-16T13:58:31.472-00:00&amp;quot;, :stag 8, :item-type :object, :parent-id #uuid &amp;quot;aa27e94d-1b7c-4483-94ba-3d9130af0e14&amp;quot;, :access :readwrite, :data {:path #paper &amp;quot;[\&amp;quot;Path\&amp;quot;,{\&amp;quot;applyMatrix\&amp;quot;:true,\&amp;quot;segments\&amp;quot;:[[[1335,648],[0,0],[-1.65685,0]],[[1332,645],[0,1.65685],[0,0]],[[1332,555],[0,0],[0,-1.65685]],[[1335,552],[-1.65685,0],[0,0]],[[1521,552],[0,0],[1.65685,0]],[[1524,555],[0,-1.65685],[0,0]],[[1524,645],[0,0],[0,1.65685]],[[1521,648],[1.65685,0],[0,0]]],\&amp;quot;closed\&amp;quot;:true}]&amp;quot;, :text-rect {:x 1344, :y 588, :width 168, :height 24}, :shape-type :rect, :v 53, :content {#uuid &amp;quot;4def726b-9d82-4e0f-be98-e3c7d27343a7&amp;quot; {:tag :p, :idx &amp;quot;12&amp;quot;, :content [&amp;quot;Payment&amp;quot;]}}, :object-type :shape, :angle nil, :style {:color :dark-purple, :deco :outline}, :hitboxes nil, :gfx [:g [:rect {:x 1332, :y 552, :width 192, :height 96, :rx 3, :ry 3, :fill &amp;quot;#e3cff3&amp;quot;}] [:rect {:y 552, :stroke-dasharray nil, :rx 3, :stroke &amp;quot;#730FC3&amp;quot;, :fill :none, :stroke-linejoin :round, :width 192, :stroke-dashoffset nil, :stroke-linecap :round, :stroke-width 2, :x 1332, :ry 3, :height 96}] [:g.content [:g [:g [:g [:g nil [:g nil] [:text {:fill &amp;quot;#293845&amp;quot;, :hover-props {}} [:tspan {:x 1393.9710311889648, :y 606.6666660308838, :font-family &amp;quot;DIN Next, system-ui, sans-serif&amp;quot;, :font-size 18, :font-style :normal, :font-weight :normal} &amp;quot;Payment&amp;quot;]]]]]]]], :order [10], :rect {:x 1332, :y 552, :width 192, :height 96}, :ref-item-deps nil}} {:deleted nil, :workspace-id #uuid &amp;quot;0114a7ee-93fc-4fdd-95fb-5dff189608b7&amp;quot;, :owned? true, :item-id #uuid &amp;quot;e8ec9167-7c28-41f1-aa0e-7a9d7eaf5327&amp;quot;, :created #inst &amp;quot;2024-10-16T13:58:31.493-00:00&amp;quot;, :stag 9, :item-type :object, :parent-id #uuid &amp;quot;aa27e94d-1b7c-4483-94ba-3d9130af0e14&amp;quot;, :access :readwrite, :data {:text-anchor {:rel 0.7876628400536295, :x 516, :y 321}, :path #paper &amp;quot;[\&amp;quot;CompoundPath\&amp;quot;,{\&amp;quot;applyMatrix\&amp;quot;:true,\&amp;quot;children\&amp;quot;:[[\&amp;quot;Path\&amp;quot;,{\&amp;quot;applyMatrix\&amp;quot;:true,\&amp;quot;segments\&amp;quot;:[[544,228],[[530,228],[0,0],[-7.73198,0]],[[516,242],[0,-7.73198],[0,0]],[516,307]]}],[\&amp;quot;Path\&amp;quot;,{\&amp;quot;applyMatrix\&amp;quot;:true,\&amp;quot;segments\&amp;quot;:[[544,228],[543,228]]}],[\&amp;quot;Path\&amp;quot;,{\&amp;quot;applyMatrix\&amp;quot;:true,\&amp;quot;segments\&amp;quot;:[[543,228],[[530,228],[0,0],[-7.73198,0]],[[516,242],[0,-7.73198],[0,0]],[516,307]]}],[\&amp;quot;Path\&amp;quot;,{\&amp;quot;applyMatrix\&amp;quot;:true,\&amp;quot;segments\&amp;quot;:[[516,335],[516,352]]}]]}]&amp;quot;, :text-rect {:x 476, :y 309, :width 80, :height 24}, :to-id #uuid &amp;quot;ed1b845b-bba5-42ad-a18e-7cd28c6c7bc0&amp;quot;, :from-id #uuid &amp;quot;8a8aa2e5-cb0c-4620-bdd8-1c9a38479b72&amp;quot;, :v 53, :to-rel {:rx 0.5, :ry 0.5, :a :y}, :content {#uuid &amp;quot;d8e80f01-e6f0-43a4-9820-b19bf1bd92b8&amp;quot; {:tag :p, :idx &amp;quot;12&amp;quot;, :content [&amp;quot;1-to-Many&amp;quot;]}}, :from-rel {:rx 0.5, :ry 0.5, :a :x}, :object-type :connector, :points [], :to-endpoint :arrow, :style {:color :silver, :deco :outline}, :hitboxes nil, :to-pos {:x 516, :y 352}, :gfx [:g {} nil [:path {:d &amp;quot;M543,228h-13c-7.73198,0 -14,6.26802 -14,14v65M516,335v13&amp;quot;, :fill :none, :clip-path nil, :stroke &amp;quot;#788896&amp;quot;, :stroke-linecap :round, :stroke-linejoin :round, :stroke-width 4}] nil [:polygon {:points &amp;quot;521.54095,344.9079 516,352 510.45905,344.9079&amp;quot;, :fill &amp;quot;#788896&amp;quot;, :stroke &amp;quot;#788896&amp;quot;, :stroke-width 2, :clip-path nil, :stroke-linecap :round, :stroke-linejoin :round}] [:g.content [:g [:g [:g [:g nil [:g nil] [:text {:fill &amp;quot;#293845&amp;quot;, :hover-props {}} [:tspan {:x 476.1750259399414, :y 327.6666660308838, :font-family &amp;quot;DIN Next, system-ui, sans-serif&amp;quot;, :font-size 18, :font-style :normal, :font-weight :normal} &amp;quot;1-to-Many&amp;quot;]]]]]]]], :baseline-path #paper &amp;quot;[\&amp;quot;Path\&amp;quot;,{\&amp;quot;applyMatrix\&amp;quot;:true,\&amp;quot;segments\&amp;quot;:[[648,228],[516,228],[516,408]]}]&amp;quot;, :order [16], :from-pos {:x 544, :y 228}, :connector-type :elbow, :cont-path #paper &amp;quot;[\&amp;quot;Path\&amp;quot;,{\&amp;quot;applyMatrix\&amp;quot;:true,\&amp;quot;segments\&amp;quot;:[[544,228],[[530,228],[0,0],[-7.73198,0]],[[516,242],[0,-7.73198],[0,0]],[516,352]]}]&amp;quot;, :rect {:x 472, :y 224, :width 88, :height 133}, :edges [{:y 228, :offset 132} {:x 516, :offset 312}], :ref-item-deps nil}} {:deleted nil, :workspace-id #uuid &amp;quot;0114a7ee-93fc-4fdd-95fb-5dff189608b7&amp;quot;, :owned? true, :item-id #uuid &amp;quot;356b6aee-bcb3-4dd4-8066-fff46485d5ba&amp;quot;, :created #inst &amp;quot;2024-10-16T13:58:31.518-00:00&amp;quot;, :stag 10, :item-type :object, :parent-id #uuid &amp;quot;aa27e94d-1b7c-4483-94ba-3d9130af0e14&amp;quot;, :access :readwrite, :data {:text-anchor {:rel 0.05790084962890925, :x 1296, :y 503}, :path #paper &amp;quot;[\&amp;quot;CompoundPath\&amp;quot;,{\&amp;quot;applyMatrix\&amp;quot;:true,\&amp;quot;children\&amp;quot;:[[\&amp;quot;Path\&amp;quot;,{\&amp;quot;applyMatrix\&amp;quot;:true,\&amp;quot;segments\&amp;quot;:[[1296,464],[1296,489]]}],[\&amp;quot;Path\&amp;quot;,{\&amp;quot;applyMatrix\&amp;quot;:true,\&amp;quot;segments\&amp;quot;:[[1296,464],[1296,465]]}],[\&amp;quot;Path\&amp;quot;,{\&amp;quot;applyMatrix\&amp;quot;:true,\&amp;quot;segments\&amp;quot;:[[1296,465],[1296,489]]}],[\&amp;quot;Path\&amp;quot;,{\&amp;quot;applyMatrix\&amp;quot;:true,\&amp;quot;segments\&amp;quot;:[[1296,517],[[1296,585],[0,0],[0,8.28426]],[[1281,600],[8.28426,0],[0,0]],[752,600]]}]]}]&amp;quot;, :text-rect {:x 1256, :y 491, :width 80, :height 24}, :to-id #uuid &amp;quot;c442fe28-c7f3-42ca-9bf5-f730ab45d82f&amp;quot;, :from-id #uuid &amp;quot;846df258-881e-4900-95ee-1b1b1fcbda93&amp;quot;, :v 53, :to-rel {:rx 0.5, :ry 0.5, :a :x}, :content {#uuid &amp;quot;cce01d7d-2a73-4dd4-9b49-a165808e477c&amp;quot; {:tag :p, :idx &amp;quot;12&amp;quot;, :content [&amp;quot;Many-to-1&amp;quot;]}}, :from-rel {:rx 0.5, :ry 0.5, :a :y}, :object-type :connector, :points [], :to-endpoint :arrow, :style {:color :silver, :deco :outline}, :hitboxes nil, :to-pos {:x 752, :y 600}, :gfx [:g {} nil [:path {:d &amp;quot;M1296,465v24M1296,517v68c0,8.28426 -6.71574,15 -15,15h-525&amp;quot;, :fill :none, :clip-path nil, :stroke &amp;quot;#788896&amp;quot;, :stroke-linecap :round, :stroke-linejoin :round, :stroke-width 4}] nil [:polygon {:points &amp;quot;759.0921,605.54095 752,600 759.0921,594.45905&amp;quot;, :fill &amp;quot;#788896&amp;quot;, :stroke &amp;quot;#788896&amp;quot;, :stroke-width 2, :clip-path nil, :stroke-linecap :round, :stroke-linejoin :round}] [:g.content [:g [:g [:g [:g nil [:g nil] [:text {:fill &amp;quot;#293845&amp;quot;, :hover-props {}} [:tspan {:x 1256.2920227050781, :y 509.6666660308838, :font-family &amp;quot;DIN Next, system-ui, sans-serif&amp;quot;, :font-size 18, :font-style :normal, :font-weight :normal} &amp;quot;Many-to-1&amp;quot;]]]]]]]], :baseline-path #paper &amp;quot;[\&amp;quot;Path\&amp;quot;,{\&amp;quot;applyMatrix\&amp;quot;:true,\&amp;quot;segments\&amp;quot;:[[1296,408],[1296,600],[648,600]]}]&amp;quot;, :order [28], :from-pos {:x 1296, :y 464}, :connector-type :elbow, :cont-path #paper &amp;quot;[\&amp;quot;Path\&amp;quot;,{\&amp;quot;applyMatrix\&amp;quot;:true,\&amp;quot;segments\&amp;quot;:[[1296,464],[[1296,585],[0,0],[0,8.28426]],[[1281,600],[8.28426,0],[0,0]],[752,600]]}]&amp;quot;, :rect {:x 748, :y 460, :width 592, :height 144}, :edges [{:x 1296, :offset 192} {:y 600, :offset 840}], :ref-item-deps nil}} {:deleted nil, :workspace-id #uuid &amp;quot;0114a7ee-93fc-4fdd-95fb-5dff189608b7&amp;quot;, :owned? true, :item-id #uuid &amp;quot;56ec619d-6395-4c01-bd70-14f94a61191f&amp;quot;, :created #inst &amp;quot;2024-10-16T13:58:31.546-00:00&amp;quot;, :stag 11, :item-type :object, :parent-id #uuid &amp;quot;aa27e94d-1b7c-4483-94ba-3d9130af0e14&amp;quot;, :access :readwrite, :data {:text-anchor {:rel 0.5441176470588235, :x 696, :y 321}, :path #paper &amp;quot;[\&amp;quot;CompoundPath\&amp;quot;,{\&amp;quot;applyMatrix\&amp;quot;:true,\&amp;quot;children\&amp;quot;:[[\&amp;quot;Path\&amp;quot;,{\&amp;quot;applyMatrix\&amp;quot;:true,\&amp;quot;segments\&amp;quot;:[[696,284],[696,307]]}],[\&amp;quot;Path\&amp;quot;,{\&amp;quot;applyMatrix\&amp;quot;:true,\&amp;quot;segments\&amp;quot;:[[696,284],[696,285]]}],[\&amp;quot;Path\&amp;quot;,{\&amp;quot;applyMatrix\&amp;quot;:true,\&amp;quot;segments\&amp;quot;:[[696,285],[696,307]]}],[\&amp;quot;Path\&amp;quot;,{\&amp;quot;applyMatrix\&amp;quot;:true,\&amp;quot;segments\&amp;quot;:[[696,335],[696,352]]}]]}]&amp;quot;, :text-rect {:x 656, :y 309, :width 80, :height 24}, :to-id #uuid &amp;quot;63be3a8c-62e0-484b-97f8-728eb4c4069e&amp;quot;, :from-id #uuid &amp;quot;8a8aa2e5-cb0c-4620-bdd8-1c9a38479b72&amp;quot;, :v 53, :to-rel {:rx 0.5, :ry 0.5, :a :x}, :content {#uuid &amp;quot;755a90e8-0ca3-4867-a397-2974214f618d&amp;quot; {:tag :p, :idx &amp;quot;12&amp;quot;, :content [&amp;quot;1-to-Many&amp;quot;]}}, :from-rel {:rx 0.5, :ry 0.5, :a :x}, :object-type :connector, :points [], :to-endpoint :arrow, :style {:color :silver, :deco :outline}, :hitboxes nil, :to-pos {:x 696, :y 352}, :gfx [:g {} nil [:path {:d &amp;quot;M696,285v22M696,335v13&amp;quot;, :fill :none, :clip-path nil, :stroke &amp;quot;#788896&amp;quot;, :stroke-linecap :round, :stroke-linejoin :round, :stroke-width 4}] nil [:polygon {:points &amp;quot;701.54095,344.9079 696,352 690.45905,344.9079&amp;quot;, :fill &amp;quot;#788896&amp;quot;, :stroke &amp;quot;#788896&amp;quot;, :stroke-width 2, :clip-path nil, :stroke-linecap :round, :stroke-linejoin :round}] [:g.content [:g [:g [:g [:g nil [:g nil] [:text {:fill &amp;quot;#293845&amp;quot;, :hover-props {}} [:tspan {:x 656.1750259399414, :y 327.6666660308838, :font-family &amp;quot;DIN Next, system-ui, sans-serif&amp;quot;, :font-size 18, :font-style :normal, :font-weight :normal} &amp;quot;1-to-Many&amp;quot;]]]]]]]], :baseline-path #paper &amp;quot;[\&amp;quot;Path\&amp;quot;,{\&amp;quot;applyMatrix\&amp;quot;:true,\&amp;quot;segments\&amp;quot;:[[648,228],[696,228],[696,408],[768,408]]}]&amp;quot;, :order [17], :from-pos {:x 696, :y 284}, :connector-type :elbow, :cont-path #paper &amp;quot;[\&amp;quot;Path\&amp;quot;,{\&amp;quot;applyMatrix\&amp;quot;:true,\&amp;quot;segments\&amp;quot;:[[696,284],[696,352]]}]&amp;quot;, :rect {:x 652, :y 280, :width 88, :height 76}, :edges [{:y 228, :offset 48} {:x 696, :offset 228} {:y 408, :offset 300}], :ref-item-deps nil}} {:deleted nil, :workspace-id #uuid &amp;quot;0114a7ee-93fc-4fdd-95fb-5dff189608b7&amp;quot;, :owned? true, :item-id #uuid &amp;quot;66b8d146-9b87-4672-93f7-6a5b041037da&amp;quot;, :created #inst &amp;quot;2024-10-16T13:58:31.574-00:00&amp;quot;, :stag 12, :item-type :object, :parent-id #uuid &amp;quot;aa27e94d-1b7c-4483-94ba-3d9130af0e14&amp;quot;, :access :readwrite, :data {:text-anchor {:rel 0.7144282511578995, :x 528, :y 685}, :path #paper &amp;quot;[\&amp;quot;CompoundPath\&amp;quot;,{\&amp;quot;applyMatrix\&amp;quot;:true,\&amp;quot;children\&amp;quot;:[[\&amp;quot;Path\&amp;quot;,{\&amp;quot;applyMatrix\&amp;quot;:true,\&amp;quot;segments\&amp;quot;:[[544,600],[[536,600],[0,0],[-4.41827,0]],[[528,608],[0,-4.41827],[0,0]],[528,671]]}],[\&amp;quot;Path\&amp;quot;,{\&amp;quot;applyMatrix\&amp;quot;:true,\&amp;quot;segments\&amp;quot;:[[544,600],[543,600]]}],[\&amp;quot;Path\&amp;quot;,{\&amp;quot;applyMatrix\&amp;quot;:true,\&amp;quot;segments\&amp;quot;:[[543,600],[[536,600],[0,0],[-4.41827,0]],[[528,608],[0,-4.41827],[0,0]],[528,671]]}],[\&amp;quot;Path\&amp;quot;,{\&amp;quot;applyMatrix\&amp;quot;:true,\&amp;quot;segments\&amp;quot;:[[528,699],[528,724]]}]]}]&amp;quot;, :text-rect {:x 488, :y 673, :width 80, :height 24}, :to-id #uuid &amp;quot;3f7b538c-8092-455b-a97f-4b03449c4333&amp;quot;, :from-id #uuid &amp;quot;c442fe28-c7f3-42ca-9bf5-f730ab45d82f&amp;quot;, :v 53, :to-rel {:rx 0.5, :ry 0.5, :a :y}, :content {#uuid &amp;quot;ea55d0ff-9846-4ee2-a004-eb5fc94c096c&amp;quot; {:tag :p, :idx &amp;quot;12&amp;quot;, :content [&amp;quot;Many-to-1&amp;quot;]}}, :from-rel {:rx 0.5, :ry 0.5, :a :x}, :object-type :connector, :points [], :to-endpoint :arrow, :style {:color :silver, :deco :outline}, :hitboxes nil, :to-pos {:x 528, :y 724}, :gfx [:g {} nil [:path {:d &amp;quot;M543,600h-7c-4.41827,0 -8,3.58173 -8,8v63M528,699v21&amp;quot;, :fill :none, :clip-path nil, :stroke &amp;quot;#788896&amp;quot;, :stroke-linecap :round, :stroke-linejoin :round, :stroke-width 4}] nil [:polygon {:points &amp;quot;533.54095,716.9079 528,724 522.45905,716.9079&amp;quot;, :fill &amp;quot;#788896&amp;quot;, :stroke &amp;quot;#788896&amp;quot;, :stroke-width 2, :clip-path nil, :stroke-linecap :round, :stroke-linejoin :round}] [:g.content [:g [:g [:g [:g nil [:g nil] [:text {:fill &amp;quot;#293845&amp;quot;, :hover-props {}} [:tspan {:x 488.2920227050781, :y 691.6666660308838, :font-family &amp;quot;DIN Next, system-ui, sans-serif&amp;quot;, :font-size 18, :font-style :normal, :font-weight :normal} &amp;quot;Many-to-1&amp;quot;]]]]]]]], :baseline-path #paper &amp;quot;[\&amp;quot;Path\&amp;quot;,{\&amp;quot;applyMatrix\&amp;quot;:true,\&amp;quot;segments\&amp;quot;:[[648,600],[528,600],[528,780]]}]&amp;quot;, :order [20], :from-pos {:x 544, :y 600}, :connector-type :elbow, :cont-path #paper &amp;quot;[\&amp;quot;Path\&amp;quot;,{\&amp;quot;applyMatrix\&amp;quot;:true,\&amp;quot;segments\&amp;quot;:[[544,600],[[536,600],[0,0],[-4.41827,0]],[[528,608],[0,-4.41827],[0,0]],[528,724]]}]&amp;quot;, :rect {:x 484, :y 596, :width 88, :height 132}, :edges [{:y 600, :offset 120} {:x 528, :offset 300}], :ref-item-deps nil}} {:deleted nil, :workspace-id #uuid &amp;quot;0114a7ee-93fc-4fdd-95fb-5dff189608b7&amp;quot;, :owned? true, :item-id #uuid &amp;quot;7c83290d-7c1c-453a-afea-95304f20f450&amp;quot;, :created #inst &amp;quot;2024-10-16T13:58:31.591-00:00&amp;quot;, :stag 13, :item-type :object, :parent-id #uuid &amp;quot;aa27e94d-1b7c-4483-94ba-3d9130af0e14&amp;quot;, :access :readwrite, :data {:text-anchor {:rel 0.08803586427257015, :x 1032, :y 139}, :path #paper &amp;quot;[\&amp;quot;CompoundPath\&amp;quot;,{\&amp;quot;applyMatrix\&amp;quot;:true,\&amp;quot;children\&amp;quot;:[[\&amp;quot;Path\&amp;quot;,{\&amp;quot;applyMatrix\&amp;quot;:true,\&amp;quot;segments\&amp;quot;:[[1032,104],[1032,125]]}],[\&amp;quot;Path\&amp;quot;,{\&amp;quot;applyMatrix\&amp;quot;:true,\&amp;quot;segments\&amp;quot;:[[1032,104],[1032,105]]}],[\&amp;quot;Path\&amp;quot;,{\&amp;quot;applyMatrix\&amp;quot;:true,\&amp;quot;segments\&amp;quot;:[[1032,105],[1032,125]]}],[\&amp;quot;Path\&amp;quot;,{\&amp;quot;applyMatrix\&amp;quot;:true,\&amp;quot;segments\&amp;quot;:[[1032,153],[[1032,213],[0,0],[0,8.28426]],[[1017,228],[8.28426,0],[0,0]],[752,228]]}]]}]&amp;quot;, :text-rect {:x 1007.5, :y 127, :width 49, :height 24}, :to-id #uuid &amp;quot;8a8aa2e5-cb0c-4620-bdd8-1c9a38479b72&amp;quot;, :from-id #uuid &amp;quot;0dd42167-4c3b-423b-9db0-dbf7d9d14228&amp;quot;, :v 53, :to-rel {:rx 0.5, :ry 0.5, :a :x}, :content {#uuid &amp;quot;c1be8289-5c08-4424-9693-f54f19795b9d&amp;quot; {:tag :p, :idx &amp;quot;12&amp;quot;, :content [&amp;quot;1-to-1&amp;quot;]}}, :from-rel {:rx 0.5, :ry 0.5, :a :x}, :object-type :connector, :points [], :to-endpoint :arrow, :style {:color :silver, :deco :outline}, :hitboxes nil, :to-pos {:x 752, :y 228}, :gfx [:g {} nil [:path {:d &amp;quot;M1032,105v20M1032,153v60c0,8.28426 -6.71574,15 -15,15h-261&amp;quot;, :fill :none, :clip-path nil, :stroke &amp;quot;#788896&amp;quot;, :stroke-linecap :round, :stroke-linejoin :round, :stroke-width 4}] nil [:polygon {:points &amp;quot;759.0921,233.54095 752,228 759.0921,222.45905&amp;quot;, :fill &amp;quot;#788896&amp;quot;, :stroke &amp;quot;#788896&amp;quot;, :stroke-width 2, :clip-path nil, :stroke-linecap :round, :stroke-linejoin :round}] [:g.content [:g [:g [:g [:g nil [:g nil] [:text {:fill &amp;quot;#293845&amp;quot;, :hover-props {}} [:tspan {:x 1007.916015625, :y 145.6666660308838, :font-family &amp;quot;DIN Next, system-ui, sans-serif&amp;quot;, :font-size 18, :font-style :normal, :font-weight :normal} &amp;quot;1-to-1&amp;quot;]]]]]]]], :baseline-path #paper &amp;quot;[\&amp;quot;Path\&amp;quot;,{\&amp;quot;applyMatrix\&amp;quot;:true,\&amp;quot;segments\&amp;quot;:[[1044,48],[1032,48],[1032,228],[648,228]]}]&amp;quot;, :order [27], :from-pos {:x 1032, :y 104}, :connector-type :elbow, :cont-path #paper &amp;quot;[\&amp;quot;Path\&amp;quot;,{\&amp;quot;applyMatrix\&amp;quot;:true,\&amp;quot;segments\&amp;quot;:[[1032,104],[[1032,213],[0,0],[0,8.28426]],[[1017,228],[8.28426,0],[0,0]],[752,228]]}]&amp;quot;, :rect {:x 748, :y 100, :width 313, :height 132}, :edges [{:y 48, :offset 12} {:x 1032, :offset 192} {:y 228, :offset 576}], :ref-item-deps nil}} {:deleted nil, :workspace-id #uuid &amp;quot;0114a7ee-93fc-4fdd-95fb-5dff189608b7&amp;quot;, :owned? true, :item-id #uuid &amp;quot;142e5ef8-c7f3-4fdd-bb02-fb506d684e32&amp;quot;, :created #inst &amp;quot;2024-10-16T13:58:31.605-00:00&amp;quot;, :stag 14, :item-type :object, :parent-id #uuid &amp;quot;aa27e94d-1b7c-4483-94ba-3d9130af0e14&amp;quot;, :access :readwrite, :data {:path #paper &amp;quot;[\&amp;quot;Path\&amp;quot;,{\&amp;quot;applyMatrix\&amp;quot;:true,\&amp;quot;segments\&amp;quot;:[[[675,828],[0,0],[-1.65685,0]],[[672,825],[0,1.65685],[0,0]],[[672,735],[0,0],[0,-1.65685]],[[675,732],[-1.65685,0],[0,0]],[[861,732],[0,0],[1.65685,0]],[[864,735],[0,-1.65685],[0,0]],[[864,825],[0,0],[0,1.65685]],[[861,828],[1.65685,0],[0,0]]],\&amp;quot;closed\&amp;quot;:true}]&amp;quot;, :text-rect {:x 684, :y 768, :width 168, :height 24}, :shape-type :rect, :v 53, :content {#uuid &amp;quot;cf71a3b1-4ea7-4078-b005-4638730d22fa&amp;quot; {:tag :p, :idx &amp;quot;12&amp;quot;, :content [&amp;quot;Movie_Actor&amp;quot;]}}, :object-type :shape, :angle nil, :style {:color :dark-purple, :deco :outline}, :hitboxes nil, :gfx [:g [:rect {:x 672, :y 732, :width 192, :height 96, :rx 3, :ry 3, :fill &amp;quot;#e3cff3&amp;quot;}] [:rect {:y 732, :stroke-dasharray nil, :rx 3, :stroke &amp;quot;#730FC3&amp;quot;, :fill :none, :stroke-linejoin :round, :width 192, :stroke-dashoffset nil, :stroke-linecap :round, :stroke-width 2, :x 672, :ry 3, :height 96}] [:g.content [:g [:g [:g [:g nil [:g nil] [:text {:fill &amp;quot;#293845&amp;quot;, :hover-props {}} [:tspan {:x 720.3270416259766, :y 786.6666660308838, :font-family &amp;quot;DIN Next, system-ui, sans-serif&amp;quot;, :font-size 18, :font-style :normal, :font-weight :normal} &amp;quot;Movie_Actor&amp;quot;]]]]]]]], :order [2], :rect {:x 672, :y 732, :width 192, :height 96}, :ref-item-deps nil}} {:deleted nil, :workspace-id #uuid &amp;quot;0114a7ee-93fc-4fdd-95fb-5dff189608b7&amp;quot;, :owned? true, :item-id #uuid &amp;quot;0676571a-c86e-4fb2-9e9e-28a274795bfa&amp;quot;, :created #inst &amp;quot;2024-10-16T13:58:31.624-00:00&amp;quot;, :stag 15, :item-type :object, :parent-id #uuid &amp;quot;aa27e94d-1b7c-4483-94ba-3d9130af0e14&amp;quot;, :access :readwrite, :data {:text-anchor {:rel 0.17073752137835618, :x 840, :y 321}, :path #paper &amp;quot;[\&amp;quot;CompoundPath\&amp;quot;,{\&amp;quot;applyMatrix\&amp;quot;:true,\&amp;quot;children\&amp;quot;:[[\&amp;quot;Path\&amp;quot;,{\&amp;quot;applyMatrix\&amp;quot;:true,\&amp;quot;segments\&amp;quot;:[[840,352],[840,335]]}],[\&amp;quot;Path\&amp;quot;,{\&amp;quot;applyMatrix\&amp;quot;:true,\&amp;quot;segments\&amp;quot;:[[840,352],[840,351]]}],[\&amp;quot;Path\&amp;quot;,{\&amp;quot;applyMatrix\&amp;quot;:true,\&amp;quot;segments\&amp;quot;:[[840,351],[840,335]]}],[\&amp;quot;Path\&amp;quot;,{\&amp;quot;applyMatrix\&amp;quot;:true,\&amp;quot;segments\&amp;quot;:[[840,307],[[840,267],[0,0],[0,-8.28426]],[[825,252],[8.28426,0],[0,0]],[752,252]]}]]}]&amp;quot;, :text-rect {:x 815.5, :y 309, :width 49, :height 24}, :to-id #uuid &amp;quot;8a8aa2e5-cb0c-4620-bdd8-1c9a38479b72&amp;quot;, :from-id #uuid &amp;quot;63be3a8c-62e0-484b-97f8-728eb4c4069e&amp;quot;, :v 53, :to-rel {:rx 0.5, :ry 0.75, :a :x}, :content {#uuid &amp;quot;016769ce-ab64-4c1f-8a80-16df49aba600&amp;quot; {:tag :p, :idx &amp;quot;12&amp;quot;, :content [&amp;quot;1-to-1&amp;quot;]}}, :from-rel {:rx 0.5, :ry 0.25, :a :x}, :object-type :connector, :points [], :to-endpoint :arrow, :style {:color :silver, :deco :outline}, :hitboxes nil, :to-pos {:x 752, :y 252}, :gfx [:g {} nil [:path {:d &amp;quot;M840,351v-16M840,307v-40c0,-8.28426 -6.71574,-15 -15,-15h-69&amp;quot;, :fill :none, :clip-path nil, :stroke &amp;quot;#788896&amp;quot;, :stroke-linecap :round, :stroke-linejoin :round, :stroke-width 4}] nil [:polygon {:points &amp;quot;759.0921,257.54095 752,252 759.0921,246.45905&amp;quot;, :fill &amp;quot;#788896&amp;quot;, :stroke &amp;quot;#788896&amp;quot;, :stroke-width 2, :clip-path nil, :stroke-linecap :round, :stroke-linejoin :round}] [:g.content [:g [:g [:g [:g nil [:g nil] [:text {:fill &amp;quot;#293845&amp;quot;, :hover-props {}} [:tspan {:x 815.916015625, :y 327.6666660308838, :font-family &amp;quot;DIN Next, system-ui, sans-serif&amp;quot;, :font-size 18, :font-style :normal, :font-weight :normal} &amp;quot;1-to-1&amp;quot;]]]]]]]], :baseline-path #paper &amp;quot;[\&amp;quot;Path\&amp;quot;,{\&amp;quot;applyMatrix\&amp;quot;:true,\&amp;quot;segments\&amp;quot;:[[768,384],[840,384],[840,252],[648,252]]}]&amp;quot;, :order [18], :from-pos {:x 840, :y 352}, :connector-type :elbow, :cont-path #paper &amp;quot;[\&amp;quot;Path\&amp;quot;,{\&amp;quot;applyMatrix\&amp;quot;:true,\&amp;quot;segments\&amp;quot;:[[840,352],[[840,267],[0,0],[0,-8.28426]],[[825,252],[8.28426,0],[0,0]],[752,252]]}]&amp;quot;, :rect {:x 748, :y 248, :width 121, :height 108}, :edges [{:y 384, :offset 72} {:x 840, :offset 204} {:y 252, :offset 396}], :ref-item-deps nil}} {:deleted nil, :workspace-id #uuid &amp;quot;0114a7ee-93fc-4fdd-95fb-5dff189608b7&amp;quot;, :owned? true, :item-id #uuid &amp;quot;0dd42167-4c3b-423b-9db0-dbf7d9d14228&amp;quot;, :created #inst &amp;quot;2024-10-16T13:58:31.643-00:00&amp;quot;, :stag 16, :item-type :object, :parent-id #uuid &amp;quot;aa27e94d-1b7c-4483-94ba-3d9130af0e14&amp;quot;, :access :readwrite, :data {:path #paper &amp;quot;[\&amp;quot;Path\&amp;quot;,{\&amp;quot;applyMatrix\&amp;quot;:true,\&amp;quot;segments\&amp;quot;:[[[951,96],[0,0],[-1.65685,0]],[[948,93],[0,1.65685],[0,0]],[[948,3],[0,0],[0,-1.65685]],[[951,0],[-1.65685,0],[0,0]],[[1137,0],[0,0],[1.65685,0]],[[1140,3],[0,-1.65685],[0,0]],[[1140,93],[0,0],[0,1.65685]],[[1137,96],[1.65685,0],[0,0]]],\&amp;quot;closed\&amp;quot;:true}]&amp;quot;, :text-rect {:x 960, :y 36, :width 168, :height 24}, :shape-type :rect, :v 53, :content {#uuid &amp;quot;b20b7490-ed6e-489b-ba66-e9ae385b26bd&amp;quot; {:tag :p, :idx &amp;quot;12&amp;quot;, :content [&amp;quot;Wishlist&amp;quot;]}}, :object-type :shape, :angle nil, :style {:color :dark-purple, :deco :outline}, :hitboxes nil, :gfx [:g [:rect {:x 948, :y 0, :width 192, :height 96, :rx 3, :ry 3, :fill &amp;quot;#e3cff3&amp;quot;}] [:rect {:y 0, :stroke-dasharray nil, :rx 3, :stroke &amp;quot;#730FC3&amp;quot;, :fill :none, :stroke-linejoin :round, :width 192, :stroke-dashoffset nil, :stroke-linecap :round, :stroke-width 2, :x 948, :ry 3, :height 96}] [:g.content [:g [:g [:g [:g nil [:g nil] [:text {:fill &amp;quot;#293845&amp;quot;, :hover-props {}} [:tspan {:x 1013.0760345458984, :y 54.66666603088379, :font-family &amp;quot;DIN Next, system-ui, sans-serif&amp;quot;, :font-size 18, :font-style :normal, :font-weight :normal} &amp;quot;Wishlist&amp;quot;]]]]]]]], :order [5], :rect {:x 948, :y 0, :width 192, :height 96}, :ref-item-deps nil}} {:deleted nil, :workspace-id #uuid &amp;quot;0114a7ee-93fc-4fdd-95fb-5dff189608b7&amp;quot;, :owned? true, :item-id #uuid &amp;quot;9b6de65f-caf3-479e-9871-11d52a5dd4d9&amp;quot;, :created #inst &amp;quot;2024-10-16T13:58:31.663-00:00&amp;quot;, :stag 17, :item-type :object, :parent-id #uuid &amp;quot;aa27e94d-1b7c-4483-94ba-3d9130af0e14&amp;quot;, :access :readwrite, :data {:text-anchor {:rel 0.29435966010195364, :x 1164, :y 321}, :path #paper &amp;quot;[\&amp;quot;CompoundPath\&amp;quot;,{\&amp;quot;applyMatrix\&amp;quot;:true,\&amp;quot;children\&amp;quot;:[[\&amp;quot;Path\&amp;quot;,{\&amp;quot;applyMatrix\&amp;quot;:true,\&amp;quot;segments\&amp;quot;:[[1148,48],[[1156,48],[0,0],[4.41827,0]],[[1164,56],[0,-4.41827],[0,0]],[1164,307]]}],[\&amp;quot;Path\&amp;quot;,{\&amp;quot;applyMatrix\&amp;quot;:true,\&amp;quot;segments\&amp;quot;:[[1148,48],[1149,48]]}],[\&amp;quot;Path\&amp;quot;,{\&amp;quot;applyMatrix\&amp;quot;:true,\&amp;quot;segments\&amp;quot;:[[1149,48],[[1156,48],[0,0],[4.41827,0]],[[1164,56],[0,-4.41827],[0,0]],[1164,307]]}],[\&amp;quot;Path\&amp;quot;,{\&amp;quot;applyMatrix\&amp;quot;:true,\&amp;quot;segments\&amp;quot;:[[1164,335],[[1164,585],[0,0],[0,8.28426]],[[1149,600],[8.28426,0],[0,0]],[752,600]]}]]}]&amp;quot;, :text-rect {:x 1139.5, :y 309, :width 49, :height 24}, :to-id #uuid &amp;quot;c442fe28-c7f3-42ca-9bf5-f730ab45d82f&amp;quot;, :from-id #uuid &amp;quot;0dd42167-4c3b-423b-9db0-dbf7d9d14228&amp;quot;, :v 53, :to-rel {:rx 0.5, :ry 0.5, :a :x}, :content {#uuid &amp;quot;4d2e456b-38a2-49ec-bbe0-45ef4275b628&amp;quot; {:tag :p, :idx &amp;quot;12&amp;quot;, :content [&amp;quot;1-to-1&amp;quot;]}}, :from-rel {:rx 0.5, :ry 0.5, :a :x}, :object-type :connector, :points [], :to-endpoint :arrow, :style {:color :silver, :deco :outline}, :hitboxes nil, :to-pos {:x 752, :y 600}, :gfx [:g {} nil [:path {:d &amp;quot;M1149,48l7,0c4.41827,0 8,3.58173 8,8v251M1164,335v250c0,8.28426 -6.71574,15 -15,15h-393&amp;quot;, :fill :none, :clip-path nil, :stroke &amp;quot;#788896&amp;quot;, :stroke-linecap :round, :stroke-linejoin :round, :stroke-width 4}] nil [:polygon {:points &amp;quot;759.0921,605.54095 752,600 759.0921,594.45905&amp;quot;, :fill &amp;quot;#788896&amp;quot;, :stroke &amp;quot;#788896&amp;quot;, :stroke-width 2, :clip-path nil, :stroke-linecap :round, :stroke-linejoin :round}] [:g.content [:g [:g [:g [:g nil [:g nil] [:text {:fill &amp;quot;#293845&amp;quot;, :hover-props {}} [:tspan {:x 1139.916015625, :y 327.6666660308838, :font-family &amp;quot;DIN Next, system-ui, sans-serif&amp;quot;, :font-size 18, :font-style :normal, :font-weight :normal} &amp;quot;1-to-1&amp;quot;]]]]]]]], :baseline-path #paper &amp;quot;[\&amp;quot;Path\&amp;quot;,{\&amp;quot;applyMatrix\&amp;quot;:true,\&amp;quot;segments\&amp;quot;:[[1044,48],[1164,48],[1164,600],[648,600]]}]&amp;quot;, :order [26], :from-pos {:x 1148, :y 48}, :connector-type :elbow, :cont-path #paper &amp;quot;[\&amp;quot;Path\&amp;quot;,{\&amp;quot;applyMatrix\&amp;quot;:true,\&amp;quot;segments\&amp;quot;:[[1148,48],[[1156,48],[0,0],[4.41827,0]],[[1164,56],[0,-4.41827],[0,0]],[[1164,585],[0,0],[0,8.28426]],[[1149,600],[8.28426,0],[0,0]],[752,600]]}]&amp;quot;, :rect {:x 748, :y 44, :width 445, :height 560}, :edges [{:y 48, :offset 120} {:x 1164, :offset 672} {:y 600, :offset 1188}], :ref-item-deps nil}} {:deleted nil, :workspace-id #uuid &amp;quot;0114a7ee-93fc-4fdd-95fb-5dff189608b7&amp;quot;, :owned? true, :item-id #uuid &amp;quot;304d39dd-c4b0-4b08-920e-70f65364aac5&amp;quot;, :created #inst &amp;quot;2024-10-16T13:58:31.728-00:00&amp;quot;, :stag 18, :item-type :object, :parent-id #uuid &amp;quot;aa27e94d-1b7c-4483-94ba-3d9130af0e14&amp;quot;, :access :readwrite, :data {:text-anchor {:rel 0.6084105713974775, :x 574, :y 473}, :path #paper &amp;quot;[\&amp;quot;CompoundPath\&amp;quot;,{\&amp;quot;applyMatrix\&amp;quot;:true,\&amp;quot;children\&amp;quot;:[[\&amp;quot;Path\&amp;quot;,{\&amp;quot;applyMatrix\&amp;quot;:true,\&amp;quot;segments\&amp;quot;:[[[904.06831,421.52153],[34.25563,-4.51169],[-106.93805,14.08444]],[[618,464.17887],[77.868,-14.42246],[0,0]]]}],[\&amp;quot;Path\&amp;quot;,{\&amp;quot;applyMatrix\&amp;quot;:true,\&amp;quot;segments\&amp;quot;:[[[904.06831,421.52153],[34.25563,-4.51169],[-0.33053,0.04353]],[[903.07687,421.65213],[0.33042,-0.04353],[-106.57237,14.04132]]]}],[\&amp;quot;Path\&amp;quot;,{\&amp;quot;applyMatrix\&amp;quot;:true,\&amp;quot;segments\&amp;quot;:[[[903.07687,421.65213],[0.33042,-0.04353],[-106.57237,14.04132]],[[618,464.17887],[77.62732,-14.37789],[0,0]]]}],[\&amp;quot;Path\&amp;quot;,{\&amp;quot;applyMatrix\&amp;quot;:true,\&amp;quot;segments\&amp;quot;:[[[530,483.47706],[0,0],[-19.93152,5.45418]],[[484,500],[10.43366,-5.56462],[-40.44817,21.57236]],[[544.46141,566.8311],[-63.1907,-22.77746],[30.5451,11.01016]]]}]]}]&amp;quot;, :text-rect {:x 534, :y 461, :width 80, :height 24}, :to-id #uuid &amp;quot;c442fe28-c7f3-42ca-9bf5-f730ab45d82f&amp;quot;, :from-id #uuid &amp;quot;497f6085-f50c-47be-abcd-0225d7133711&amp;quot;, :v 53, :to-rel {:rx 0.5, :ry 0.5, :a :x}, :content {#uuid &amp;quot;9ca1a32b-604e-43af-bb61-33defd42dc24&amp;quot; {:tag :p, :idx &amp;quot;12&amp;quot;, :content [&amp;quot;Many-to-1&amp;quot;]}}, :from-rel {:rx 0.5, :ry 0.5, :a :x}, :object-type :connector, :points [{:x 484, :y 500, :offset 428.3437221249726, :segment 0}], :to-endpoint :arrow, :style {:color :silver, :deco :outline}, :hitboxes nil, :to-pos {:x 544, :y 567}, :gfx [:g {} nil [:path {:d &amp;quot;M903.07687,421.65213c-106.57237,14.04132 -207.44955,28.14885 -285.07687,42.52674M530,483.47706c-19.93152,5.45418 -35.56634,10.95832 -46,16.52294c-39.63941,21.14102 -4.20643,43.15497 56.70186,65.46514&amp;quot;, :fill :none, :clip-path nil, :stroke &amp;quot;#788896&amp;quot;, :stroke-linecap :round, :stroke-linejoin :round, :stroke-width 4}] nil [:polygon {:points &amp;quot;539.66844,559.21352 544.46141,566.8311 535.91058,569.63883&amp;quot;, :fill &amp;quot;#788896&amp;quot;, :stroke &amp;quot;#788896&amp;quot;, :stroke-width 2, :clip-path nil, :stroke-linecap :round, :stroke-linejoin :round}] [:g.content [:g [:g [:g [:g nil [:g nil] [:text {:fill &amp;quot;#293845&amp;quot;, :hover-props {}} [:tspan {:x 534.2920227050781, :y 479.6666660308838, :font-family &amp;quot;DIN Next, system-ui, sans-serif&amp;quot;, :font-size 18, :font-style :normal, :font-weight :normal} &amp;quot;Many-to-1&amp;quot;]]]]]]]], :baseline-path #paper &amp;quot;[\&amp;quot;Path\&amp;quot;,{\&amp;quot;applyMatrix\&amp;quot;:true,\&amp;quot;segments\&amp;quot;:[[[1008,408],[0,0],[-232,30]],[[484,500],[60,-32],[-60,32]],[[648,600],[-112,-34],[0,0]]]}]&amp;quot;, :order [19], :from-pos {:x 904, :y 422}, :connector-type :straight, :cont-path #paper &amp;quot;[\&amp;quot;Path\&amp;quot;,{\&amp;quot;applyMatrix\&amp;quot;:true,\&amp;quot;segments\&amp;quot;:[[[904.06831,421.52153],[34.25563,-4.51169],[-193.86591,25.53341]],[[484,500],[50.99016,-27.19475],[-40.44817,21.57236]],[[544.46141,566.8311],[-63.1907,-22.77746],[30.5451,11.01016]]]}]&amp;quot;, :rect {:x 463, :y 417, :width 445, :height 154}, :edges [{:y 408, :offset 1020} {:x -12, :offset 1212} {:y 600, :offset 1872}], :ref-item-deps nil}} {:deleted nil, :workspace-id #uuid &amp;quot;0114a7ee-93fc-4fdd-95fb-5dff189608b7&amp;quot;, :owned? true, :item-id #uuid &amp;quot;ac57f940-bdac-4fcb-b86f-bfcd76f4f2c0&amp;quot;, :created #inst &amp;quot;2024-10-16T13:58:31.751-00:00&amp;quot;, :stag 19, :item-type :object, :parent-id #uuid &amp;quot;aa27e94d-1b7c-4483-94ba-3d9130af0e14&amp;quot;, :access :readwrite, :data {:path #paper &amp;quot;[\&amp;quot;Path\&amp;quot;,{\&amp;quot;applyMatrix\&amp;quot;:true,\&amp;quot;segments\&amp;quot;:[[[171,456],[0,0],[-1.65685,0]],[[168,453],[0,1.65685],[0,0]],[[168,363],[0,0],[0,-1.65685]],[[171,360],[-1.65685,0],[0,0]],[[357,360],[0,0],[1.65685,0]],[[360,363],[0,-1.65685],[0,0]],[[360,453],[0,0],[0,1.65685]],[[357,456],[1.65685,0],[0,0]]],\&amp;quot;closed\&amp;quot;:true}]&amp;quot;, :text-rect {:x 180, :y 396, :width 168, :height 24}, :shape-type :rect, :v 53, :content {#uuid &amp;quot;3d0d3ed4-0e19-4f15-af19-20418fe43412&amp;quot; {:tag :p, :idx &amp;quot;12&amp;quot;, :content [&amp;quot;Customer_Profile&amp;quot;]}}, :object-type :shape, :angle nil, :style {:color :dark-purple, :deco :outline}, :hitboxes nil, :gfx [:g [:rect {:x 168, :y 360, :width 192, :height 96, :rx 3, :ry 3, :fill &amp;quot;#e3cff3&amp;quot;}] [:rect {:y 360, :stroke-dasharray nil, :rx 3, :stroke &amp;quot;#730FC3&amp;quot;, :fill :none, :stroke-linejoin :round, :width 192, :stroke-dashoffset nil, :stroke-linecap :round, :stroke-width 2, :x 168, :ry 3, :height 96}] [:g.content [:g [:g [:g [:g nil [:g nil] [:text {:fill &amp;quot;#293845&amp;quot;, :hover-props {}} [:tspan {:x 196.2750701904297, :y 414.6666660308838, :font-family &amp;quot;DIN Next, system-ui, sans-serif&amp;quot;, :font-size 18, :font-style :normal, :font-weight :normal} &amp;quot;Customer_Profile&amp;quot;]]]]]]]], :order [3], :rect {:x 168, :y 360, :width 192, :height 96}, :ref-item-deps nil}} {:deleted nil, :workspace-id #uuid &amp;quot;0114a7ee-93fc-4fdd-95fb-5dff189608b7&amp;quot;, :owned? true, :item-id #uuid &amp;quot;8a8aa2e5-cb0c-4620-bdd8-1c9a38479b72&amp;quot;, :created #inst &amp;quot;2024-10-16T13:58:31.769-00:00&amp;quot;, :stag 20, :item-type :object, :parent-id #uuid &amp;quot;aa27e94d-1b7c-4483-94ba-3d9130af0e14&amp;quot;, :access :readwrite, :data {:path #paper &amp;quot;[\&amp;quot;Path\&amp;quot;,{\&amp;quot;applyMatrix\&amp;quot;:true,\&amp;quot;segments\&amp;quot;:[[[555,276],[0,0],[-1.65685,0]],[[552,273],[0,1.65685],[0,0]],[[552,183],[0,0],[0,-1.65685]],[[555,180],[-1.65685,0],[0,0]],[[741,180],[0,0],[1.65685,0]],[[744,183],[0,-1.65685],[0,0]],[[744,273],[0,0],[0,1.65685]],[[741,276],[1.65685,0],[0,0]]],\&amp;quot;closed\&amp;quot;:true}]&amp;quot;, :text-rect {:x 564, :y 216, :width 168, :height 24}, :shape-type :rect, :v 53, :content {#uuid &amp;quot;68c4fe44-00b5-4124-b65b-babe407d6c62&amp;quot; {:tag :p, :idx &amp;quot;12&amp;quot;, :content [&amp;quot;User&amp;quot;]}}, :object-type :shape, :angle nil, :style {:color :dark-purple, :deco :outline}, :hitboxes nil, :gfx [:g [:rect {:x 552, :y 180, :width 192, :height 96, :rx 3, :ry 3, :fill &amp;quot;#e3cff3&amp;quot;}] [:rect {:y 180, :stroke-dasharray nil, :rx 3, :stroke &amp;quot;#730FC3&amp;quot;, :fill :none, :stroke-linejoin :round, :width 192, :stroke-dashoffset nil, :stroke-linecap :round, :stroke-width 2, :x 552, :ry 3, :height 96}] [:g.content [:g [:g [:g [:g nil [:g nil] [:text {:fill &amp;quot;#293845&amp;quot;, :hover-props {}} [:tspan {:x 629.541015625, :y 234.6666660308838, :font-family &amp;quot;DIN Next, system-ui, sans-serif&amp;quot;, :font-size 18, :font-style :normal, :font-weight :normal} &amp;quot;User&amp;quot;]]]]]]]], :order [6], :rect {:x 552, :y 180, :width 192, :height 96}, :ref-item-deps nil}} {:deleted nil, :workspace-id #uuid &amp;quot;0114a7ee-93fc-4fdd-95fb-5dff189608b7&amp;quot;, :owned? true, :item-id #uuid &amp;quot;dce048ce-7029-4524-9a76-0acda8fdb131&amp;quot;, :created #inst &amp;quot;2024-10-16T13:58:31.791-00:00&amp;quot;, :stag 21, :item-type :object, :parent-id #uuid &amp;quot;aa27e94d-1b7c-4483-94ba-3d9130af0e14&amp;quot;, :access :readwrite, :data {:text-anchor {:rel 0.45588235294117646, :x 768, :y 867}, :path #paper &amp;quot;[\&amp;quot;CompoundPath\&amp;quot;,{\&amp;quot;applyMatrix\&amp;quot;:true,\&amp;quot;children\&amp;quot;:[[\&amp;quot;Path\&amp;quot;,{\&amp;quot;applyMatrix\&amp;quot;:true,\&amp;quot;segments\&amp;quot;:[[768,836],[768,853]]}],[\&amp;quot;Path\&amp;quot;,{\&amp;quot;applyMatrix\&amp;quot;:true,\&amp;quot;segments\&amp;quot;:[[768,836],[768,837]]}],[\&amp;quot;Path\&amp;quot;,{\&amp;quot;applyMatrix\&amp;quot;:true,\&amp;quot;segments\&amp;quot;:[[768,837],[768,853]]}],[\&amp;quot;Path\&amp;quot;,{\&amp;quot;applyMatrix\&amp;quot;:true,\&amp;quot;segments\&amp;quot;:[[768,881],[768,904]]}]]}]&amp;quot;, :text-rect {:x 728, :y 855, :width 80, :height 24}, :to-id #uuid &amp;quot;5527d55b-0a32-4e37-905b-84b3dec125c4&amp;quot;, :from-id #uuid &amp;quot;142e5ef8-c7f3-4fdd-bb02-fb506d684e32&amp;quot;, :v 53, :to-rel {:rx 0.5, :ry 0.5, :a :y}, :content {#uuid &amp;quot;ab33cfcc-1490-4cc0-bb55-f1a5548d3018&amp;quot; {:tag :p, :idx &amp;quot;12&amp;quot;, :content [&amp;quot;Many-to-1&amp;quot;]}}, :from-rel {:rx 0.5, :ry 0.5, :a :y}, :object-type :connector, :points [], :to-endpoint :arrow, :style {:color :silver, :deco :outline}, :hitboxes nil, :to-pos {:x 768, :y 904}, :gfx [:g {} nil [:path {:d &amp;quot;M768,837v16M768,881v19&amp;quot;, :fill :none, :clip-path nil, :stroke &amp;quot;#788896&amp;quot;, :stroke-linecap :round, :stroke-linejoin :round, :stroke-width 4}] nil [:polygon {:points &amp;quot;773.54095,896.9079 768,904 762.45905,896.9079&amp;quot;, :fill &amp;quot;#788896&amp;quot;, :stroke &amp;quot;#788896&amp;quot;, :stroke-width 2, :clip-path nil, :stroke-linecap :round, :stroke-linejoin :round}] [:g.content [:g [:g [:g [:g nil [:g nil] [:text {:fill &amp;quot;#293845&amp;quot;, :hover-props {}} [:tspan {:x 728.2920227050781, :y 873.6666660308838, :font-family &amp;quot;DIN Next, system-ui, sans-serif&amp;quot;, :font-size 18, :font-style :normal, :font-weight :normal} &amp;quot;Many-to-1&amp;quot;]]]]]]]], :baseline-path #paper &amp;quot;[\&amp;quot;Path\&amp;quot;,{\&amp;quot;applyMatrix\&amp;quot;:true,\&amp;quot;segments\&amp;quot;:[[768,780],[768,960]]}]&amp;quot;, :order [22], :from-pos {:x 768, :y 836}, :connector-type :elbow, :cont-path #paper &amp;quot;[\&amp;quot;Path\&amp;quot;,{\&amp;quot;applyMatrix\&amp;quot;:true,\&amp;quot;segments\&amp;quot;:[[768,836],[768,904]]}]&amp;quot;, :rect {:x 724, :y 832, :width 88, :height 76}, :edges [{:x 768, :offset 180}], :ref-item-deps nil}} {:deleted nil, :workspace-id #uuid &amp;quot;0114a7ee-93fc-4fdd-95fb-5dff189608b7&amp;quot;, :owned? true, :item-id #uuid &amp;quot;497f6085-f50c-47be-abcd-0225d7133711&amp;quot;, :created #inst &amp;quot;2024-10-16T13:58:31.810-00:00&amp;quot;, :stag 22, :item-type :object, :parent-id #uuid &amp;quot;aa27e94d-1b7c-4483-94ba-3d9130af0e14&amp;quot;, :access :readwrite, :data {:path #paper &amp;quot;[\&amp;quot;Path\&amp;quot;,{\&amp;quot;applyMatrix\&amp;quot;:true,\&amp;quot;segments\&amp;quot;:[[[915,456],[0,0],[-1.65685,0]],[[912,453],[0,1.65685],[0,0]],[[912,363],[0,0],[0,-1.65685]],[[915,360],[-1.65685,0],[0,0]],[[1101,360],[0,0],[1.65685,0]],[[1104,363],[0,-1.65685],[0,0]],[[1104,453],[0,0],[0,1.65685]],[[1101,456],[1.65685,0],[0,0]]],\&amp;quot;closed\&amp;quot;:true}]&amp;quot;, :text-rect {:x 924, :y 396, :width 168, :height 24}, :shape-type :rect, :v 53, :content {#uuid &amp;quot;82bc5f94-bb06-4c8b-8ee2-dc600064f6e8&amp;quot; {:tag :p, :idx &amp;quot;12&amp;quot;, :content [&amp;quot;Rental&amp;quot;]}}, :object-type :shape, :angle nil, :style {:color :dark-purple, :deco :outline}, :hitboxes nil, :gfx [:g [:rect {:x 912, :y 360, :width 192, :height 96, :rx 3, :ry 3, :fill &amp;quot;#e3cff3&amp;quot;}] [:rect {:y 360, :stroke-dasharray nil, :rx 3, :stroke &amp;quot;#730FC3&amp;quot;, :fill :none, :stroke-linejoin :round, :width 192, :stroke-dashoffset nil, :stroke-linecap :round, :stroke-width 2, :x 912, :ry 3, :height 96}] [:g.content [:g [:g [:g [:g nil [:g nil] [:text {:fill &amp;quot;#293845&amp;quot;, :hover-props {}} [:tspan {:x 983.0250244140625, :y 414.6666660308838, :font-family &amp;quot;DIN Next, system-ui, sans-serif&amp;quot;, :font-size 18, :font-style :normal, :font-weight :normal} &amp;quot;Rental&amp;quot;]]]]]]]], :order [9], :rect {:x 912, :y 360, :width 192, :height 96}, :ref-item-deps nil}} {:deleted nil, :workspace-id #uuid &amp;quot;0114a7ee-93fc-4fdd-95fb-5dff189608b7&amp;quot;, :owned? true, :item-id #uuid &amp;quot;5f9fc62e-2fe3-4699-8f79-d07df06b8733&amp;quot;, :created #inst &amp;quot;2024-10-16T13:58:31.830-00:00&amp;quot;, :stag 23, :item-type :object, :parent-id #uuid &amp;quot;aa27e94d-1b7c-4483-94ba-3d9130af0e14&amp;quot;, :access :readwrite, :data {:text-anchor {:rel 0.9170158349412906, :x 1008, :y 321}, :path #paper &amp;quot;[\&amp;quot;CompoundPath\&amp;quot;,{\&amp;quot;applyMatrix\&amp;quot;:true,\&amp;quot;children\&amp;quot;:[[\&amp;quot;Path\&amp;quot;,{\&amp;quot;applyMatrix\&amp;quot;:true,\&amp;quot;segments\&amp;quot;:[[752,228],[[993,228],[0,0],[8.28426,0]],[[1008,243],[0,-8.28426],[0,0]],[1008,307]]}],[\&amp;quot;Path\&amp;quot;,{\&amp;quot;applyMatrix\&amp;quot;:true,\&amp;quot;segments\&amp;quot;:[[752,228],[753,228]]}],[\&amp;quot;Path\&amp;quot;,{\&amp;quot;applyMatrix\&amp;quot;:true,\&amp;quot;segments\&amp;quot;:[[753,228],[[993,228],[0,0],[8.28426,0]],[[1008,243],[0,-8.28426],[0,0]],[1008,307]]}],[\&amp;quot;Path\&amp;quot;,{\&amp;quot;applyMatrix\&amp;quot;:true,\&amp;quot;segments\&amp;quot;:[[1008,335],[1008,352]]}]]}]&amp;quot;, :text-rect {:x 968, :y 309, :width 80, :height 24}, :to-id #uuid &amp;quot;497f6085-f50c-47be-abcd-0225d7133711&amp;quot;, :from-id #uuid &amp;quot;8a8aa2e5-cb0c-4620-bdd8-1c9a38479b72&amp;quot;, :v 53, :to-rel {:rx 0.5, :ry 0.5, :a :y}, :content {#uuid &amp;quot;1547c592-7a52-44db-a81f-b59067312e2f&amp;quot; {:tag :p, :idx &amp;quot;12&amp;quot;, :content [&amp;quot;1-to-Many&amp;quot;]}}, :from-rel {:rx 0.5, :ry 0.5, :a :x}, :object-type :connector, :points [], :to-endpoint :arrow, :style {:color :silver, :deco :outline}, :hitboxes nil, :to-pos {:x 1008, :y 352}, :gfx [:g {} nil [:path {:d &amp;quot;M753,228l240,0c8.28426,0 15,6.71574 15,15v64M1008,335v13&amp;quot;, :fill :none, :clip-path nil, :stroke &amp;quot;#788896&amp;quot;, :stroke-linecap :round, :stroke-linejoin :round, :stroke-width 4}] nil [:polygon {:points &amp;quot;1013.54095,344.9079 1008,352 1002.45905,344.9079&amp;quot;, :fill &amp;quot;#788896&amp;quot;, :stroke &amp;quot;#788896&amp;quot;, :stroke-width 2, :clip-path nil, :stroke-linecap :round, :stroke-linejoin :round}] [:g.content [:g [:g [:g [:g nil [:g nil] [:text {:fill &amp;quot;#293845&amp;quot;, :hover-props {}} [:tspan {:x 968.1750259399414, :y 327.6666660308838, :font-family &amp;quot;DIN Next, system-ui, sans-serif&amp;quot;, :font-size 18, :font-style :normal, :font-weight :normal} &amp;quot;1-to-Many&amp;quot;]]]]]]]], :baseline-path #paper &amp;quot;[\&amp;quot;Path\&amp;quot;,{\&amp;quot;applyMatrix\&amp;quot;:true,\&amp;quot;segments\&amp;quot;:[[648,228],[1008,228],[1008,408]]}]&amp;quot;, :order [14], :from-pos {:x 752, :y 228}, :connector-type :elbow, :cont-path #paper &amp;quot;[\&amp;quot;Path\&amp;quot;,{\&amp;quot;applyMatrix\&amp;quot;:true,\&amp;quot;segments\&amp;quot;:[[752,228],[[993,228],[0,0],[8.28426,0]],[[1008,243],[0,-8.28426],[0,0]],[1008,352]]}]&amp;quot;, :rect {:x 747, :y 223, :width 305, :height 133}, :edges [{:y 228, :offset 360} {:x 1008, :offset 540}], :ref-item-deps nil}} {:deleted nil, :workspace-id #uuid &amp;quot;0114a7ee-93fc-4fdd-95fb-5dff189608b7&amp;quot;, :owned? true, :item-id #uuid &amp;quot;8bf08c43-69e7-4565-86e6-24bb78917c5a&amp;quot;, :created #inst &amp;quot;2024-10-16T13:58:31.846-00:00&amp;quot;, :stag 24, :item-type :object, :parent-id #uuid &amp;quot;aa27e94d-1b7c-4483-94ba-3d9130af0e14&amp;quot;, :access :readwrite, :data {:text-anchor {:rel 0.7144282511578995, :x 768, :y 685}, :path #paper &amp;quot;[\&amp;quot;CompoundPath\&amp;quot;,{\&amp;quot;applyMatrix\&amp;quot;:true,\&amp;quot;children\&amp;quot;:[[\&amp;quot;Path\&amp;quot;,{\&amp;quot;applyMatrix\&amp;quot;:true,\&amp;quot;segments\&amp;quot;:[[752,600],[[760,600],[0,0],[4.41827,0]],[[768,608],[0,-4.41827],[0,0]],[768,671]]}],[\&amp;quot;Path\&amp;quot;,{\&amp;quot;applyMatrix\&amp;quot;:true,\&amp;quot;segments\&amp;quot;:[[752,600],[753,600]]}],[\&amp;quot;Path\&amp;quot;,{\&amp;quot;applyMatrix\&amp;quot;:true,\&amp;quot;segments\&amp;quot;:[[753,600],[[760,600],[0,0],[4.41827,0]],[[768,608],[0,-4.41827],[0,0]],[768,671]]}],[\&amp;quot;Path\&amp;quot;,{\&amp;quot;applyMatrix\&amp;quot;:true,\&amp;quot;segments\&amp;quot;:[[768,699],[768,724]]}]]}]&amp;quot;, :text-rect {:x 712.5, :y 673, :width 111, :height 24}, :to-id #uuid &amp;quot;142e5ef8-c7f3-4fdd-bb02-fb506d684e32&amp;quot;, :from-id #uuid &amp;quot;c442fe28-c7f3-42ca-9bf5-f730ab45d82f&amp;quot;, :v 53, :to-rel {:rx 0.5, :ry 0.5, :a :y}, :content {#uuid &amp;quot;2a1f01a8-eced-4cbf-90d2-86017d036293&amp;quot; {:tag :p, :idx &amp;quot;12&amp;quot;, :content [&amp;quot;Many-to-Many&amp;quot;]}}, :from-rel {:rx 0.5, :ry 0.5, :a :x}, :object-type :connector, :points [], :to-endpoint :arrow, :style {:color :silver, :deco :outline}, :hitboxes nil, :to-pos {:x 768, :y 724}, :gfx [:g {} nil [:path {:d &amp;quot;M753,600h7c4.41827,0 8,3.58173 8,8v63M768,699v21&amp;quot;, :fill :none, :clip-path nil, :stroke &amp;quot;#788896&amp;quot;, :stroke-linecap :round, :stroke-linejoin :round, :stroke-width 4}] nil [:polygon {:points &amp;quot;773.54095,716.9079 768,724 762.45905,716.9079&amp;quot;, :fill &amp;quot;#788896&amp;quot;, :stroke &amp;quot;#788896&amp;quot;, :stroke-width 2, :clip-path nil, :stroke-linecap :round, :stroke-linejoin :round}] [:g.content [:g [:g [:g [:g nil [:g nil] [:text {:fill &amp;quot;#293845&amp;quot;, :hover-props {}} [:tspan {:x 712.5510330200195, :y 691.6666660308838, :font-family &amp;quot;DIN Next, system-ui, sans-serif&amp;quot;, :font-size 18, :font-style :normal, :font-weight :normal} &amp;quot;Many-to-Many&amp;quot;]]]]]]]], :baseline-path #paper &amp;quot;[\&amp;quot;Path\&amp;quot;,{\&amp;quot;applyMatrix\&amp;quot;:true,\&amp;quot;segments\&amp;quot;:[[648,600],[768,600],[768,780]]}]&amp;quot;, :order [21], :from-pos {:x 752, :y 600}, :connector-type :elbow, :cont-path #paper &amp;quot;[\&amp;quot;Path\&amp;quot;,{\&amp;quot;applyMatrix\&amp;quot;:true,\&amp;quot;segments\&amp;quot;:[[752,600],[[760,600],[0,0],[4.41827,0]],[[768,608],[0,-4.41827],[0,0]],[768,724]]}]&amp;quot;, :rect {:x 708, :y 596, :width 119, :height 132}, :edges [{:y 600, :offset 120} {:x 768, :offset 300}], :ref-item-deps nil}} {:deleted nil, :workspace-id #uuid &amp;quot;0114a7ee-93fc-4fdd-95fb-5dff189608b7&amp;quot;, :owned? true, :item-id #uuid &amp;quot;3f7b538c-8092-455b-a97f-4b03449c4333&amp;quot;, :created #inst &amp;quot;2024-10-16T13:58:31.863-00:00&amp;quot;, :stag 25, :item-type :object, :parent-id #uuid &amp;quot;aa27e94d-1b7c-4483-94ba-3d9130af0e14&amp;quot;, :access :readwrite, :data {:path #paper &amp;quot;[\&amp;quot;Path\&amp;quot;,{\&amp;quot;applyMatrix\&amp;quot;:true,\&amp;quot;segments\&amp;quot;:[[[435,828],[0,0],[-1.65685,0]],[[432,825],[0,1.65685],[0,0]],[[432,735],[0,0],[0,-1.65685]],[[435,732],[-1.65685,0],[0,0]],[[621,732],[0,0],[1.65685,0]],[[624,735],[0,-1.65685],[0,0]],[[624,825],[0,0],[0,1.65685]],[[621,828],[1.65685,0],[0,0]]],\&amp;quot;closed\&amp;quot;:true}]&amp;quot;, :text-rect {:x 444, :y 768, :width 168, :height 24}, :shape-type :rect, :v 53, :content {#uuid &amp;quot;cc2db3f1-293f-4fd3-94f0-644ef798df3f&amp;quot; {:tag :p, :idx &amp;quot;12&amp;quot;, :content [&amp;quot;Genre&amp;quot;]}}, :object-type :shape, :angle nil, :style {:color :dark-purple, :deco :outline}, :hitboxes nil, :gfx [:g [:rect {:x 432, :y 732, :width 192, :height 96, :rx 3, :ry 3, :fill &amp;quot;#e3cff3&amp;quot;}] [:rect {:y 732, :stroke-dasharray nil, :rx 3, :stroke &amp;quot;#730FC3&amp;quot;, :fill :none, :stroke-linejoin :round, :width 192, :stroke-dashoffset nil, :stroke-linecap :round, :stroke-width 2, :x 432, :ry 3, :height 96}] [:g.content [:g [:g [:g [:g nil [:g nil] [:text {:fill &amp;quot;#293845&amp;quot;, :hover-props {}} [:tspan {:x 504.78902435302734, :y 786.6666660308838, :font-family &amp;quot;DIN Next, system-ui, sans-serif&amp;quot;, :font-size 18, :font-style :normal, :font-weight :normal} &amp;quot;Genre&amp;quot;]]]]]]]], :order [13], :rect {:x 432, :y 732, :width 192, :height 96}, :ref-item-deps nil}} {:deleted nil, :workspace-id #uuid &amp;quot;0114a7ee-93fc-4fdd-95fb-5dff189608b7&amp;quot;, :owned? true, :item-id #uuid &amp;quot;846df258-881e-4900-95ee-1b1b1fcbda93&amp;quot;, :created #inst &amp;quot;2024-10-16T13:58:31.880-00:00&amp;quot;, :stag 26, :item-type :object, :parent-id #uuid &amp;quot;aa27e94d-1b7c-4483-94ba-3d9130af0e14&amp;quot;, :access :readwrite, :data {:path #paper &amp;quot;[\&amp;quot;Path\&amp;quot;,{\&amp;quot;applyMatrix\&amp;quot;:true,\&amp;quot;segments\&amp;quot;:[[[1203,456],[0,0],[-1.65685,0]],[[1200,453],[0,1.65685],[0,0]],[[1200,363],[0,0],[0,-1.65685]],[[1203,360],[-1.65685,0],[0,0]],[[1389,360],[0,0],[1.65685,0]],[[1392,363],[0,-1.65685],[0,0]],[[1392,453],[0,0],[0,1.65685]],[[1389,456],[1.65685,0],[0,0]]],\&amp;quot;closed\&amp;quot;:true}]&amp;quot;, :text-rect {:x 1212, :y 396, :width 168, :height 24}, :shape-type :rect, :v 53, :content {#uuid &amp;quot;b35e240f-cd47-44b7-b98e-ab01a9a76c2e&amp;quot; {:tag :p, :idx &amp;quot;12&amp;quot;, :content [&amp;quot;Category&amp;quot;]}}, :object-type :shape, :angle nil, :style {:color :dark-purple, :deco :outline}, :hitboxes nil, :gfx [:g [:rect {:x 1200, :y 360, :width 192, :height 96, :rx 3, :ry 3, :fill &amp;quot;#e3cff3&amp;quot;}] [:rect {:y 360, :stroke-dasharray nil, :rx 3, :stroke &amp;quot;#730FC3&amp;quot;, :fill :none, :stroke-linejoin :round, :width 192, :stroke-dashoffset nil, :stroke-linecap :round, :stroke-width 2, :x 1200, :ry 3, :height 96}] [:g.content [:g [:g [:g [:g nil [:g nil] [:text {:fill &amp;quot;#293845&amp;quot;, :hover-props {}} [:tspan {:x 1261.395034790039, :y 414.6666660308838, :font-family &amp;quot;DIN Next, system-ui, sans-serif&amp;quot;, :font-size 18, :font-style :normal, :font-weight :normal} &amp;quot;Category&amp;quot;]]]]]]]], :order [4], :rect {:x 1200, :y 360, :width 192, :height 96}, :ref-item-deps nil}} {:deleted nil, :workspace-id #uuid &amp;quot;0114a7ee-93fc-4fdd-95fb-5dff189608b7&amp;quot;, :owned? true, :item-id #uuid &amp;quot;a21dcfdf-97bc-49c6-9609-2cc2053eab35&amp;quot;, :created #inst &amp;quot;2024-10-16T13:58:31.900-00:00&amp;quot;, :stag 27, :item-type :object, :parent-id #uuid &amp;quot;aa27e94d-1b7c-4483-94ba-3d9130af0e14&amp;quot;, :access :readwrite, :data {:text-anchor {:rel 0.9195985624876702, :x 264, :y 320}, :path #paper &amp;quot;[\&amp;quot;CompoundPath\&amp;quot;,{\&amp;quot;applyMatrix\&amp;quot;:true,\&amp;quot;children\&amp;quot;:[[\&amp;quot;Path\&amp;quot;,{\&amp;quot;applyMatrix\&amp;quot;:true,\&amp;quot;segments\&amp;quot;:[[544,228],[[279,228],[0,0],[-8.28426,0]],[[264,243],[0,-8.28426],[0,0]],[264,306]]}],[\&amp;quot;Path\&amp;quot;,{\&amp;quot;applyMatrix\&amp;quot;:true,\&amp;quot;segments\&amp;quot;:[[544,228],[543,228]]}],[\&amp;quot;Path\&amp;quot;,{\&amp;quot;applyMatrix\&amp;quot;:true,\&amp;quot;segments\&amp;quot;:[[543,228],[[279,228],[0,0],[-8.28426,0]],[[264,243],[0,-8.28426],[0,0]],[264,306]]}],[\&amp;quot;Path\&amp;quot;,{\&amp;quot;applyMatrix\&amp;quot;:true,\&amp;quot;segments\&amp;quot;:[[264,334],[264,352]]}]]}]&amp;quot;, :text-rect {:x 239.5, :y 308, :width 49, :height 24}, :to-id #uuid &amp;quot;ac57f940-bdac-4fcb-b86f-bfcd76f4f2c0&amp;quot;, :from-id #uuid &amp;quot;8a8aa2e5-cb0c-4620-bdd8-1c9a38479b72&amp;quot;, :v 53, :from-object-type :shape, :to-rel {:rx 0.5, :ry 0.5, :a :y}, :content {#uuid &amp;quot;7551e287-e335-4c41-982a-bc121804d8c7&amp;quot; {:tag :p, :idx &amp;quot;12&amp;quot;, :content [&amp;quot;1-to-1&amp;quot;]}}, :from-rel {:rx 0.5, :ry 0.5, :a :x}, :object-type :connector, :points [], :to-object-type :shape, :to-endpoint :arrow, :style {:color :silver, :deco :outline}, :hitboxes nil, :to-pos {:x 264, :y 352}, :gfx [:g {} nil [:path {:d &amp;quot;M543,228l-264,0c-8.28426,0 -15,6.71574 -15,15v63M264,334v14&amp;quot;, :fill :none, :clip-path nil, :stroke &amp;quot;#788896&amp;quot;, :stroke-linecap :round, :stroke-linejoin :round, :stroke-width 4}] nil [:polygon {:points &amp;quot;269.54095,344.9079 264,352 258.45905,344.9079&amp;quot;, :fill &amp;quot;#788896&amp;quot;, :stroke &amp;quot;#788896&amp;quot;, :stroke-width 2, :clip-path nil, :stroke-linecap :round, :stroke-linejoin :round}] [:g.content [:g [:g [:g [:g nil [:g nil] [:text {:fill &amp;quot;#293845&amp;quot;, :hover-props {}} [:tspan {:x 239.916015625, :y 326.6666660308838, :font-family &amp;quot;DIN Next, system-ui, sans-serif&amp;quot;, :font-size 18, :font-style :normal, :font-weight :normal} &amp;quot;1-to-1&amp;quot;]]]]]]]], :baseline-path #paper &amp;quot;[\&amp;quot;Path\&amp;quot;,{\&amp;quot;applyMatrix\&amp;quot;:true,\&amp;quot;segments\&amp;quot;:[[648,228],[264,228],[264,408]]}]&amp;quot;, :order [15], :from-pos {:x 544, :y 228}, :connector-type :elbow, :cont-path #paper &amp;quot;[\&amp;quot;Path\&amp;quot;,{\&amp;quot;applyMatrix\&amp;quot;:true,\&amp;quot;segments\&amp;quot;:[[544,228],[[279,228],[0,0],[-8.28426,0]],[[264,243],[0,-8.28426],[0,0]],[264,352]]}]&amp;quot;, :rect {:x 235, :y 224, :width 313, :height 133}, :edges [{:y 228, :offset 384} {:x 264, :offset 564}], :ref-item-deps nil}} {:deleted nil, :workspace-id #uuid &amp;quot;0114a7ee-93fc-4fdd-95fb-5dff189608b7&amp;quot;, :owned? true, :item-id #uuid &amp;quot;72edccd4-b2fd-4e15-bd5b-e362eb5e2a60&amp;quot;, :created #inst &amp;quot;2024-10-16T13:58:31.919-00:00&amp;quot;, :stag 28, :item-type :object, :parent-id #uuid &amp;quot;aa27e94d-1b7c-4483-94ba-3d9130af0e14&amp;quot;, :access :readwrite, :data {:text-anchor {:rel 0.24069250790460675, :x 132, :y 321}, :path #paper &amp;quot;[\&amp;quot;CompoundPath\&amp;quot;,{\&amp;quot;applyMatrix\&amp;quot;:true,\&amp;quot;children\&amp;quot;:[[\&amp;quot;Path\&amp;quot;,{\&amp;quot;applyMatrix\&amp;quot;:true,\&amp;quot;segments\&amp;quot;:[[132,104],[132,307]]}],[\&amp;quot;Path\&amp;quot;,{\&amp;quot;applyMatrix\&amp;quot;:true,\&amp;quot;segments\&amp;quot;:[[132,104],[132,105]]}],[\&amp;quot;Path\&amp;quot;,{\&amp;quot;applyMatrix\&amp;quot;:true,\&amp;quot;segments\&amp;quot;:[[132,105],[132,307]]}],[\&amp;quot;Path\&amp;quot;,{\&amp;quot;applyMatrix\&amp;quot;:true,\&amp;quot;segments\&amp;quot;:[[132,335],[[132,585],[0,0],[0,8.28426]],[[147,600],[-8.28426,0],[0,0]],[544,600]]}]]}]&amp;quot;, :text-rect {:x 107.5, :y 309, :width 49, :height 24}, :to-id #uuid &amp;quot;c442fe28-c7f3-42ca-9bf5-f730ab45d82f&amp;quot;, :from-id #uuid &amp;quot;529ef331-4d39-445c-90db-37db01201c17&amp;quot;, :v 53, :to-rel {:rx 0.5, :ry 0.5, :a :x}, :content {#uuid &amp;quot;040445bb-4495-4a98-89bb-a4fb54375cf8&amp;quot; {:tag :p, :idx &amp;quot;12&amp;quot;, :content [&amp;quot;1-to-1&amp;quot;]}}, :from-rel {:rx 0.5, :ry 0.5, :a :x}, :object-type :connector, :points [], :to-endpoint :arrow, :style {:color :silver, :deco :outline}, :hitboxes nil, :to-pos {:x 544, :y 600}, :gfx [:g {} nil [:path {:d &amp;quot;M132,105v202M132,335v250c0,8.28426 6.71574,15 15,15h393&amp;quot;, :fill :none, :clip-path nil, :stroke &amp;quot;#788896&amp;quot;, :stroke-linecap :round, :stroke-linejoin :round, :stroke-width 4}] nil [:polygon {:points &amp;quot;536.9079,594.45905 544,600 536.9079,605.54095&amp;quot;, :fill &amp;quot;#788896&amp;quot;, :stroke &amp;quot;#788896&amp;quot;, :stroke-width 2, :clip-path nil, :stroke-linecap :round, :stroke-linejoin :round}] [:g.content [:g [:g [:g [:g nil [:g nil] [:text {:fill &amp;quot;#293845&amp;quot;, :hover-props {}} [:tspan {:x 107.916015625, :y 327.6666660308838, :font-family &amp;quot;DIN Next, system-ui, sans-serif&amp;quot;, :font-size 18, :font-style :normal, :font-weight :normal} &amp;quot;1-to-1&amp;quot;]]]]]]]], :baseline-path #paper &amp;quot;[\&amp;quot;Path\&amp;quot;,{\&amp;quot;applyMatrix\&amp;quot;:true,\&amp;quot;segments\&amp;quot;:[[144,48],[132,48],[132,600],[648,600]]}]&amp;quot;, :order [24], :from-pos {:x 132, :y 104}, :connector-type :elbow, :cont-path #paper &amp;quot;[\&amp;quot;Path\&amp;quot;,{\&amp;quot;applyMatrix\&amp;quot;:true,\&amp;quot;segments\&amp;quot;:[[132,104],[[132,585],[0,0],[0,8.28426]],[[147,600],[-8.28426,0],[0,0]],[544,600]]}]&amp;quot;, :rect {:x 103, :y 100, :width 445, :height 504}, :edges [{:y 48, :offset 12} {:x 132, :offset 564} {:y 600, :offset 1080}], :ref-item-deps nil}} {:deleted nil, :workspace-id #uuid &amp;quot;0114a7ee-93fc-4fdd-95fb-5dff189608b7&amp;quot;, :owned? true, :item-id #uuid &amp;quot;edf768f1-de2c-497e-9f5b-7871b7bc39e2&amp;quot;, :created #inst &amp;quot;2024-10-16T13:58:31.938-00:00&amp;quot;, :stag 29, :item-type :object, :parent-id #uuid &amp;quot;aa27e94d-1b7c-4483-94ba-3d9130af0e14&amp;quot;, :access :readwrite, :data {:text-anchor {:rel 0.07855190759745966, :x 216, :y 139}, :path #paper &amp;quot;[\&amp;quot;CompoundPath\&amp;quot;,{\&amp;quot;applyMatrix\&amp;quot;:true,\&amp;quot;children\&amp;quot;:[[\&amp;quot;Path\&amp;quot;,{\&amp;quot;applyMatrix\&amp;quot;:true,\&amp;quot;segments\&amp;quot;:[[216,104],[216,125]]}],[\&amp;quot;Path\&amp;quot;,{\&amp;quot;applyMatrix\&amp;quot;:true,\&amp;quot;segments\&amp;quot;:[[216,104],[216,105]]}],[\&amp;quot;Path\&amp;quot;,{\&amp;quot;applyMatrix\&amp;quot;:true,\&amp;quot;segments\&amp;quot;:[[216,105],[216,125]]}],[\&amp;quot;Path\&amp;quot;,{\&amp;quot;applyMatrix\&amp;quot;:true,\&amp;quot;segments\&amp;quot;:[[216,153],[[216,213],[0,0],[0,8.28426]],[[231,228],[-8.28426,0],[0,0]],[544,228]]}]]}]&amp;quot;, :text-rect {:x 191.5, :y 127, :width 49, :height 24}, :to-id #uuid &amp;quot;8a8aa2e5-cb0c-4620-bdd8-1c9a38479b72&amp;quot;, :from-id #uuid &amp;quot;529ef331-4d39-445c-90db-37db01201c17&amp;quot;, :v 53, :to-rel {:rx 0.5, :ry 0.5, :a :x}, :content {#uuid &amp;quot;6e23d964-5caa-4e09-88ac-cfb265bef3da&amp;quot; {:tag :p, :idx &amp;quot;12&amp;quot;, :content [&amp;quot;1-to-1&amp;quot;]}}, :from-rel {:rx 0.5, :ry 0.5, :a :x}, :object-type :connector, :points [], :to-endpoint :arrow, :style {:color :silver, :deco :outline}, :hitboxes nil, :to-pos {:x 544, :y 228}, :gfx [:g {} nil [:path {:d &amp;quot;M216,105v20M216,153v60c0,8.28426 6.71574,15 15,15h309&amp;quot;, :fill :none, :clip-path nil, :stroke &amp;quot;#788896&amp;quot;, :stroke-linecap :round, :stroke-linejoin :round, :stroke-width 4}] nil [:polygon {:points &amp;quot;536.9079,222.45905 544,228 536.9079,233.54095&amp;quot;, :fill &amp;quot;#788896&amp;quot;, :stroke &amp;quot;#788896&amp;quot;, :stroke-width 2, :clip-path nil, :stroke-linecap :round, :stroke-linejoin :round}] [:g.content [:g [:g [:g [:g nil [:g nil] [:text {:fill &amp;quot;#293845&amp;quot;, :hover-props {}} [:tspan {:x 191.916015625, :y 145.6666660308838, :font-family &amp;quot;DIN Next, system-ui, sans-serif&amp;quot;, :font-size 18, :font-style :normal, :font-weight :normal} &amp;quot;1-to-1&amp;quot;]]]]]]]], :baseline-path #paper &amp;quot;[\&amp;quot;Path\&amp;quot;,{\&amp;quot;applyMatrix\&amp;quot;:true,\&amp;quot;segments\&amp;quot;:[[144,48],[216,48],[216,228],[648,228]]}]&amp;quot;, :order [25], :from-pos {:x 216, :y 104}, :connector-type :elbow, :cont-path #paper &amp;quot;[\&amp;quot;Path\&amp;quot;,{\&amp;quot;applyMatrix\&amp;quot;:true,\&amp;quot;segments\&amp;quot;:[[216,104],[[216,213],[0,0],[0,8.28426]],[[231,228],[-8.28426,0],[0,0]],[544,228]]}]&amp;quot;, :rect {:x 187, :y 100, :width 361, :height 132}, :edges [{:y 48, :offset 72} {:x 216, :offset 252} {:y 228, :offset 684}], :ref-item-deps nil}}], :items (), :copy-id #uuid &amp;quot;36b39734-dfb2-4acc-bc95-6e6adcc15b50&amp;quot;}&quot;&gt;&lt;/span&gt;&#xa;&lt;img src=&quot;https://imgr.whimsical.com/object/FKhsd5VFeN3vsLpgU9aBUv&quot;&gt;" link="&lt;span data-whi-clipboard=&quot;{:objects [{:deleted nil, :workspace-id #uuid &amp;quot;0114a7ee-93fc-4fdd-95fb-5dff189608b7&amp;quot;, :owned? true, :item-id #uuid &amp;quot;a1487fc2-3a77-4aab-8523-81797f7410a4&amp;quot;, :created #inst &amp;quot;2024-10-16T13:58:31.234-00:00&amp;quot;, :stag 2, :item-type :object, :parent-id #uuid &amp;quot;aa27e94d-1b7c-4483-94ba-3d9130af0e14&amp;quot;, :access :readwrite, :data {:text-anchor {:rel 0.9079820511001188, :x 1372, :y 527}, :path #paper &amp;quot;[\&amp;quot;CompoundPath\&amp;quot;,{\&amp;quot;applyMatrix\&amp;quot;:true,\&amp;quot;children\&amp;quot;:[[\&amp;quot;Path\&amp;quot;,{\&amp;quot;applyMatrix\&amp;quot;:true,\&amp;quot;segments\&amp;quot;:[[[1111.7758,432.39678],[-33.76883,-8.19682],[82.9632,20.13793]],[[1320,496],[-49.75005,-22.74288],[12.14757,5.55317]],[[1352.10164,513],[-9.34237,-5.77319],[0,0]]]}],[\&amp;quot;Path\&amp;quot;,{\&amp;quot;applyMatrix\&amp;quot;:true,\&amp;quot;segments\&amp;quot;:[[[1111.7758,432.39678],[-33.76883,-8.19682],[0.32403,0.07865]],[[1112.74756,432.63277],[-0.3238,-0.07867],[82.5809,20.06384]]]}],[\&amp;quot;Path\&amp;quot;,{\&amp;quot;applyMatrix\&amp;quot;:true,\&amp;quot;segments\&amp;quot;:[[[1112.74756,432.63277],[-0.3238,-0.07867],[82.5809,20.06384]],[[1320,496],[-49.55574,-22.65405],[12.14757,5.55317]],[[1352.10164,513],[-9.34237,-5.77319],[0,0]]]}],[\&amp;quot;Path\&amp;quot;,{\&amp;quot;applyMatrix\&amp;quot;:true,\&amp;quot;segments\&amp;quot;:[[[1387.90155,541],[0,0],[1.64198,1.65187]],[[1392.64225,545.97014],[-1.5203,-1.66141],[16.16594,17.66642]]]}]]}]&amp;quot;, :text-rect {:x 1332, :y 515, :width 80, :height 24}, :to-id #uuid &amp;quot;8f482cd9-7b97-4583-8356-5ecba0ebb025&amp;quot;, :from-id #uuid &amp;quot;497f6085-f50c-47be-abcd-0225d7133711&amp;quot;, :v 53, :to-rel {:rx 0.5, :ry 0.5, :a :y}, :content {#uuid &amp;quot;7f93d319-da38-4516-8604-a5c481604e23&amp;quot; {:tag :p, :idx &amp;quot;12&amp;quot;, :content [&amp;quot;1-to-Many&amp;quot;]}}, :from-rel {:rx 0.5, :ry 0.5, :a :x}, :object-type :connector, :points [{:x 1320, :y 496, :offset 218.0034421692406, :segment 0}], :to-endpoint :arrow, :style {:color :silver, :deco :outline}, :hitboxes nil, :to-pos {:x 1393, :y 546}, :gfx [:g {} nil [:path {:d &amp;quot;M1112.74756,432.63277c82.5809,20.06384 157.6967,40.71318 207.25244,63.36723c12.14757,5.55317 22.75928,11.22681 32.10164,17M1387.90155,541c0.67908,0.68317 1.34729,1.3672 2.00502,2.05205&amp;quot;, :fill :none, :clip-path nil, :stroke &amp;quot;#788896&amp;quot;, :stroke-linecap :round, :stroke-linejoin :round, :stroke-width 4}] nil [:polygon {:points &amp;quot;1391.94229,536.9974 1392.64225,545.97014 1383.7667,544.47861&amp;quot;, :fill &amp;quot;#788896&amp;quot;, :stroke &amp;quot;#788896&amp;quot;, :stroke-width 2, :clip-path nil, :stroke-linecap :round, :stroke-linejoin :round}] [:g.content [:g [:g [:g [:g nil [:g nil] [:text {:fill &amp;quot;#293845&amp;quot;, :hover-props {}} [:tspan {:x 1332.1750259399414, :y 533.6666660308838, :font-family &amp;quot;DIN Next, system-ui, sans-serif&amp;quot;, :font-size 18, :font-style :normal, :font-weight :normal} &amp;quot;1-to-Many&amp;quot;]]]]]]]], :baseline-path #paper &amp;quot;[\&amp;quot;Path\&amp;quot;,{\&amp;quot;applyMatrix\&amp;quot;:true,\&amp;quot;segments\&amp;quot;:[[[1008,408],[0,0],[121,28]],[[1320,496],[-70,-32],[70,32]],[[1428,600],[-19,-36],[0,0]]]}]&amp;quot;, :order [23], :from-pos {:x 1112, :y 432}, :connector-type :straight, :cont-path #paper &amp;quot;[\&amp;quot;Path\&amp;quot;,{\&amp;quot;applyMatrix\&amp;quot;:true,\&amp;quot;segments\&amp;quot;:[[[1111.7758,432.39678],[-33.76883,-8.19682],[82.9632,20.13793]],[[1320,496],[-49.75005,-22.74288],[34.64666,15.83847]],[[1392.64225,545.97014],[-15.8428,-17.31329],[16.16594,17.66642]]]}]&amp;quot;, :rect {:x 1107, :y 428, :width 309, :height 122}, :edges [{:y 408, :offset 420} {:x 1428, :offset 612}], :ref-item-deps nil}} {:deleted nil, :workspace-id #uuid &amp;quot;0114a7ee-93fc-4fdd-95fb-5dff189608b7&amp;quot;, :owned? true, :item-id #uuid &amp;quot;63be3a8c-62e0-484b-97f8-728eb4c4069e&amp;quot;, :created #inst &amp;quot;2024-10-16T13:58:31.303-00:00&amp;quot;, :stag 3, :item-type :object, :parent-id #uuid &amp;quot;aa27e94d-1b7c-4483-94ba-3d9130af0e14&amp;quot;, :access :readwrite, :data {:path #paper &amp;quot;[\&amp;quot;Path\&amp;quot;,{\&amp;quot;applyMatrix\&amp;quot;:true,\&amp;quot;segments\&amp;quot;:[[[675,456],[0,0],[-1.65685,0]],[[672,453],[0,1.65685],[0,0]],[[672,363],[0,0],[0,-1.65685]],[[675,360],[-1.65685,0],[0,0]],[[861,360],[0,0],[1.65685,0]],[[864,363],[0,-1.65685],[0,0]],[[864,453],[0,0],[0,1.65685]],[[861,456],[1.65685,0],[0,0]]],\&amp;quot;closed\&amp;quot;:true}]&amp;quot;, :text-rect {:x 684, :y 396, :width 168, :height 24}, :shape-type :rect, :v 53, :content {#uuid &amp;quot;9789ca33-c0c4-4dc4-89af-e091d88e5a9a&amp;quot; {:tag :p, :idx &amp;quot;12&amp;quot;, :content [&amp;quot;Subscription&amp;quot;]}}, :object-type :shape, :angle nil, :style {:color :dark-purple, :deco :outline}, :hitboxes nil, :gfx [:g [:rect {:x 672, :y 360, :width 192, :height 96, :rx 3, :ry 3, :fill &amp;quot;#e3cff3&amp;quot;}] [:rect {:y 360, :stroke-dasharray nil, :rx 3, :stroke &amp;quot;#730FC3&amp;quot;, :fill :none, :stroke-linejoin :round, :width 192, :stroke-dashoffset nil, :stroke-linecap :round, :stroke-width 2, :x 672, :ry 3, :height 96}] [:g.content [:g [:g [:g [:g nil [:g nil] [:text {:fill &amp;quot;#293845&amp;quot;, :hover-props {}} [:tspan {:x 718.9500579833984, :y 414.6666660308838, :font-family &amp;quot;DIN Next, system-ui, sans-serif&amp;quot;, :font-size 18, :font-style :normal, :font-weight :normal} &amp;quot;Subscription&amp;quot;]]]]]]]], :order [12], :rect {:x 672, :y 360, :width 192, :height 96}, :ref-item-deps nil}} {:deleted nil, :workspace-id #uuid &amp;quot;0114a7ee-93fc-4fdd-95fb-5dff189608b7&amp;quot;, :owned? true, :item-id #uuid &amp;quot;ed1b845b-bba5-42ad-a18e-7cd28c6c7bc0&amp;quot;, :created #inst &amp;quot;2024-10-16T13:58:31.358-00:00&amp;quot;, :stag 4, :item-type :object, :parent-id #uuid &amp;quot;aa27e94d-1b7c-4483-94ba-3d9130af0e14&amp;quot;, :access :readwrite, :data {:path #paper &amp;quot;[\&amp;quot;Path\&amp;quot;,{\&amp;quot;applyMatrix\&amp;quot;:true,\&amp;quot;segments\&amp;quot;:[[[423,456],[0,0],[-1.65685,0]],[[420,453],[0,1.65685],[0,0]],[[420,363],[0,0],[0,-1.65685]],[[423,360],[-1.65685,0],[0,0]],[[609,360],[0,0],[1.65685,0]],[[612,363],[0,-1.65685],[0,0]],[[612,453],[0,0],[0,1.65685]],[[609,456],[1.65685,0],[0,0]]],\&amp;quot;closed\&amp;quot;:true}]&amp;quot;, :text-rect {:x 432, :y 396, :width 168, :height 24}, :shape-type :rect, :v 53, :content {#uuid &amp;quot;98f22a21-2ab6-45c9-83f4-aa9c499566e6&amp;quot; {:tag :p, :idx &amp;quot;12&amp;quot;, :content [&amp;quot;Login_History&amp;quot;]}}, :object-type :shape, :angle nil, :style {:color :dark-purple, :deco :outline}, :hitboxes nil, :gfx [:g [:rect {:x 420, :y 360, :width 192, :height 96, :rx 3, :ry 3, :fill &amp;quot;#e3cff3&amp;quot;}] [:rect {:y 360, :stroke-dasharray nil, :rx 3, :stroke &amp;quot;#730FC3&amp;quot;, :fill :none, :stroke-linejoin :round, :width 192, :stroke-dashoffset nil, :stroke-linecap :round, :stroke-width 2, :x 420, :ry 3, :height 96}] [:g.content [:g [:g [:g [:g nil [:g nil] [:text {:fill &amp;quot;#293845&amp;quot;, :hover-props {}} [:tspan {:x 462.3510513305664, :y 414.6666660308838, :font-family &amp;quot;DIN Next, system-ui, sans-serif&amp;quot;, :font-size 18, :font-style :normal, :font-weight :normal} &amp;quot;Login_History&amp;quot;]]]]]]]], :order [11], :rect {:x 420, :y 360, :width 192, :height 96}, :ref-item-deps nil}} {:deleted nil, :workspace-id #uuid &amp;quot;0114a7ee-93fc-4fdd-95fb-5dff189608b7&amp;quot;, :owned? true, :item-id #uuid &amp;quot;c442fe28-c7f3-42ca-9bf5-f730ab45d82f&amp;quot;, :created #inst &amp;quot;2024-10-16T13:58:31.382-00:00&amp;quot;, :stag 5, :item-type :object, :parent-id #uuid &amp;quot;aa27e94d-1b7c-4483-94ba-3d9130af0e14&amp;quot;, :access :readwrite, :data {:path #paper &amp;quot;[\&amp;quot;Path\&amp;quot;,{\&amp;quot;applyMatrix\&amp;quot;:true,\&amp;quot;segments\&amp;quot;:[[[555,648],[0,0],[-1.65685,0]],[[552,645],[0,1.65685],[0,0]],[[552,555],[0,0],[0,-1.65685]],[[555,552],[-1.65685,0],[0,0]],[[741,552],[0,0],[1.65685,0]],[[744,555],[0,-1.65685],[0,0]],[[744,645],[0,0],[0,1.65685]],[[741,648],[1.65685,0],[0,0]]],\&amp;quot;closed\&amp;quot;:true}]&amp;quot;, :text-rect {:x 564, :y 588, :width 168, :height 24}, :shape-type :rect, :v 53, :content {#uuid &amp;quot;14b2b469-f804-4fbc-a025-f393ee1e0938&amp;quot; {:tag :p, :idx &amp;quot;12&amp;quot;, :content [&amp;quot;Movie&amp;quot;]}}, :object-type :shape, :angle nil, :style {:color :dark-purple, :deco :outline}, :hitboxes nil, :gfx [:g [:rect {:x 552, :y 552, :width 192, :height 96, :rx 3, :ry 3, :fill &amp;quot;#e3cff3&amp;quot;}] [:rect {:y 552, :stroke-dasharray nil, :rx 3, :stroke &amp;quot;#730FC3&amp;quot;, :fill :none, :stroke-linejoin :round, :width 192, :stroke-dashoffset nil, :stroke-linecap :round, :stroke-width 2, :x 552, :ry 3, :height 96}] [:g.content [:g [:g [:g [:g nil [:g nil] [:text {:fill &amp;quot;#293845&amp;quot;, :hover-props {}} [:tspan {:x 625.4460144042969, :y 606.6666660308838, :font-family &amp;quot;DIN Next, system-ui, sans-serif&amp;quot;, :font-size 18, :font-style :normal, :font-weight :normal} &amp;quot;Movie&amp;quot;]]]]]]]], :order [8], :rect {:x 552, :y 552, :width 192, :height 96}, :ref-item-deps nil}} {:deleted nil, :workspace-id #uuid &amp;quot;0114a7ee-93fc-4fdd-95fb-5dff189608b7&amp;quot;, :owned? true, :item-id #uuid &amp;quot;5527d55b-0a32-4e37-905b-84b3dec125c4&amp;quot;, :created #inst &amp;quot;2024-10-16T13:58:31.399-00:00&amp;quot;, :stag 6, :item-type :object, :parent-id #uuid &amp;quot;aa27e94d-1b7c-4483-94ba-3d9130af0e14&amp;quot;, :access :readwrite, :data {:path #paper &amp;quot;[\&amp;quot;Path\&amp;quot;,{\&amp;quot;applyMatrix\&amp;quot;:true,\&amp;quot;segments\&amp;quot;:[[[675,1008],[0,0],[-1.65685,0]],[[672,1005],[0,1.65685],[0,0]],[[672,915],[0,0],[0,-1.65685]],[[675,912],[-1.65685,0],[0,0]],[[861,912],[0,0],[1.65685,0]],[[864,915],[0,-1.65685],[0,0]],[[864,1005],[0,0],[0,1.65685]],[[861,1008],[1.65685,0],[0,0]]],\&amp;quot;closed\&amp;quot;:true}]&amp;quot;, :text-rect {:x 684, :y 948, :width 168, :height 24}, :shape-type :rect, :v 53, :content {#uuid &amp;quot;9407d656-25da-41fb-9916-b95ff06fb958&amp;quot; {:tag :p, :idx &amp;quot;12&amp;quot;, :content [&amp;quot;Actor&amp;quot;]}}, :object-type :shape, :angle nil, :style {:color :dark-purple, :deco :outline}, :hitboxes nil, :gfx [:g [:rect {:x 672, :y 912, :width 192, :height 96, :rx 3, :ry 3, :fill &amp;quot;#e3cff3&amp;quot;}] [:rect {:y 912, :stroke-dasharray nil, :rx 3, :stroke &amp;quot;#730FC3&amp;quot;, :fill :none, :stroke-linejoin :round, :width 192, :stroke-dashoffset nil, :stroke-linecap :round, :stroke-width 2, :x 672, :ry 3, :height 96}] [:g.content [:g [:g [:g [:g nil [:g nil] [:text {:fill &amp;quot;#293845&amp;quot;, :hover-props {}} [:tspan {:x 747.1650238037109, :y 966.6666660308838, :font-family &amp;quot;DIN Next, system-ui, sans-serif&amp;quot;, :font-size 18, :font-style :normal, :font-weight :normal} &amp;quot;Actor&amp;quot;]]]]]]]], :order [7], :rect {:x 672, :y 912, :width 192, :height 96}, :ref-item-deps nil}} {:deleted nil, :workspace-id #uuid &amp;quot;0114a7ee-93fc-4fdd-95fb-5dff189608b7&amp;quot;, :owned? true, :item-id #uuid &amp;quot;529ef331-4d39-445c-90db-37db01201c17&amp;quot;, :created #inst &amp;quot;2024-10-16T13:58:31.450-00:00&amp;quot;, :stag 7, :item-type :object, :parent-id #uuid &amp;quot;aa27e94d-1b7c-4483-94ba-3d9130af0e14&amp;quot;, :access :readwrite, :data {:path #paper &amp;quot;[\&amp;quot;Path\&amp;quot;,{\&amp;quot;applyMatrix\&amp;quot;:true,\&amp;quot;segments\&amp;quot;:[[[51,96],[0,0],[-1.65685,0]],[[48,93],[0,1.65685],[0,0]],[[48,3],[0,0],[0,-1.65685]],[[51,0],[-1.65685,0],[0,0]],[[237,0],[0,0],[1.65685,0]],[[240,3],[0,-1.65685],[0,0]],[[240,93],[0,0],[0,1.65685]],[[237,96],[1.65685,0],[0,0]]],\&amp;quot;closed\&amp;quot;:true}]&amp;quot;, :text-rect {:x 60, :y 36, :width 168, :height 24}, :shape-type :rect, :v 53, :content {#uuid &amp;quot;e9961d80-f50b-4f0d-b21c-f3a0b88328ff&amp;quot; {:tag :p, :idx &amp;quot;12&amp;quot;, :content [&amp;quot;Review&amp;quot;]}}, :object-type :shape, :angle nil, :style {:color :dark-purple, :deco :outline}, :hitboxes nil, :gfx [:g [:rect {:x 48, :y 0, :width 192, :height 96, :rx 3, :ry 3, :fill &amp;quot;#e3cff3&amp;quot;}] [:rect {:y 0, :stroke-dasharray nil, :rx 3, :stroke &amp;quot;#730FC3&amp;quot;, :fill :none, :stroke-linejoin :round, :width 192, :stroke-dashoffset nil, :stroke-linecap :round, :stroke-width 2, :x 48, :ry 3, :height 96}] [:g.content [:g [:g [:g [:g nil [:g nil] [:text {:fill &amp;quot;#293845&amp;quot;, :hover-props {}} [:tspan {:x 116.09102630615234, :y 54.66666603088379, :font-family &amp;quot;DIN Next, system-ui, sans-serif&amp;quot;, :font-size 18, :font-style :normal, :font-weight :normal} &amp;quot;Review&amp;quot;]]]]]]]], :order [1], :rect {:x 48, :y 0, :width 192, :height 96}, :ref-item-deps nil}} {:deleted nil, :workspace-id #uuid &amp;quot;0114a7ee-93fc-4fdd-95fb-5dff189608b7&amp;quot;, :owned? true, :item-id #uuid &amp;quot;8f482cd9-7b97-4583-8356-5ecba0ebb025&amp;quot;, :created #inst &amp;quot;2024-10-16T13:58:31.472-00:00&amp;quot;, :stag 8, :item-type :object, :parent-id #uuid &amp;quot;aa27e94d-1b7c-4483-94ba-3d9130af0e14&amp;quot;, :access :readwrite, :data {:path #paper &amp;quot;[\&amp;quot;Path\&amp;quot;,{\&amp;quot;applyMatrix\&amp;quot;:true,\&amp;quot;segments\&amp;quot;:[[[1335,648],[0,0],[-1.65685,0]],[[1332,645],[0,1.65685],[0,0]],[[1332,555],[0,0],[0,-1.65685]],[[1335,552],[-1.65685,0],[0,0]],[[1521,552],[0,0],[1.65685,0]],[[1524,555],[0,-1.65685],[0,0]],[[1524,645],[0,0],[0,1.65685]],[[1521,648],[1.65685,0],[0,0]]],\&amp;quot;closed\&amp;quot;:true}]&amp;quot;, :text-rect {:x 1344, :y 588, :width 168, :height 24}, :shape-type :rect, :v 53, :content {#uuid &amp;quot;4def726b-9d82-4e0f-be98-e3c7d27343a7&amp;quot; {:tag :p, :idx &amp;quot;12&amp;quot;, :content [&amp;quot;Payment&amp;quot;]}}, :object-type :shape, :angle nil, :style {:color :dark-purple, :deco :outline}, :hitboxes nil, :gfx [:g [:rect {:x 1332, :y 552, :width 192, :height 96, :rx 3, :ry 3, :fill &amp;quot;#e3cff3&amp;quot;}] [:rect {:y 552, :stroke-dasharray nil, :rx 3, :stroke &amp;quot;#730FC3&amp;quot;, :fill :none, :stroke-linejoin :round, :width 192, :stroke-dashoffset nil, :stroke-linecap :round, :stroke-width 2, :x 1332, :ry 3, :height 96}] [:g.content [:g [:g [:g [:g nil [:g nil] [:text {:fill &amp;quot;#293845&amp;quot;, :hover-props {}} [:tspan {:x 1393.9710311889648, :y 606.6666660308838, :font-family &amp;quot;DIN Next, system-ui, sans-serif&amp;quot;, :font-size 18, :font-style :normal, :font-weight :normal} &amp;quot;Payment&amp;quot;]]]]]]]], :order [10], :rect {:x 1332, :y 552, :width 192, :height 96}, :ref-item-deps nil}} {:deleted nil, :workspace-id #uuid &amp;quot;0114a7ee-93fc-4fdd-95fb-5dff189608b7&amp;quot;, :owned? true, :item-id #uuid &amp;quot;e8ec9167-7c28-41f1-aa0e-7a9d7eaf5327&amp;quot;, :created #inst &amp;quot;2024-10-16T13:58:31.493-00:00&amp;quot;, :stag 9, :item-type :object, :parent-id #uuid &amp;quot;aa27e94d-1b7c-4483-94ba-3d9130af0e14&amp;quot;, :access :readwrite, :data {:text-anchor {:rel 0.7876628400536295, :x 516, :y 321}, :path #paper &amp;quot;[\&amp;quot;CompoundPath\&amp;quot;,{\&amp;quot;applyMatrix\&amp;quot;:true,\&amp;quot;children\&amp;quot;:[[\&amp;quot;Path\&amp;quot;,{\&amp;quot;applyMatrix\&amp;quot;:true,\&amp;quot;segments\&amp;quot;:[[544,228],[[530,228],[0,0],[-7.73198,0]],[[516,242],[0,-7.73198],[0,0]],[516,307]]}],[\&amp;quot;Path\&amp;quot;,{\&amp;quot;applyMatrix\&amp;quot;:true,\&amp;quot;segments\&amp;quot;:[[544,228],[543,228]]}],[\&amp;quot;Path\&amp;quot;,{\&amp;quot;applyMatrix\&amp;quot;:true,\&amp;quot;segments\&amp;quot;:[[543,228],[[530,228],[0,0],[-7.73198,0]],[[516,242],[0,-7.73198],[0,0]],[516,307]]}],[\&amp;quot;Path\&amp;quot;,{\&amp;quot;applyMatrix\&amp;quot;:true,\&amp;quot;segments\&amp;quot;:[[516,335],[516,352]]}]]}]&amp;quot;, :text-rect {:x 476, :y 309, :width 80, :height 24}, :to-id #uuid &amp;quot;ed1b845b-bba5-42ad-a18e-7cd28c6c7bc0&amp;quot;, :from-id #uuid &amp;quot;8a8aa2e5-cb0c-4620-bdd8-1c9a38479b72&amp;quot;, :v 53, :to-rel {:rx 0.5, :ry 0.5, :a :y}, :content {#uuid &amp;quot;d8e80f01-e6f0-43a4-9820-b19bf1bd92b8&amp;quot; {:tag :p, :idx &amp;quot;12&amp;quot;, :content [&amp;quot;1-to-Many&amp;quot;]}}, :from-rel {:rx 0.5, :ry 0.5, :a :x}, :object-type :connector, :points [], :to-endpoint :arrow, :style {:color :silver, :deco :outline}, :hitboxes nil, :to-pos {:x 516, :y 352}, :gfx [:g {} nil [:path {:d &amp;quot;M543,228h-13c-7.73198,0 -14,6.26802 -14,14v65M516,335v13&amp;quot;, :fill :none, :clip-path nil, :stroke &amp;quot;#788896&amp;quot;, :stroke-linecap :round, :stroke-linejoin :round, :stroke-width 4}] nil [:polygon {:points &amp;quot;521.54095,344.9079 516,352 510.45905,344.9079&amp;quot;, :fill &amp;quot;#788896&amp;quot;, :stroke &amp;quot;#788896&amp;quot;, :stroke-width 2, :clip-path nil, :stroke-linecap :round, :stroke-linejoin :round}] [:g.content [:g [:g [:g [:g nil [:g nil] [:text {:fill &amp;quot;#293845&amp;quot;, :hover-props {}} [:tspan {:x 476.1750259399414, :y 327.6666660308838, :font-family &amp;quot;DIN Next, system-ui, sans-serif&amp;quot;, :font-size 18, :font-style :normal, :font-weight :normal} &amp;quot;1-to-Many&amp;quot;]]]]]]]], :baseline-path #paper &amp;quot;[\&amp;quot;Path\&amp;quot;,{\&amp;quot;applyMatrix\&amp;quot;:true,\&amp;quot;segments\&amp;quot;:[[648,228],[516,228],[516,408]]}]&amp;quot;, :order [16], :from-pos {:x 544, :y 228}, :connector-type :elbow, :cont-path #paper &amp;quot;[\&amp;quot;Path\&amp;quot;,{\&amp;quot;applyMatrix\&amp;quot;:true,\&amp;quot;segments\&amp;quot;:[[544,228],[[530,228],[0,0],[-7.73198,0]],[[516,242],[0,-7.73198],[0,0]],[516,352]]}]&amp;quot;, :rect {:x 472, :y 224, :width 88, :height 133}, :edges [{:y 228, :offset 132} {:x 516, :offset 312}], :ref-item-deps nil}} {:deleted nil, :workspace-id #uuid &amp;quot;0114a7ee-93fc-4fdd-95fb-5dff189608b7&amp;quot;, :owned? true, :item-id #uuid &amp;quot;356b6aee-bcb3-4dd4-8066-fff46485d5ba&amp;quot;, :created #inst &amp;quot;2024-10-16T13:58:31.518-00:00&amp;quot;, :stag 10, :item-type :object, :parent-id #uuid &amp;quot;aa27e94d-1b7c-4483-94ba-3d9130af0e14&amp;quot;, :access :readwrite, :data {:text-anchor {:rel 0.05790084962890925, :x 1296, :y 503}, :path #paper &amp;quot;[\&amp;quot;CompoundPath\&amp;quot;,{\&amp;quot;applyMatrix\&amp;quot;:true,\&amp;quot;children\&amp;quot;:[[\&amp;quot;Path\&amp;quot;,{\&amp;quot;applyMatrix\&amp;quot;:true,\&amp;quot;segments\&amp;quot;:[[1296,464],[1296,489]]}],[\&amp;quot;Path\&amp;quot;,{\&amp;quot;applyMatrix\&amp;quot;:true,\&amp;quot;segments\&amp;quot;:[[1296,464],[1296,465]]}],[\&amp;quot;Path\&amp;quot;,{\&amp;quot;applyMatrix\&amp;quot;:true,\&amp;quot;segments\&amp;quot;:[[1296,465],[1296,489]]}],[\&amp;quot;Path\&amp;quot;,{\&amp;quot;applyMatrix\&amp;quot;:true,\&amp;quot;segments\&amp;quot;:[[1296,517],[[1296,585],[0,0],[0,8.28426]],[[1281,600],[8.28426,0],[0,0]],[752,600]]}]]}]&amp;quot;, :text-rect {:x 1256, :y 491, :width 80, :height 24}, :to-id #uuid &amp;quot;c442fe28-c7f3-42ca-9bf5-f730ab45d82f&amp;quot;, :from-id #uuid &amp;quot;846df258-881e-4900-95ee-1b1b1fcbda93&amp;quot;, :v 53, :to-rel {:rx 0.5, :ry 0.5, :a :x}, :content {#uuid &amp;quot;cce01d7d-2a73-4dd4-9b49-a165808e477c&amp;quot; {:tag :p, :idx &amp;quot;12&amp;quot;, :content [&amp;quot;Many-to-1&amp;quot;]}}, :from-rel {:rx 0.5, :ry 0.5, :a :y}, :object-type :connector, :points [], :to-endpoint :arrow, :style {:color :silver, :deco :outline}, :hitboxes nil, :to-pos {:x 752, :y 600}, :gfx [:g {} nil [:path {:d &amp;quot;M1296,465v24M1296,517v68c0,8.28426 -6.71574,15 -15,15h-525&amp;quot;, :fill :none, :clip-path nil, :stroke &amp;quot;#788896&amp;quot;, :stroke-linecap :round, :stroke-linejoin :round, :stroke-width 4}] nil [:polygon {:points &amp;quot;759.0921,605.54095 752,600 759.0921,594.45905&amp;quot;, :fill &amp;quot;#788896&amp;quot;, :stroke &amp;quot;#788896&amp;quot;, :stroke-width 2, :clip-path nil, :stroke-linecap :round, :stroke-linejoin :round}] [:g.content [:g [:g [:g [:g nil [:g nil] [:text {:fill &amp;quot;#293845&amp;quot;, :hover-props {}} [:tspan {:x 1256.2920227050781, :y 509.6666660308838, :font-family &amp;quot;DIN Next, system-ui, sans-serif&amp;quot;, :font-size 18, :font-style :normal, :font-weight :normal} &amp;quot;Many-to-1&amp;quot;]]]]]]]], :baseline-path #paper &amp;quot;[\&amp;quot;Path\&amp;quot;,{\&amp;quot;applyMatrix\&amp;quot;:true,\&amp;quot;segments\&amp;quot;:[[1296,408],[1296,600],[648,600]]}]&amp;quot;, :order [28], :from-pos {:x 1296, :y 464}, :connector-type :elbow, :cont-path #paper &amp;quot;[\&amp;quot;Path\&amp;quot;,{\&amp;quot;applyMatrix\&amp;quot;:true,\&amp;quot;segments\&amp;quot;:[[1296,464],[[1296,585],[0,0],[0,8.28426]],[[1281,600],[8.28426,0],[0,0]],[752,600]]}]&amp;quot;, :rect {:x 748, :y 460, :width 592, :height 144}, :edges [{:x 1296, :offset 192} {:y 600, :offset 840}], :ref-item-deps nil}} {:deleted nil, :workspace-id #uuid &amp;quot;0114a7ee-93fc-4fdd-95fb-5dff189608b7&amp;quot;, :owned? true, :item-id #uuid &amp;quot;56ec619d-6395-4c01-bd70-14f94a61191f&amp;quot;, :created #inst &amp;quot;2024-10-16T13:58:31.546-00:00&amp;quot;, :stag 11, :item-type :object, :parent-id #uuid &amp;quot;aa27e94d-1b7c-4483-94ba-3d9130af0e14&amp;quot;, :access :readwrite, :data {:text-anchor {:rel 0.5441176470588235, :x 696, :y 321}, :path #paper &amp;quot;[\&amp;quot;CompoundPath\&amp;quot;,{\&amp;quot;applyMatrix\&amp;quot;:true,\&amp;quot;children\&amp;quot;:[[\&amp;quot;Path\&amp;quot;,{\&amp;quot;applyMatrix\&amp;quot;:true,\&amp;quot;segments\&amp;quot;:[[696,284],[696,307]]}],[\&amp;quot;Path\&amp;quot;,{\&amp;quot;applyMatrix\&amp;quot;:true,\&amp;quot;segments\&amp;quot;:[[696,284],[696,285]]}],[\&amp;quot;Path\&amp;quot;,{\&amp;quot;applyMatrix\&amp;quot;:true,\&amp;quot;segments\&amp;quot;:[[696,285],[696,307]]}],[\&amp;quot;Path\&amp;quot;,{\&amp;quot;applyMatrix\&amp;quot;:true,\&amp;quot;segments\&amp;quot;:[[696,335],[696,352]]}]]}]&amp;quot;, :text-rect {:x 656, :y 309, :width 80, :height 24}, :to-id #uuid &amp;quot;63be3a8c-62e0-484b-97f8-728eb4c4069e&amp;quot;, :from-id #uuid &amp;quot;8a8aa2e5-cb0c-4620-bdd8-1c9a38479b72&amp;quot;, :v 53, :to-rel {:rx 0.5, :ry 0.5, :a :x}, :content {#uuid &amp;quot;755a90e8-0ca3-4867-a397-2974214f618d&amp;quot; {:tag :p, :idx &amp;quot;12&amp;quot;, :content [&amp;quot;1-to-Many&amp;quot;]}}, :from-rel {:rx 0.5, :ry 0.5, :a :x}, :object-type :connector, :points [], :to-endpoint :arrow, :style {:color :silver, :deco :outline}, :hitboxes nil, :to-pos {:x 696, :y 352}, :gfx [:g {} nil [:path {:d &amp;quot;M696,285v22M696,335v13&amp;quot;, :fill :none, :clip-path nil, :stroke &amp;quot;#788896&amp;quot;, :stroke-linecap :round, :stroke-linejoin :round, :stroke-width 4}] nil [:polygon {:points &amp;quot;701.54095,344.9079 696,352 690.45905,344.9079&amp;quot;, :fill &amp;quot;#788896&amp;quot;, :stroke &amp;quot;#788896&amp;quot;, :stroke-width 2, :clip-path nil, :stroke-linecap :round, :stroke-linejoin :round}] [:g.content [:g [:g [:g [:g nil [:g nil] [:text {:fill &amp;quot;#293845&amp;quot;, :hover-props {}} [:tspan {:x 656.1750259399414, :y 327.6666660308838, :font-family &amp;quot;DIN Next, system-ui, sans-serif&amp;quot;, :font-size 18, :font-style :normal, :font-weight :normal} &amp;quot;1-to-Many&amp;quot;]]]]]]]], :baseline-path #paper &amp;quot;[\&amp;quot;Path\&amp;quot;,{\&amp;quot;applyMatrix\&amp;quot;:true,\&amp;quot;segments\&amp;quot;:[[648,228],[696,228],[696,408],[768,408]]}]&amp;quot;, :order [17], :from-pos {:x 696, :y 284}, :connector-type :elbow, :cont-path #paper &amp;quot;[\&amp;quot;Path\&amp;quot;,{\&amp;quot;applyMatrix\&amp;quot;:true,\&amp;quot;segments\&amp;quot;:[[696,284],[696,352]]}]&amp;quot;, :rect {:x 652, :y 280, :width 88, :height 76}, :edges [{:y 228, :offset 48} {:x 696, :offset 228} {:y 408, :offset 300}], :ref-item-deps nil}} {:deleted nil, :workspace-id #uuid &amp;quot;0114a7ee-93fc-4fdd-95fb-5dff189608b7&amp;quot;, :owned? true, :item-id #uuid &amp;quot;66b8d146-9b87-4672-93f7-6a5b041037da&amp;quot;, :created #inst &amp;quot;2024-10-16T13:58:31.574-00:00&amp;quot;, :stag 12, :item-type :object, :parent-id #uuid &amp;quot;aa27e94d-1b7c-4483-94ba-3d9130af0e14&amp;quot;, :access :readwrite, :data {:text-anchor {:rel 0.7144282511578995, :x 528, :y 685}, :path #paper &amp;quot;[\&amp;quot;CompoundPath\&amp;quot;,{\&amp;quot;applyMatrix\&amp;quot;:true,\&amp;quot;children\&amp;quot;:[[\&amp;quot;Path\&amp;quot;,{\&amp;quot;applyMatrix\&amp;quot;:true,\&amp;quot;segments\&amp;quot;:[[544,600],[[536,600],[0,0],[-4.41827,0]],[[528,608],[0,-4.41827],[0,0]],[528,671]]}],[\&amp;quot;Path\&amp;quot;,{\&amp;quot;applyMatrix\&amp;quot;:true,\&amp;quot;segments\&amp;quot;:[[544,600],[543,600]]}],[\&amp;quot;Path\&amp;quot;,{\&amp;quot;applyMatrix\&amp;quot;:true,\&amp;quot;segments\&amp;quot;:[[543,600],[[536,600],[0,0],[-4.41827,0]],[[528,608],[0,-4.41827],[0,0]],[528,671]]}],[\&amp;quot;Path\&amp;quot;,{\&amp;quot;applyMatrix\&amp;quot;:true,\&amp;quot;segments\&amp;quot;:[[528,699],[528,724]]}]]}]&amp;quot;, :text-rect {:x 488, :y 673, :width 80, :height 24}, :to-id #uuid &amp;quot;3f7b538c-8092-455b-a97f-4b03449c4333&amp;quot;, :from-id #uuid &amp;quot;c442fe28-c7f3-42ca-9bf5-f730ab45d82f&amp;quot;, :v 53, :to-rel {:rx 0.5, :ry 0.5, :a :y}, :content {#uuid &amp;quot;ea55d0ff-9846-4ee2-a004-eb5fc94c096c&amp;quot; {:tag :p, :idx &amp;quot;12&amp;quot;, :content [&amp;quot;Many-to-1&amp;quot;]}}, :from-rel {:rx 0.5, :ry 0.5, :a :x}, :object-type :connector, :points [], :to-endpoint :arrow, :style {:color :silver, :deco :outline}, :hitboxes nil, :to-pos {:x 528, :y 724}, :gfx [:g {} nil [:path {:d &amp;quot;M543,600h-7c-4.41827,0 -8,3.58173 -8,8v63M528,699v21&amp;quot;, :fill :none, :clip-path nil, :stroke &amp;quot;#788896&amp;quot;, :stroke-linecap :round, :stroke-linejoin :round, :stroke-width 4}] nil [:polygon {:points &amp;quot;533.54095,716.9079 528,724 522.45905,716.9079&amp;quot;, :fill &amp;quot;#788896&amp;quot;, :stroke &amp;quot;#788896&amp;quot;, :stroke-width 2, :clip-path nil, :stroke-linecap :round, :stroke-linejoin :round}] [:g.content [:g [:g [:g [:g nil [:g nil] [:text {:fill &amp;quot;#293845&amp;quot;, :hover-props {}} [:tspan {:x 488.2920227050781, :y 691.6666660308838, :font-family &amp;quot;DIN Next, system-ui, sans-serif&amp;quot;, :font-size 18, :font-style :normal, :font-weight :normal} &amp;quot;Many-to-1&amp;quot;]]]]]]]], :baseline-path #paper &amp;quot;[\&amp;quot;Path\&amp;quot;,{\&amp;quot;applyMatrix\&amp;quot;:true,\&amp;quot;segments\&amp;quot;:[[648,600],[528,600],[528,780]]}]&amp;quot;, :order [20], :from-pos {:x 544, :y 600}, :connector-type :elbow, :cont-path #paper &amp;quot;[\&amp;quot;Path\&amp;quot;,{\&amp;quot;applyMatrix\&amp;quot;:true,\&amp;quot;segments\&amp;quot;:[[544,600],[[536,600],[0,0],[-4.41827,0]],[[528,608],[0,-4.41827],[0,0]],[528,724]]}]&amp;quot;, :rect {:x 484, :y 596, :width 88, :height 132}, :edges [{:y 600, :offset 120} {:x 528, :offset 300}], :ref-item-deps nil}} {:deleted nil, :workspace-id #uuid &amp;quot;0114a7ee-93fc-4fdd-95fb-5dff189608b7&amp;quot;, :owned? true, :item-id #uuid &amp;quot;7c83290d-7c1c-453a-afea-95304f20f450&amp;quot;, :created #inst &amp;quot;2024-10-16T13:58:31.591-00:00&amp;quot;, :stag 13, :item-type :object, :parent-id #uuid &amp;quot;aa27e94d-1b7c-4483-94ba-3d9130af0e14&amp;quot;, :access :readwrite, :data {:text-anchor {:rel 0.08803586427257015, :x 1032, :y 139}, :path #paper &amp;quot;[\&amp;quot;CompoundPath\&amp;quot;,{\&amp;quot;applyMatrix\&amp;quot;:true,\&amp;quot;children\&amp;quot;:[[\&amp;quot;Path\&amp;quot;,{\&amp;quot;applyMatrix\&amp;quot;:true,\&amp;quot;segments\&amp;quot;:[[1032,104],[1032,125]]}],[\&amp;quot;Path\&amp;quot;,{\&amp;quot;applyMatrix\&amp;quot;:true,\&amp;quot;segments\&amp;quot;:[[1032,104],[1032,105]]}],[\&amp;quot;Path\&amp;quot;,{\&amp;quot;applyMatrix\&amp;quot;:true,\&amp;quot;segments\&amp;quot;:[[1032,105],[1032,125]]}],[\&amp;quot;Path\&amp;quot;,{\&amp;quot;applyMatrix\&amp;quot;:true,\&amp;quot;segments\&amp;quot;:[[1032,153],[[1032,213],[0,0],[0,8.28426]],[[1017,228],[8.28426,0],[0,0]],[752,228]]}]]}]&amp;quot;, :text-rect {:x 1007.5, :y 127, :width 49, :height 24}, :to-id #uuid &amp;quot;8a8aa2e5-cb0c-4620-bdd8-1c9a38479b72&amp;quot;, :from-id #uuid &amp;quot;0dd42167-4c3b-423b-9db0-dbf7d9d14228&amp;quot;, :v 53, :to-rel {:rx 0.5, :ry 0.5, :a :x}, :content {#uuid &amp;quot;c1be8289-5c08-4424-9693-f54f19795b9d&amp;quot; {:tag :p, :idx &amp;quot;12&amp;quot;, :content [&amp;quot;1-to-1&amp;quot;]}}, :from-rel {:rx 0.5, :ry 0.5, :a :x}, :object-type :connector, :points [], :to-endpoint :arrow, :style {:color :silver, :deco :outline}, :hitboxes nil, :to-pos {:x 752, :y 228}, :gfx [:g {} nil [:path {:d &amp;quot;M1032,105v20M1032,153v60c0,8.28426 -6.71574,15 -15,15h-261&amp;quot;, :fill :none, :clip-path nil, :stroke &amp;quot;#788896&amp;quot;, :stroke-linecap :round, :stroke-linejoin :round, :stroke-width 4}] nil [:polygon {:points &amp;quot;759.0921,233.54095 752,228 759.0921,222.45905&amp;quot;, :fill &amp;quot;#788896&amp;quot;, :stroke &amp;quot;#788896&amp;quot;, :stroke-width 2, :clip-path nil, :stroke-linecap :round, :stroke-linejoin :round}] [:g.content [:g [:g [:g [:g nil [:g nil] [:text {:fill &amp;quot;#293845&amp;quot;, :hover-props {}} [:tspan {:x 1007.916015625, :y 145.6666660308838, :font-family &amp;quot;DIN Next, system-ui, sans-serif&amp;quot;, :font-size 18, :font-style :normal, :font-weight :normal} &amp;quot;1-to-1&amp;quot;]]]]]]]], :baseline-path #paper &amp;quot;[\&amp;quot;Path\&amp;quot;,{\&amp;quot;applyMatrix\&amp;quot;:true,\&amp;quot;segments\&amp;quot;:[[1044,48],[1032,48],[1032,228],[648,228]]}]&amp;quot;, :order [27], :from-pos {:x 1032, :y 104}, :connector-type :elbow, :cont-path #paper &amp;quot;[\&amp;quot;Path\&amp;quot;,{\&amp;quot;applyMatrix\&amp;quot;:true,\&amp;quot;segments\&amp;quot;:[[1032,104],[[1032,213],[0,0],[0,8.28426]],[[1017,228],[8.28426,0],[0,0]],[752,228]]}]&amp;quot;, :rect {:x 748, :y 100, :width 313, :height 132}, :edges [{:y 48, :offset 12} {:x 1032, :offset 192} {:y 228, :offset 576}], :ref-item-deps nil}} {:deleted nil, :workspace-id #uuid &amp;quot;0114a7ee-93fc-4fdd-95fb-5dff189608b7&amp;quot;, :owned? true, :item-id #uuid &amp;quot;142e5ef8-c7f3-4fdd-bb02-fb506d684e32&amp;quot;, :created #inst &amp;quot;2024-10-16T13:58:31.605-00:00&amp;quot;, :stag 14, :item-type :object, :parent-id #uuid &amp;quot;aa27e94d-1b7c-4483-94ba-3d9130af0e14&amp;quot;, :access :readwrite, :data {:path #paper &amp;quot;[\&amp;quot;Path\&amp;quot;,{\&amp;quot;applyMatrix\&amp;quot;:true,\&amp;quot;segments\&amp;quot;:[[[675,828],[0,0],[-1.65685,0]],[[672,825],[0,1.65685],[0,0]],[[672,735],[0,0],[0,-1.65685]],[[675,732],[-1.65685,0],[0,0]],[[861,732],[0,0],[1.65685,0]],[[864,735],[0,-1.65685],[0,0]],[[864,825],[0,0],[0,1.65685]],[[861,828],[1.65685,0],[0,0]]],\&amp;quot;closed\&amp;quot;:true}]&amp;quot;, :text-rect {:x 684, :y 768, :width 168, :height 24}, :shape-type :rect, :v 53, :content {#uuid &amp;quot;cf71a3b1-4ea7-4078-b005-4638730d22fa&amp;quot; {:tag :p, :idx &amp;quot;12&amp;quot;, :content [&amp;quot;Movie_Actor&amp;quot;]}}, :object-type :shape, :angle nil, :style {:color :dark-purple, :deco :outline}, :hitboxes nil, :gfx [:g [:rect {:x 672, :y 732, :width 192, :height 96, :rx 3, :ry 3, :fill &amp;quot;#e3cff3&amp;quot;}] [:rect {:y 732, :stroke-dasharray nil, :rx 3, :stroke &amp;quot;#730FC3&amp;quot;, :fill :none, :stroke-linejoin :round, :width 192, :stroke-dashoffset nil, :stroke-linecap :round, :stroke-width 2, :x 672, :ry 3, :height 96}] [:g.content [:g [:g [:g [:g nil [:g nil] [:text {:fill &amp;quot;#293845&amp;quot;, :hover-props {}} [:tspan {:x 720.3270416259766, :y 786.6666660308838, :font-family &amp;quot;DIN Next, system-ui, sans-serif&amp;quot;, :font-size 18, :font-style :normal, :font-weight :normal} &amp;quot;Movie_Actor&amp;quot;]]]]]]]], :order [2], :rect {:x 672, :y 732, :width 192, :height 96}, :ref-item-deps nil}} {:deleted nil, :workspace-id #uuid &amp;quot;0114a7ee-93fc-4fdd-95fb-5dff189608b7&amp;quot;, :owned? true, :item-id #uuid &amp;quot;0676571a-c86e-4fb2-9e9e-28a274795bfa&amp;quot;, :created #inst &amp;quot;2024-10-16T13:58:31.624-00:00&amp;quot;, :stag 15, :item-type :object, :parent-id #uuid &amp;quot;aa27e94d-1b7c-4483-94ba-3d9130af0e14&amp;quot;, :access :readwrite, :data {:text-anchor {:rel 0.17073752137835618, :x 840, :y 321}, :path #paper &amp;quot;[\&amp;quot;CompoundPath\&amp;quot;,{\&amp;quot;applyMatrix\&amp;quot;:true,\&amp;quot;children\&amp;quot;:[[\&amp;quot;Path\&amp;quot;,{\&amp;quot;applyMatrix\&amp;quot;:true,\&amp;quot;segments\&amp;quot;:[[840,352],[840,335]]}],[\&amp;quot;Path\&amp;quot;,{\&amp;quot;applyMatrix\&amp;quot;:true,\&amp;quot;segments\&amp;quot;:[[840,352],[840,351]]}],[\&amp;quot;Path\&amp;quot;,{\&amp;quot;applyMatrix\&amp;quot;:true,\&amp;quot;segments\&amp;quot;:[[840,351],[840,335]]}],[\&amp;quot;Path\&amp;quot;,{\&amp;quot;applyMatrix\&amp;quot;:true,\&amp;quot;segments\&amp;quot;:[[840,307],[[840,267],[0,0],[0,-8.28426]],[[825,252],[8.28426,0],[0,0]],[752,252]]}]]}]&amp;quot;, :text-rect {:x 815.5, :y 309, :width 49, :height 24}, :to-id #uuid &amp;quot;8a8aa2e5-cb0c-4620-bdd8-1c9a38479b72&amp;quot;, :from-id #uuid &amp;quot;63be3a8c-62e0-484b-97f8-728eb4c4069e&amp;quot;, :v 53, :to-rel {:rx 0.5, :ry 0.75, :a :x}, :content {#uuid &amp;quot;016769ce-ab64-4c1f-8a80-16df49aba600&amp;quot; {:tag :p, :idx &amp;quot;12&amp;quot;, :content [&amp;quot;1-to-1&amp;quot;]}}, :from-rel {:rx 0.5, :ry 0.25, :a :x}, :object-type :connector, :points [], :to-endpoint :arrow, :style {:color :silver, :deco :outline}, :hitboxes nil, :to-pos {:x 752, :y 252}, :gfx [:g {} nil [:path {:d &amp;quot;M840,351v-16M840,307v-40c0,-8.28426 -6.71574,-15 -15,-15h-69&amp;quot;, :fill :none, :clip-path nil, :stroke &amp;quot;#788896&amp;quot;, :stroke-linecap :round, :stroke-linejoin :round, :stroke-width 4}] nil [:polygon {:points &amp;quot;759.0921,257.54095 752,252 759.0921,246.45905&amp;quot;, :fill &amp;quot;#788896&amp;quot;, :stroke &amp;quot;#788896&amp;quot;, :stroke-width 2, :clip-path nil, :stroke-linecap :round, :stroke-linejoin :round}] [:g.content [:g [:g [:g [:g nil [:g nil] [:text {:fill &amp;quot;#293845&amp;quot;, :hover-props {}} [:tspan {:x 815.916015625, :y 327.6666660308838, :font-family &amp;quot;DIN Next, system-ui, sans-serif&amp;quot;, :font-size 18, :font-style :normal, :font-weight :normal} &amp;quot;1-to-1&amp;quot;]]]]]]]], :baseline-path #paper &amp;quot;[\&amp;quot;Path\&amp;quot;,{\&amp;quot;applyMatrix\&amp;quot;:true,\&amp;quot;segments\&amp;quot;:[[768,384],[840,384],[840,252],[648,252]]}]&amp;quot;, :order [18], :from-pos {:x 840, :y 352}, :connector-type :elbow, :cont-path #paper &amp;quot;[\&amp;quot;Path\&amp;quot;,{\&amp;quot;applyMatrix\&amp;quot;:true,\&amp;quot;segments\&amp;quot;:[[840,352],[[840,267],[0,0],[0,-8.28426]],[[825,252],[8.28426,0],[0,0]],[752,252]]}]&amp;quot;, :rect {:x 748, :y 248, :width 121, :height 108}, :edges [{:y 384, :offset 72} {:x 840, :offset 204} {:y 252, :offset 396}], :ref-item-deps nil}} {:deleted nil, :workspace-id #uuid &amp;quot;0114a7ee-93fc-4fdd-95fb-5dff189608b7&amp;quot;, :owned? true, :item-id #uuid &amp;quot;0dd42167-4c3b-423b-9db0-dbf7d9d14228&amp;quot;, :created #inst &amp;quot;2024-10-16T13:58:31.643-00:00&amp;quot;, :stag 16, :item-type :object, :parent-id #uuid &amp;quot;aa27e94d-1b7c-4483-94ba-3d9130af0e14&amp;quot;, :access :readwrite, :data {:path #paper &amp;quot;[\&amp;quot;Path\&amp;quot;,{\&amp;quot;applyMatrix\&amp;quot;:true,\&amp;quot;segments\&amp;quot;:[[[951,96],[0,0],[-1.65685,0]],[[948,93],[0,1.65685],[0,0]],[[948,3],[0,0],[0,-1.65685]],[[951,0],[-1.65685,0],[0,0]],[[1137,0],[0,0],[1.65685,0]],[[1140,3],[0,-1.65685],[0,0]],[[1140,93],[0,0],[0,1.65685]],[[1137,96],[1.65685,0],[0,0]]],\&amp;quot;closed\&amp;quot;:true}]&amp;quot;, :text-rect {:x 960, :y 36, :width 168, :height 24}, :shape-type :rect, :v 53, :content {#uuid &amp;quot;b20b7490-ed6e-489b-ba66-e9ae385b26bd&amp;quot; {:tag :p, :idx &amp;quot;12&amp;quot;, :content [&amp;quot;Wishlist&amp;quot;]}}, :object-type :shape, :angle nil, :style {:color :dark-purple, :deco :outline}, :hitboxes nil, :gfx [:g [:rect {:x 948, :y 0, :width 192, :height 96, :rx 3, :ry 3, :fill &amp;quot;#e3cff3&amp;quot;}] [:rect {:y 0, :stroke-dasharray nil, :rx 3, :stroke &amp;quot;#730FC3&amp;quot;, :fill :none, :stroke-linejoin :round, :width 192, :stroke-dashoffset nil, :stroke-linecap :round, :stroke-width 2, :x 948, :ry 3, :height 96}] [:g.content [:g [:g [:g [:g nil [:g nil] [:text {:fill &amp;quot;#293845&amp;quot;, :hover-props {}} [:tspan {:x 1013.0760345458984, :y 54.66666603088379, :font-family &amp;quot;DIN Next, system-ui, sans-serif&amp;quot;, :font-size 18, :font-style :normal, :font-weight :normal} &amp;quot;Wishlist&amp;quot;]]]]]]]], :order [5], :rect {:x 948, :y 0, :width 192, :height 96}, :ref-item-deps nil}} {:deleted nil, :workspace-id #uuid &amp;quot;0114a7ee-93fc-4fdd-95fb-5dff189608b7&amp;quot;, :owned? true, :item-id #uuid &amp;quot;9b6de65f-caf3-479e-9871-11d52a5dd4d9&amp;quot;, :created #inst &amp;quot;2024-10-16T13:58:31.663-00:00&amp;quot;, :stag 17, :item-type :object, :parent-id #uuid &amp;quot;aa27e94d-1b7c-4483-94ba-3d9130af0e14&amp;quot;, :access :readwrite, :data {:text-anchor {:rel 0.29435966010195364, :x 1164, :y 321}, :path #paper &amp;quot;[\&amp;quot;CompoundPath\&amp;quot;,{\&amp;quot;applyMatrix\&amp;quot;:true,\&amp;quot;children\&amp;quot;:[[\&amp;quot;Path\&amp;quot;,{\&amp;quot;applyMatrix\&amp;quot;:true,\&amp;quot;segments\&amp;quot;:[[1148,48],[[1156,48],[0,0],[4.41827,0]],[[1164,56],[0,-4.41827],[0,0]],[1164,307]]}],[\&amp;quot;Path\&amp;quot;,{\&amp;quot;applyMatrix\&amp;quot;:true,\&amp;quot;segments\&amp;quot;:[[1148,48],[1149,48]]}],[\&amp;quot;Path\&amp;quot;,{\&amp;quot;applyMatrix\&amp;quot;:true,\&amp;quot;segments\&amp;quot;:[[1149,48],[[1156,48],[0,0],[4.41827,0]],[[1164,56],[0,-4.41827],[0,0]],[1164,307]]}],[\&amp;quot;Path\&amp;quot;,{\&amp;quot;applyMatrix\&amp;quot;:true,\&amp;quot;segments\&amp;quot;:[[1164,335],[[1164,585],[0,0],[0,8.28426]],[[1149,600],[8.28426,0],[0,0]],[752,600]]}]]}]&amp;quot;, :text-rect {:x 1139.5, :y 309, :width 49, :height 24}, :to-id #uuid &amp;quot;c442fe28-c7f3-42ca-9bf5-f730ab45d82f&amp;quot;, :from-id #uuid &amp;quot;0dd42167-4c3b-423b-9db0-dbf7d9d14228&amp;quot;, :v 53, :to-rel {:rx 0.5, :ry 0.5, :a :x}, :content {#uuid &amp;quot;4d2e456b-38a2-49ec-bbe0-45ef4275b628&amp;quot; {:tag :p, :idx &amp;quot;12&amp;quot;, :content [&amp;quot;1-to-1&amp;quot;]}}, :from-rel {:rx 0.5, :ry 0.5, :a :x}, :object-type :connector, :points [], :to-endpoint :arrow, :style {:color :silver, :deco :outline}, :hitboxes nil, :to-pos {:x 752, :y 600}, :gfx [:g {} nil [:path {:d &amp;quot;M1149,48l7,0c4.41827,0 8,3.58173 8,8v251M1164,335v250c0,8.28426 -6.71574,15 -15,15h-393&amp;quot;, :fill :none, :clip-path nil, :stroke &amp;quot;#788896&amp;quot;, :stroke-linecap :round, :stroke-linejoin :round, :stroke-width 4}] nil [:polygon {:points &amp;quot;759.0921,605.54095 752,600 759.0921,594.45905&amp;quot;, :fill &amp;quot;#788896&amp;quot;, :stroke &amp;quot;#788896&amp;quot;, :stroke-width 2, :clip-path nil, :stroke-linecap :round, :stroke-linejoin :round}] [:g.content [:g [:g [:g [:g nil [:g nil] [:text {:fill &amp;quot;#293845&amp;quot;, :hover-props {}} [:tspan {:x 1139.916015625, :y 327.6666660308838, :font-family &amp;quot;DIN Next, system-ui, sans-serif&amp;quot;, :font-size 18, :font-style :normal, :font-weight :normal} &amp;quot;1-to-1&amp;quot;]]]]]]]], :baseline-path #paper &amp;quot;[\&amp;quot;Path\&amp;quot;,{\&amp;quot;applyMatrix\&amp;quot;:true,\&amp;quot;segments\&amp;quot;:[[1044,48],[1164,48],[1164,600],[648,600]]}]&amp;quot;, :order [26], :from-pos {:x 1148, :y 48}, :connector-type :elbow, :cont-path #paper &amp;quot;[\&amp;quot;Path\&amp;quot;,{\&amp;quot;applyMatrix\&amp;quot;:true,\&amp;quot;segments\&amp;quot;:[[1148,48],[[1156,48],[0,0],[4.41827,0]],[[1164,56],[0,-4.41827],[0,0]],[[1164,585],[0,0],[0,8.28426]],[[1149,600],[8.28426,0],[0,0]],[752,600]]}]&amp;quot;, :rect {:x 748, :y 44, :width 445, :height 560}, :edges [{:y 48, :offset 120} {:x 1164, :offset 672} {:y 600, :offset 1188}], :ref-item-deps nil}} {:deleted nil, :workspace-id #uuid &amp;quot;0114a7ee-93fc-4fdd-95fb-5dff189608b7&amp;quot;, :owned? true, :item-id #uuid &amp;quot;304d39dd-c4b0-4b08-920e-70f65364aac5&amp;quot;, :created #inst &amp;quot;2024-10-16T13:58:31.728-00:00&amp;quot;, :stag 18, :item-type :object, :parent-id #uuid &amp;quot;aa27e94d-1b7c-4483-94ba-3d9130af0e14&amp;quot;, :access :readwrite, :data {:text-anchor {:rel 0.6084105713974775, :x 574, :y 473}, :path #paper &amp;quot;[\&amp;quot;CompoundPath\&amp;quot;,{\&amp;quot;applyMatrix\&amp;quot;:true,\&amp;quot;children\&amp;quot;:[[\&amp;quot;Path\&amp;quot;,{\&amp;quot;applyMatrix\&amp;quot;:true,\&amp;quot;segments\&amp;quot;:[[[904.06831,421.52153],[34.25563,-4.51169],[-106.93805,14.08444]],[[618,464.17887],[77.868,-14.42246],[0,0]]]}],[\&amp;quot;Path\&amp;quot;,{\&amp;quot;applyMatrix\&amp;quot;:true,\&amp;quot;segments\&amp;quot;:[[[904.06831,421.52153],[34.25563,-4.51169],[-0.33053,0.04353]],[[903.07687,421.65213],[0.33042,-0.04353],[-106.57237,14.04132]]]}],[\&amp;quot;Path\&amp;quot;,{\&amp;quot;applyMatrix\&amp;quot;:true,\&amp;quot;segments\&amp;quot;:[[[903.07687,421.65213],[0.33042,-0.04353],[-106.57237,14.04132]],[[618,464.17887],[77.62732,-14.37789],[0,0]]]}],[\&amp;quot;Path\&amp;quot;,{\&amp;quot;applyMatrix\&amp;quot;:true,\&amp;quot;segments\&amp;quot;:[[[530,483.47706],[0,0],[-19.93152,5.45418]],[[484,500],[10.43366,-5.56462],[-40.44817,21.57236]],[[544.46141,566.8311],[-63.1907,-22.77746],[30.5451,11.01016]]]}]]}]&amp;quot;, :text-rect {:x 534, :y 461, :width 80, :height 24}, :to-id #uuid &amp;quot;c442fe28-c7f3-42ca-9bf5-f730ab45d82f&amp;quot;, :from-id #uuid &amp;quot;497f6085-f50c-47be-abcd-0225d7133711&amp;quot;, :v 53, :to-rel {:rx 0.5, :ry 0.5, :a :x}, :content {#uuid &amp;quot;9ca1a32b-604e-43af-bb61-33defd42dc24&amp;quot; {:tag :p, :idx &amp;quot;12&amp;quot;, :content [&amp;quot;Many-to-1&amp;quot;]}}, :from-rel {:rx 0.5, :ry 0.5, :a :x}, :object-type :connector, :points [{:x 484, :y 500, :offset 428.3437221249726, :segment 0}], :to-endpoint :arrow, :style {:color :silver, :deco :outline}, :hitboxes nil, :to-pos {:x 544, :y 567}, :gfx [:g {} nil [:path {:d &amp;quot;M903.07687,421.65213c-106.57237,14.04132 -207.44955,28.14885 -285.07687,42.52674M530,483.47706c-19.93152,5.45418 -35.56634,10.95832 -46,16.52294c-39.63941,21.14102 -4.20643,43.15497 56.70186,65.46514&amp;quot;, :fill :none, :clip-path nil, :stroke &amp;quot;#788896&amp;quot;, :stroke-linecap :round, :stroke-linejoin :round, :stroke-width 4}] nil [:polygon {:points &amp;quot;539.66844,559.21352 544.46141,566.8311 535.91058,569.63883&amp;quot;, :fill &amp;quot;#788896&amp;quot;, :stroke &amp;quot;#788896&amp;quot;, :stroke-width 2, :clip-path nil, :stroke-linecap :round, :stroke-linejoin :round}] [:g.content [:g [:g [:g [:g nil [:g nil] [:text {:fill &amp;quot;#293845&amp;quot;, :hover-props {}} [:tspan {:x 534.2920227050781, :y 479.6666660308838, :font-family &amp;quot;DIN Next, system-ui, sans-serif&amp;quot;, :font-size 18, :font-style :normal, :font-weight :normal} &amp;quot;Many-to-1&amp;quot;]]]]]]]], :baseline-path #paper &amp;quot;[\&amp;quot;Path\&amp;quot;,{\&amp;quot;applyMatrix\&amp;quot;:true,\&amp;quot;segments\&amp;quot;:[[[1008,408],[0,0],[-232,30]],[[484,500],[60,-32],[-60,32]],[[648,600],[-112,-34],[0,0]]]}]&amp;quot;, :order [19], :from-pos {:x 904, :y 422}, :connector-type :straight, :cont-path #paper &amp;quot;[\&amp;quot;Path\&amp;quot;,{\&amp;quot;applyMatrix\&amp;quot;:true,\&amp;quot;segments\&amp;quot;:[[[904.06831,421.52153],[34.25563,-4.51169],[-193.86591,25.53341]],[[484,500],[50.99016,-27.19475],[-40.44817,21.57236]],[[544.46141,566.8311],[-63.1907,-22.77746],[30.5451,11.01016]]]}]&amp;quot;, :rect {:x 463, :y 417, :width 445, :height 154}, :edges [{:y 408, :offset 1020} {:x -12, :offset 1212} {:y 600, :offset 1872}], :ref-item-deps nil}} {:deleted nil, :workspace-id #uuid &amp;quot;0114a7ee-93fc-4fdd-95fb-5dff189608b7&amp;quot;, :owned? true, :item-id #uuid &amp;quot;ac57f940-bdac-4fcb-b86f-bfcd76f4f2c0&amp;quot;, :created #inst &amp;quot;2024-10-16T13:58:31.751-00:00&amp;quot;, :stag 19, :item-type :object, :parent-id #uuid &amp;quot;aa27e94d-1b7c-4483-94ba-3d9130af0e14&amp;quot;, :access :readwrite, :data {:path #paper &amp;quot;[\&amp;quot;Path\&amp;quot;,{\&amp;quot;applyMatrix\&amp;quot;:true,\&amp;quot;segments\&amp;quot;:[[[171,456],[0,0],[-1.65685,0]],[[168,453],[0,1.65685],[0,0]],[[168,363],[0,0],[0,-1.65685]],[[171,360],[-1.65685,0],[0,0]],[[357,360],[0,0],[1.65685,0]],[[360,363],[0,-1.65685],[0,0]],[[360,453],[0,0],[0,1.65685]],[[357,456],[1.65685,0],[0,0]]],\&amp;quot;closed\&amp;quot;:true}]&amp;quot;, :text-rect {:x 180, :y 396, :width 168, :height 24}, :shape-type :rect, :v 53, :content {#uuid &amp;quot;3d0d3ed4-0e19-4f15-af19-20418fe43412&amp;quot; {:tag :p, :idx &amp;quot;12&amp;quot;, :content [&amp;quot;Customer_Profile&amp;quot;]}}, :object-type :shape, :angle nil, :style {:color :dark-purple, :deco :outline}, :hitboxes nil, :gfx [:g [:rect {:x 168, :y 360, :width 192, :height 96, :rx 3, :ry 3, :fill &amp;quot;#e3cff3&amp;quot;}] [:rect {:y 360, :stroke-dasharray nil, :rx 3, :stroke &amp;quot;#730FC3&amp;quot;, :fill :none, :stroke-linejoin :round, :width 192, :stroke-dashoffset nil, :stroke-linecap :round, :stroke-width 2, :x 168, :ry 3, :height 96}] [:g.content [:g [:g [:g [:g nil [:g nil] [:text {:fill &amp;quot;#293845&amp;quot;, :hover-props {}} [:tspan {:x 196.2750701904297, :y 414.6666660308838, :font-family &amp;quot;DIN Next, system-ui, sans-serif&amp;quot;, :font-size 18, :font-style :normal, :font-weight :normal} &amp;quot;Customer_Profile&amp;quot;]]]]]]]], :order [3], :rect {:x 168, :y 360, :width 192, :height 96}, :ref-item-deps nil}} {:deleted nil, :workspace-id #uuid &amp;quot;0114a7ee-93fc-4fdd-95fb-5dff189608b7&amp;quot;, :owned? true, :item-id #uuid &amp;quot;8a8aa2e5-cb0c-4620-bdd8-1c9a38479b72&amp;quot;, :created #inst &amp;quot;2024-10-16T13:58:31.769-00:00&amp;quot;, :stag 20, :item-type :object, :parent-id #uuid &amp;quot;aa27e94d-1b7c-4483-94ba-3d9130af0e14&amp;quot;, :access :readwrite, :data {:path #paper &amp;quot;[\&amp;quot;Path\&amp;quot;,{\&amp;quot;applyMatrix\&amp;quot;:true,\&amp;quot;segments\&amp;quot;:[[[555,276],[0,0],[-1.65685,0]],[[552,273],[0,1.65685],[0,0]],[[552,183],[0,0],[0,-1.65685]],[[555,180],[-1.65685,0],[0,0]],[[741,180],[0,0],[1.65685,0]],[[744,183],[0,-1.65685],[0,0]],[[744,273],[0,0],[0,1.65685]],[[741,276],[1.65685,0],[0,0]]],\&amp;quot;closed\&amp;quot;:true}]&amp;quot;, :text-rect {:x 564, :y 216, :width 168, :height 24}, :shape-type :rect, :v 53, :content {#uuid &amp;quot;68c4fe44-00b5-4124-b65b-babe407d6c62&amp;quot; {:tag :p, :idx &amp;quot;12&amp;quot;, :content [&amp;quot;User&amp;quot;]}}, :object-type :shape, :angle nil, :style {:color :dark-purple, :deco :outline}, :hitboxes nil, :gfx [:g [:rect {:x 552, :y 180, :width 192, :height 96, :rx 3, :ry 3, :fill &amp;quot;#e3cff3&amp;quot;}] [:rect {:y 180, :stroke-dasharray nil, :rx 3, :stroke &amp;quot;#730FC3&amp;quot;, :fill :none, :stroke-linejoin :round, :width 192, :stroke-dashoffset nil, :stroke-linecap :round, :stroke-width 2, :x 552, :ry 3, :height 96}] [:g.content [:g [:g [:g [:g nil [:g nil] [:text {:fill &amp;quot;#293845&amp;quot;, :hover-props {}} [:tspan {:x 629.541015625, :y 234.6666660308838, :font-family &amp;quot;DIN Next, system-ui, sans-serif&amp;quot;, :font-size 18, :font-style :normal, :font-weight :normal} &amp;quot;User&amp;quot;]]]]]]]], :order [6], :rect {:x 552, :y 180, :width 192, :height 96}, :ref-item-deps nil}} {:deleted nil, :workspace-id #uuid &amp;quot;0114a7ee-93fc-4fdd-95fb-5dff189608b7&amp;quot;, :owned? true, :item-id #uuid &amp;quot;dce048ce-7029-4524-9a76-0acda8fdb131&amp;quot;, :created #inst &amp;quot;2024-10-16T13:58:31.791-00:00&amp;quot;, :stag 21, :item-type :object, :parent-id #uuid &amp;quot;aa27e94d-1b7c-4483-94ba-3d9130af0e14&amp;quot;, :access :readwrite, :data {:text-anchor {:rel 0.45588235294117646, :x 768, :y 867}, :path #paper &amp;quot;[\&amp;quot;CompoundPath\&amp;quot;,{\&amp;quot;applyMatrix\&amp;quot;:true,\&amp;quot;children\&amp;quot;:[[\&amp;quot;Path\&amp;quot;,{\&amp;quot;applyMatrix\&amp;quot;:true,\&amp;quot;segments\&amp;quot;:[[768,836],[768,853]]}],[\&amp;quot;Path\&amp;quot;,{\&amp;quot;applyMatrix\&amp;quot;:true,\&amp;quot;segments\&amp;quot;:[[768,836],[768,837]]}],[\&amp;quot;Path\&amp;quot;,{\&amp;quot;applyMatrix\&amp;quot;:true,\&amp;quot;segments\&amp;quot;:[[768,837],[768,853]]}],[\&amp;quot;Path\&amp;quot;,{\&amp;quot;applyMatrix\&amp;quot;:true,\&amp;quot;segments\&amp;quot;:[[768,881],[768,904]]}]]}]&amp;quot;, :text-rect {:x 728, :y 855, :width 80, :height 24}, :to-id #uuid &amp;quot;5527d55b-0a32-4e37-905b-84b3dec125c4&amp;quot;, :from-id #uuid &amp;quot;142e5ef8-c7f3-4fdd-bb02-fb506d684e32&amp;quot;, :v 53, :to-rel {:rx 0.5, :ry 0.5, :a :y}, :content {#uuid &amp;quot;ab33cfcc-1490-4cc0-bb55-f1a5548d3018&amp;quot; {:tag :p, :idx &amp;quot;12&amp;quot;, :content [&amp;quot;Many-to-1&amp;quot;]}}, :from-rel {:rx 0.5, :ry 0.5, :a :y}, :object-type :connector, :points [], :to-endpoint :arrow, :style {:color :silver, :deco :outline}, :hitboxes nil, :to-pos {:x 768, :y 904}, :gfx [:g {} nil [:path {:d &amp;quot;M768,837v16M768,881v19&amp;quot;, :fill :none, :clip-path nil, :stroke &amp;quot;#788896&amp;quot;, :stroke-linecap :round, :stroke-linejoin :round, :stroke-width 4}] nil [:polygon {:points &amp;quot;773.54095,896.9079 768,904 762.45905,896.9079&amp;quot;, :fill &amp;quot;#788896&amp;quot;, :stroke &amp;quot;#788896&amp;quot;, :stroke-width 2, :clip-path nil, :stroke-linecap :round, :stroke-linejoin :round}] [:g.content [:g [:g [:g [:g nil [:g nil] [:text {:fill &amp;quot;#293845&amp;quot;, :hover-props {}} [:tspan {:x 728.2920227050781, :y 873.6666660308838, :font-family &amp;quot;DIN Next, system-ui, sans-serif&amp;quot;, :font-size 18, :font-style :normal, :font-weight :normal} &amp;quot;Many-to-1&amp;quot;]]]]]]]], :baseline-path #paper &amp;quot;[\&amp;quot;Path\&amp;quot;,{\&amp;quot;applyMatrix\&amp;quot;:true,\&amp;quot;segments\&amp;quot;:[[768,780],[768,960]]}]&amp;quot;, :order [22], :from-pos {:x 768, :y 836}, :connector-type :elbow, :cont-path #paper &amp;quot;[\&amp;quot;Path\&amp;quot;,{\&amp;quot;applyMatrix\&amp;quot;:true,\&amp;quot;segments\&amp;quot;:[[768,836],[768,904]]}]&amp;quot;, :rect {:x 724, :y 832, :width 88, :height 76}, :edges [{:x 768, :offset 180}], :ref-item-deps nil}} {:deleted nil, :workspace-id #uuid &amp;quot;0114a7ee-93fc-4fdd-95fb-5dff189608b7&amp;quot;, :owned? true, :item-id #uuid &amp;quot;497f6085-f50c-47be-abcd-0225d7133711&amp;quot;, :created #inst &amp;quot;2024-10-16T13:58:31.810-00:00&amp;quot;, :stag 22, :item-type :object, :parent-id #uuid &amp;quot;aa27e94d-1b7c-4483-94ba-3d9130af0e14&amp;quot;, :access :readwrite, :data {:path #paper &amp;quot;[\&amp;quot;Path\&amp;quot;,{\&amp;quot;applyMatrix\&amp;quot;:true,\&amp;quot;segments\&amp;quot;:[[[915,456],[0,0],[-1.65685,0]],[[912,453],[0,1.65685],[0,0]],[[912,363],[0,0],[0,-1.65685]],[[915,360],[-1.65685,0],[0,0]],[[1101,360],[0,0],[1.65685,0]],[[1104,363],[0,-1.65685],[0,0]],[[1104,453],[0,0],[0,1.65685]],[[1101,456],[1.65685,0],[0,0]]],\&amp;quot;closed\&amp;quot;:true}]&amp;quot;, :text-rect {:x 924, :y 396, :width 168, :height 24}, :shape-type :rect, :v 53, :content {#uuid &amp;quot;82bc5f94-bb06-4c8b-8ee2-dc600064f6e8&amp;quot; {:tag :p, :idx &amp;quot;12&amp;quot;, :content [&amp;quot;Rental&amp;quot;]}}, :object-type :shape, :angle nil, :style {:color :dark-purple, :deco :outline}, :hitboxes nil, :gfx [:g [:rect {:x 912, :y 360, :width 192, :height 96, :rx 3, :ry 3, :fill &amp;quot;#e3cff3&amp;quot;}] [:rect {:y 360, :stroke-dasharray nil, :rx 3, :stroke &amp;quot;#730FC3&amp;quot;, :fill :none, :stroke-linejoin :round, :width 192, :stroke-dashoffset nil, :stroke-linecap :round, :stroke-width 2, :x 912, :ry 3, :height 96}] [:g.content [:g [:g [:g [:g nil [:g nil] [:text {:fill &amp;quot;#293845&amp;quot;, :hover-props {}} [:tspan {:x 983.0250244140625, :y 414.6666660308838, :font-family &amp;quot;DIN Next, system-ui, sans-serif&amp;quot;, :font-size 18, :font-style :normal, :font-weight :normal} &amp;quot;Rental&amp;quot;]]]]]]]], :order [9], :rect {:x 912, :y 360, :width 192, :height 96}, :ref-item-deps nil}} {:deleted nil, :workspace-id #uuid &amp;quot;0114a7ee-93fc-4fdd-95fb-5dff189608b7&amp;quot;, :owned? true, :item-id #uuid &amp;quot;5f9fc62e-2fe3-4699-8f79-d07df06b8733&amp;quot;, :created #inst &amp;quot;2024-10-16T13:58:31.830-00:00&amp;quot;, :stag 23, :item-type :object, :parent-id #uuid &amp;quot;aa27e94d-1b7c-4483-94ba-3d9130af0e14&amp;quot;, :access :readwrite, :data {:text-anchor {:rel 0.9170158349412906, :x 1008, :y 321}, :path #paper &amp;quot;[\&amp;quot;CompoundPath\&amp;quot;,{\&amp;quot;applyMatrix\&amp;quot;:true,\&amp;quot;children\&amp;quot;:[[\&amp;quot;Path\&amp;quot;,{\&amp;quot;applyMatrix\&amp;quot;:true,\&amp;quot;segments\&amp;quot;:[[752,228],[[993,228],[0,0],[8.28426,0]],[[1008,243],[0,-8.28426],[0,0]],[1008,307]]}],[\&amp;quot;Path\&amp;quot;,{\&amp;quot;applyMatrix\&amp;quot;:true,\&amp;quot;segments\&amp;quot;:[[752,228],[753,228]]}],[\&amp;quot;Path\&amp;quot;,{\&amp;quot;applyMatrix\&amp;quot;:true,\&amp;quot;segments\&amp;quot;:[[753,228],[[993,228],[0,0],[8.28426,0]],[[1008,243],[0,-8.28426],[0,0]],[1008,307]]}],[\&amp;quot;Path\&amp;quot;,{\&amp;quot;applyMatrix\&amp;quot;:true,\&amp;quot;segments\&amp;quot;:[[1008,335],[1008,352]]}]]}]&amp;quot;, :text-rect {:x 968, :y 309, :width 80, :height 24}, :to-id #uuid &amp;quot;497f6085-f50c-47be-abcd-0225d7133711&amp;quot;, :from-id #uuid &amp;quot;8a8aa2e5-cb0c-4620-bdd8-1c9a38479b72&amp;quot;, :v 53, :to-rel {:rx 0.5, :ry 0.5, :a :y}, :content {#uuid &amp;quot;1547c592-7a52-44db-a81f-b59067312e2f&amp;quot; {:tag :p, :idx &amp;quot;12&amp;quot;, :content [&amp;quot;1-to-Many&amp;quot;]}}, :from-rel {:rx 0.5, :ry 0.5, :a :x}, :object-type :connector, :points [], :to-endpoint :arrow, :style {:color :silver, :deco :outline}, :hitboxes nil, :to-pos {:x 1008, :y 352}, :gfx [:g {} nil [:path {:d &amp;quot;M753,228l240,0c8.28426,0 15,6.71574 15,15v64M1008,335v13&amp;quot;, :fill :none, :clip-path nil, :stroke &amp;quot;#788896&amp;quot;, :stroke-linecap :round, :stroke-linejoin :round, :stroke-width 4}] nil [:polygon {:points &amp;quot;1013.54095,344.9079 1008,352 1002.45905,344.9079&amp;quot;, :fill &amp;quot;#788896&amp;quot;, :stroke &amp;quot;#788896&amp;quot;, :stroke-width 2, :clip-path nil, :stroke-linecap :round, :stroke-linejoin :round}] [:g.content [:g [:g [:g [:g nil [:g nil] [:text {:fill &amp;quot;#293845&amp;quot;, :hover-props {}} [:tspan {:x 968.1750259399414, :y 327.6666660308838, :font-family &amp;quot;DIN Next, system-ui, sans-serif&amp;quot;, :font-size 18, :font-style :normal, :font-weight :normal} &amp;quot;1-to-Many&amp;quot;]]]]]]]], :baseline-path #paper &amp;quot;[\&amp;quot;Path\&amp;quot;,{\&amp;quot;applyMatrix\&amp;quot;:true,\&amp;quot;segments\&amp;quot;:[[648,228],[1008,228],[1008,408]]}]&amp;quot;, :order [14], :from-pos {:x 752, :y 228}, :connector-type :elbow, :cont-path #paper &amp;quot;[\&amp;quot;Path\&amp;quot;,{\&amp;quot;applyMatrix\&amp;quot;:true,\&amp;quot;segments\&amp;quot;:[[752,228],[[993,228],[0,0],[8.28426,0]],[[1008,243],[0,-8.28426],[0,0]],[1008,352]]}]&amp;quot;, :rect {:x 747, :y 223, :width 305, :height 133}, :edges [{:y 228, :offset 360} {:x 1008, :offset 540}], :ref-item-deps nil}} {:deleted nil, :workspace-id #uuid &amp;quot;0114a7ee-93fc-4fdd-95fb-5dff189608b7&amp;quot;, :owned? true, :item-id #uuid &amp;quot;8bf08c43-69e7-4565-86e6-24bb78917c5a&amp;quot;, :created #inst &amp;quot;2024-10-16T13:58:31.846-00:00&amp;quot;, :stag 24, :item-type :object, :parent-id #uuid &amp;quot;aa27e94d-1b7c-4483-94ba-3d9130af0e14&amp;quot;, :access :readwrite, :data {:text-anchor {:rel 0.7144282511578995, :x 768, :y 685}, :path #paper &amp;quot;[\&amp;quot;CompoundPath\&amp;quot;,{\&amp;quot;applyMatrix\&amp;quot;:true,\&amp;quot;children\&amp;quot;:[[\&amp;quot;Path\&amp;quot;,{\&amp;quot;applyMatrix\&amp;quot;:true,\&amp;quot;segments\&amp;quot;:[[752,600],[[760,600],[0,0],[4.41827,0]],[[768,608],[0,-4.41827],[0,0]],[768,671]]}],[\&amp;quot;Path\&amp;quot;,{\&amp;quot;applyMatrix\&amp;quot;:true,\&amp;quot;segments\&amp;quot;:[[752,600],[753,600]]}],[\&amp;quot;Path\&amp;quot;,{\&amp;quot;applyMatrix\&amp;quot;:true,\&amp;quot;segments\&amp;quot;:[[753,600],[[760,600],[0,0],[4.41827,0]],[[768,608],[0,-4.41827],[0,0]],[768,671]]}],[\&amp;quot;Path\&amp;quot;,{\&amp;quot;applyMatrix\&amp;quot;:true,\&amp;quot;segments\&amp;quot;:[[768,699],[768,724]]}]]}]&amp;quot;, :text-rect {:x 712.5, :y 673, :width 111, :height 24}, :to-id #uuid &amp;quot;142e5ef8-c7f3-4fdd-bb02-fb506d684e32&amp;quot;, :from-id #uuid &amp;quot;c442fe28-c7f3-42ca-9bf5-f730ab45d82f&amp;quot;, :v 53, :to-rel {:rx 0.5, :ry 0.5, :a :y}, :content {#uuid &amp;quot;2a1f01a8-eced-4cbf-90d2-86017d036293&amp;quot; {:tag :p, :idx &amp;quot;12&amp;quot;, :content [&amp;quot;Many-to-Many&amp;quot;]}}, :from-rel {:rx 0.5, :ry 0.5, :a :x}, :object-type :connector, :points [], :to-endpoint :arrow, :style {:color :silver, :deco :outline}, :hitboxes nil, :to-pos {:x 768, :y 724}, :gfx [:g {} nil [:path {:d &amp;quot;M753,600h7c4.41827,0 8,3.58173 8,8v63M768,699v21&amp;quot;, :fill :none, :clip-path nil, :stroke &amp;quot;#788896&amp;quot;, :stroke-linecap :round, :stroke-linejoin :round, :stroke-width 4}] nil [:polygon {:points &amp;quot;773.54095,716.9079 768,724 762.45905,716.9079&amp;quot;, :fill &amp;quot;#788896&amp;quot;, :stroke &amp;quot;#788896&amp;quot;, :stroke-width 2, :clip-path nil, :stroke-linecap :round, :stroke-linejoin :round}] [:g.content [:g [:g [:g [:g nil [:g nil] [:text {:fill &amp;quot;#293845&amp;quot;, :hover-props {}} [:tspan {:x 712.5510330200195, :y 691.6666660308838, :font-family &amp;quot;DIN Next, system-ui, sans-serif&amp;quot;, :font-size 18, :font-style :normal, :font-weight :normal} &amp;quot;Many-to-Many&amp;quot;]]]]]]]], :baseline-path #paper &amp;quot;[\&amp;quot;Path\&amp;quot;,{\&amp;quot;applyMatrix\&amp;quot;:true,\&amp;quot;segments\&amp;quot;:[[648,600],[768,600],[768,780]]}]&amp;quot;, :order [21], :from-pos {:x 752, :y 600}, :connector-type :elbow, :cont-path #paper &amp;quot;[\&amp;quot;Path\&amp;quot;,{\&amp;quot;applyMatrix\&amp;quot;:true,\&amp;quot;segments\&amp;quot;:[[752,600],[[760,600],[0,0],[4.41827,0]],[[768,608],[0,-4.41827],[0,0]],[768,724]]}]&amp;quot;, :rect {:x 708, :y 596, :width 119, :height 132}, :edges [{:y 600, :offset 120} {:x 768, :offset 300}], :ref-item-deps nil}} {:deleted nil, :workspace-id #uuid &amp;quot;0114a7ee-93fc-4fdd-95fb-5dff189608b7&amp;quot;, :owned? true, :item-id #uuid &amp;quot;3f7b538c-8092-455b-a97f-4b03449c4333&amp;quot;, :created #inst &amp;quot;2024-10-16T13:58:31.863-00:00&amp;quot;, :stag 25, :item-type :object, :parent-id #uuid &amp;quot;aa27e94d-1b7c-4483-94ba-3d9130af0e14&amp;quot;, :access :readwrite, :data {:path #paper &amp;quot;[\&amp;quot;Path\&amp;quot;,{\&amp;quot;applyMatrix\&amp;quot;:true,\&amp;quot;segments\&amp;quot;:[[[435,828],[0,0],[-1.65685,0]],[[432,825],[0,1.65685],[0,0]],[[432,735],[0,0],[0,-1.65685]],[[435,732],[-1.65685,0],[0,0]],[[621,732],[0,0],[1.65685,0]],[[624,735],[0,-1.65685],[0,0]],[[624,825],[0,0],[0,1.65685]],[[621,828],[1.65685,0],[0,0]]],\&amp;quot;closed\&amp;quot;:true}]&amp;quot;, :text-rect {:x 444, :y 768, :width 168, :height 24}, :shape-type :rect, :v 53, :content {#uuid &amp;quot;cc2db3f1-293f-4fd3-94f0-644ef798df3f&amp;quot; {:tag :p, :idx &amp;quot;12&amp;quot;, :content [&amp;quot;Genre&amp;quot;]}}, :object-type :shape, :angle nil, :style {:color :dark-purple, :deco :outline}, :hitboxes nil, :gfx [:g [:rect {:x 432, :y 732, :width 192, :height 96, :rx 3, :ry 3, :fill &amp;quot;#e3cff3&amp;quot;}] [:rect {:y 732, :stroke-dasharray nil, :rx 3, :stroke &amp;quot;#730FC3&amp;quot;, :fill :none, :stroke-linejoin :round, :width 192, :stroke-dashoffset nil, :stroke-linecap :round, :stroke-width 2, :x 432, :ry 3, :height 96}] [:g.content [:g [:g [:g [:g nil [:g nil] [:text {:fill &amp;quot;#293845&amp;quot;, :hover-props {}} [:tspan {:x 504.78902435302734, :y 786.6666660308838, :font-family &amp;quot;DIN Next, system-ui, sans-serif&amp;quot;, :font-size 18, :font-style :normal, :font-weight :normal} &amp;quot;Genre&amp;quot;]]]]]]]], :order [13], :rect {:x 432, :y 732, :width 192, :height 96}, :ref-item-deps nil}} {:deleted nil, :workspace-id #uuid &amp;quot;0114a7ee-93fc-4fdd-95fb-5dff189608b7&amp;quot;, :owned? true, :item-id #uuid &amp;quot;846df258-881e-4900-95ee-1b1b1fcbda93&amp;quot;, :created #inst &amp;quot;2024-10-16T13:58:31.880-00:00&amp;quot;, :stag 26, :item-type :object, :parent-id #uuid &amp;quot;aa27e94d-1b7c-4483-94ba-3d9130af0e14&amp;quot;, :access :readwrite, :data {:path #paper &amp;quot;[\&amp;quot;Path\&amp;quot;,{\&amp;quot;applyMatrix\&amp;quot;:true,\&amp;quot;segments\&amp;quot;:[[[1203,456],[0,0],[-1.65685,0]],[[1200,453],[0,1.65685],[0,0]],[[1200,363],[0,0],[0,-1.65685]],[[1203,360],[-1.65685,0],[0,0]],[[1389,360],[0,0],[1.65685,0]],[[1392,363],[0,-1.65685],[0,0]],[[1392,453],[0,0],[0,1.65685]],[[1389,456],[1.65685,0],[0,0]]],\&amp;quot;closed\&amp;quot;:true}]&amp;quot;, :text-rect {:x 1212, :y 396, :width 168, :height 24}, :shape-type :rect, :v 53, :content {#uuid &amp;quot;b35e240f-cd47-44b7-b98e-ab01a9a76c2e&amp;quot; {:tag :p, :idx &amp;quot;12&amp;quot;, :content [&amp;quot;Category&amp;quot;]}}, :object-type :shape, :angle nil, :style {:color :dark-purple, :deco :outline}, :hitboxes nil, :gfx [:g [:rect {:x 1200, :y 360, :width 192, :height 96, :rx 3, :ry 3, :fill &amp;quot;#e3cff3&amp;quot;}] [:rect {:y 360, :stroke-dasharray nil, :rx 3, :stroke &amp;quot;#730FC3&amp;quot;, :fill :none, :stroke-linejoin :round, :width 192, :stroke-dashoffset nil, :stroke-linecap :round, :stroke-width 2, :x 1200, :ry 3, :height 96}] [:g.content [:g [:g [:g [:g nil [:g nil] [:text {:fill &amp;quot;#293845&amp;quot;, :hover-props {}} [:tspan {:x 1261.395034790039, :y 414.6666660308838, :font-family &amp;quot;DIN Next, system-ui, sans-serif&amp;quot;, :font-size 18, :font-style :normal, :font-weight :normal} &amp;quot;Category&amp;quot;]]]]]]]], :order [4], :rect {:x 1200, :y 360, :width 192, :height 96}, :ref-item-deps nil}} {:deleted nil, :workspace-id #uuid &amp;quot;0114a7ee-93fc-4fdd-95fb-5dff189608b7&amp;quot;, :owned? true, :item-id #uuid &amp;quot;a21dcfdf-97bc-49c6-9609-2cc2053eab35&amp;quot;, :created #inst &amp;quot;2024-10-16T13:58:31.900-00:00&amp;quot;, :stag 27, :item-type :object, :parent-id #uuid &amp;quot;aa27e94d-1b7c-4483-94ba-3d9130af0e14&amp;quot;, :access :readwrite, :data {:text-anchor {:rel 0.9195985624876702, :x 264, :y 320}, :path #paper &amp;quot;[\&amp;quot;CompoundPath\&amp;quot;,{\&amp;quot;applyMatrix\&amp;quot;:true,\&amp;quot;children\&amp;quot;:[[\&amp;quot;Path\&amp;quot;,{\&amp;quot;applyMatrix\&amp;quot;:true,\&amp;quot;segments\&amp;quot;:[[544,228],[[279,228],[0,0],[-8.28426,0]],[[264,243],[0,-8.28426],[0,0]],[264,306]]}],[\&amp;quot;Path\&amp;quot;,{\&amp;quot;applyMatrix\&amp;quot;:true,\&amp;quot;segments\&amp;quot;:[[544,228],[543,228]]}],[\&amp;quot;Path\&amp;quot;,{\&amp;quot;applyMatrix\&amp;quot;:true,\&amp;quot;segments\&amp;quot;:[[543,228],[[279,228],[0,0],[-8.28426,0]],[[264,243],[0,-8.28426],[0,0]],[264,306]]}],[\&amp;quot;Path\&amp;quot;,{\&amp;quot;applyMatrix\&amp;quot;:true,\&amp;quot;segments\&amp;quot;:[[264,334],[264,352]]}]]}]&amp;quot;, :text-rect {:x 239.5, :y 308, :width 49, :height 24}, :to-id #uuid &amp;quot;ac57f940-bdac-4fcb-b86f-bfcd76f4f2c0&amp;quot;, :from-id #uuid &amp;quot;8a8aa2e5-cb0c-4620-bdd8-1c9a38479b72&amp;quot;, :v 53, :from-object-type :shape, :to-rel {:rx 0.5, :ry 0.5, :a :y}, :content {#uuid &amp;quot;7551e287-e335-4c41-982a-bc121804d8c7&amp;quot; {:tag :p, :idx &amp;quot;12&amp;quot;, :content [&amp;quot;1-to-1&amp;quot;]}}, :from-rel {:rx 0.5, :ry 0.5, :a :x}, :object-type :connector, :points [], :to-object-type :shape, :to-endpoint :arrow, :style {:color :silver, :deco :outline}, :hitboxes nil, :to-pos {:x 264, :y 352}, :gfx [:g {} nil [:path {:d &amp;quot;M543,228l-264,0c-8.28426,0 -15,6.71574 -15,15v63M264,334v14&amp;quot;, :fill :none, :clip-path nil, :stroke &amp;quot;#788896&amp;quot;, :stroke-linecap :round, :stroke-linejoin :round, :stroke-width 4}] nil [:polygon {:points &amp;quot;269.54095,344.9079 264,352 258.45905,344.9079&amp;quot;, :fill &amp;quot;#788896&amp;quot;, :stroke &amp;quot;#788896&amp;quot;, :stroke-width 2, :clip-path nil, :stroke-linecap :round, :stroke-linejoin :round}] [:g.content [:g [:g [:g [:g nil [:g nil] [:text {:fill &amp;quot;#293845&amp;quot;, :hover-props {}} [:tspan {:x 239.916015625, :y 326.6666660308838, :font-family &amp;quot;DIN Next, system-ui, sans-serif&amp;quot;, :font-size 18, :font-style :normal, :font-weight :normal} &amp;quot;1-to-1&amp;quot;]]]]]]]], :baseline-path #paper &amp;quot;[\&amp;quot;Path\&amp;quot;,{\&amp;quot;applyMatrix\&amp;quot;:true,\&amp;quot;segments\&amp;quot;:[[648,228],[264,228],[264,408]]}]&amp;quot;, :order [15], :from-pos {:x 544, :y 228}, :connector-type :elbow, :cont-path #paper &amp;quot;[\&amp;quot;Path\&amp;quot;,{\&amp;quot;applyMatrix\&amp;quot;:true,\&amp;quot;segments\&amp;quot;:[[544,228],[[279,228],[0,0],[-8.28426,0]],[[264,243],[0,-8.28426],[0,0]],[264,352]]}]&amp;quot;, :rect {:x 235, :y 224, :width 313, :height 133}, :edges [{:y 228, :offset 384} {:x 264, :offset 564}], :ref-item-deps nil}} {:deleted nil, :workspace-id #uuid &amp;quot;0114a7ee-93fc-4fdd-95fb-5dff189608b7&amp;quot;, :owned? true, :item-id #uuid &amp;quot;72edccd4-b2fd-4e15-bd5b-e362eb5e2a60&amp;quot;, :created #inst &amp;quot;2024-10-16T13:58:31.919-00:00&amp;quot;, :stag 28, :item-type :object, :parent-id #uuid &amp;quot;aa27e94d-1b7c-4483-94ba-3d9130af0e14&amp;quot;, :access :readwrite, :data {:text-anchor {:rel 0.24069250790460675, :x 132, :y 321}, :path #paper &amp;quot;[\&amp;quot;CompoundPath\&amp;quot;,{\&amp;quot;applyMatrix\&amp;quot;:true,\&amp;quot;children\&amp;quot;:[[\&amp;quot;Path\&amp;quot;,{\&amp;quot;applyMatrix\&amp;quot;:true,\&amp;quot;segments\&amp;quot;:[[132,104],[132,307]]}],[\&amp;quot;Path\&amp;quot;,{\&amp;quot;applyMatrix\&amp;quot;:true,\&amp;quot;segments\&amp;quot;:[[132,104],[132,105]]}],[\&amp;quot;Path\&amp;quot;,{\&amp;quot;applyMatrix\&amp;quot;:true,\&amp;quot;segments\&amp;quot;:[[132,105],[132,307]]}],[\&amp;quot;Path\&amp;quot;,{\&amp;quot;applyMatrix\&amp;quot;:true,\&amp;quot;segments\&amp;quot;:[[132,335],[[132,585],[0,0],[0,8.28426]],[[147,600],[-8.28426,0],[0,0]],[544,600]]}]]}]&amp;quot;, :text-rect {:x 107.5, :y 309, :width 49, :height 24}, :to-id #uuid &amp;quot;c442fe28-c7f3-42ca-9bf5-f730ab45d82f&amp;quot;, :from-id #uuid &amp;quot;529ef331-4d39-445c-90db-37db01201c17&amp;quot;, :v 53, :to-rel {:rx 0.5, :ry 0.5, :a :x}, :content {#uuid &amp;quot;040445bb-4495-4a98-89bb-a4fb54375cf8&amp;quot; {:tag :p, :idx &amp;quot;12&amp;quot;, :content [&amp;quot;1-to-1&amp;quot;]}}, :from-rel {:rx 0.5, :ry 0.5, :a :x}, :object-type :connector, :points [], :to-endpoint :arrow, :style {:color :silver, :deco :outline}, :hitboxes nil, :to-pos {:x 544, :y 600}, :gfx [:g {} nil [:path {:d &amp;quot;M132,105v202M132,335v250c0,8.28426 6.71574,15 15,15h393&amp;quot;, :fill :none, :clip-path nil, :stroke &amp;quot;#788896&amp;quot;, :stroke-linecap :round, :stroke-linejoin :round, :stroke-width 4}] nil [:polygon {:points &amp;quot;536.9079,594.45905 544,600 536.9079,605.54095&amp;quot;, :fill &amp;quot;#788896&amp;quot;, :stroke &amp;quot;#788896&amp;quot;, :stroke-width 2, :clip-path nil, :stroke-linecap :round, :stroke-linejoin :round}] [:g.content [:g [:g [:g [:g nil [:g nil] [:text {:fill &amp;quot;#293845&amp;quot;, :hover-props {}} [:tspan {:x 107.916015625, :y 327.6666660308838, :font-family &amp;quot;DIN Next, system-ui, sans-serif&amp;quot;, :font-size 18, :font-style :normal, :font-weight :normal} &amp;quot;1-to-1&amp;quot;]]]]]]]], :baseline-path #paper &amp;quot;[\&amp;quot;Path\&amp;quot;,{\&amp;quot;applyMatrix\&amp;quot;:true,\&amp;quot;segments\&amp;quot;:[[144,48],[132,48],[132,600],[648,600]]}]&amp;quot;, :order [24], :from-pos {:x 132, :y 104}, :connector-type :elbow, :cont-path #paper &amp;quot;[\&amp;quot;Path\&amp;quot;,{\&amp;quot;applyMatrix\&amp;quot;:true,\&amp;quot;segments\&amp;quot;:[[132,104],[[132,585],[0,0],[0,8.28426]],[[147,600],[-8.28426,0],[0,0]],[544,600]]}]&amp;quot;, :rect {:x 103, :y 100, :width 445, :height 504}, :edges [{:y 48, :offset 12} {:x 132, :offset 564} {:y 600, :offset 1080}], :ref-item-deps nil}} {:deleted nil, :workspace-id #uuid &amp;quot;0114a7ee-93fc-4fdd-95fb-5dff189608b7&amp;quot;, :owned? true, :item-id #uuid &amp;quot;edf768f1-de2c-497e-9f5b-7871b7bc39e2&amp;quot;, :created #inst &amp;quot;2024-10-16T13:58:31.938-00:00&amp;quot;, :stag 29, :item-type :object, :parent-id #uuid &amp;quot;aa27e94d-1b7c-4483-94ba-3d9130af0e14&amp;quot;, :access :readwrite, :data {:text-anchor {:rel 0.07855190759745966, :x 216, :y 139}, :path #paper &amp;quot;[\&amp;quot;CompoundPath\&amp;quot;,{\&amp;quot;applyMatrix\&amp;quot;:true,\&amp;quot;children\&amp;quot;:[[\&amp;quot;Path\&amp;quot;,{\&amp;quot;applyMatrix\&amp;quot;:true,\&amp;quot;segments\&amp;quot;:[[216,104],[216,125]]}],[\&amp;quot;Path\&amp;quot;,{\&amp;quot;applyMatrix\&amp;quot;:true,\&amp;quot;segments\&amp;quot;:[[216,104],[216,105]]}],[\&amp;quot;Path\&amp;quot;,{\&amp;quot;applyMatrix\&amp;quot;:true,\&amp;quot;segments\&amp;quot;:[[216,105],[216,125]]}],[\&amp;quot;Path\&amp;quot;,{\&amp;quot;applyMatrix\&amp;quot;:true,\&amp;quot;segments\&amp;quot;:[[216,153],[[216,213],[0,0],[0,8.28426]],[[231,228],[-8.28426,0],[0,0]],[544,228]]}]]}]&amp;quot;, :text-rect {:x 191.5, :y 127, :width 49, :height 24}, :to-id #uuid &amp;quot;8a8aa2e5-cb0c-4620-bdd8-1c9a38479b72&amp;quot;, :from-id #uuid &amp;quot;529ef331-4d39-445c-90db-37db01201c17&amp;quot;, :v 53, :to-rel {:rx 0.5, :ry 0.5, :a :x}, :content {#uuid &amp;quot;6e23d964-5caa-4e09-88ac-cfb265bef3da&amp;quot; {:tag :p, :idx &amp;quot;12&amp;quot;, :content [&amp;quot;1-to-1&amp;quot;]}}, :from-rel {:rx 0.5, :ry 0.5, :a :x}, :object-type :connector, :points [], :to-endpoint :arrow, :style {:color :silver, :deco :outline}, :hitboxes nil, :to-pos {:x 544, :y 228}, :gfx [:g {} nil [:path {:d &amp;quot;M216,105v20M216,153v60c0,8.28426 6.71574,15 15,15h309&amp;quot;, :fill :none, :clip-path nil, :stroke &amp;quot;#788896&amp;quot;, :stroke-linecap :round, :stroke-linejoin :round, :stroke-width 4}] nil [:polygon {:points &amp;quot;536.9079,222.45905 544,228 536.9079,233.54095&amp;quot;, :fill &amp;quot;#788896&amp;quot;, :stroke &amp;quot;#788896&amp;quot;, :stroke-width 2, :clip-path nil, :stroke-linecap :round, :stroke-linejoin :round}] [:g.content [:g [:g [:g [:g nil [:g nil] [:text {:fill &amp;quot;#293845&amp;quot;, :hover-props {}} [:tspan {:x 191.916015625, :y 145.6666660308838, :font-family &amp;quot;DIN Next, system-ui, sans-serif&amp;quot;, :font-size 18, :font-style :normal, :font-weight :normal} &amp;quot;1-to-1&amp;quot;]]]]]]]], :baseline-path #paper &amp;quot;[\&amp;quot;Path\&amp;quot;,{\&amp;quot;applyMatrix\&amp;quot;:true,\&amp;quot;segments\&amp;quot;:[[144,48],[216,48],[216,228],[648,228]]}]&amp;quot;, :order [25], :from-pos {:x 216, :y 104}, :connector-type :elbow, :cont-path #paper &amp;quot;[\&amp;quot;Path\&amp;quot;,{\&amp;quot;applyMatrix\&amp;quot;:true,\&amp;quot;segments\&amp;quot;:[[216,104],[[216,213],[0,0],[0,8.28426]],[[231,228],[-8.28426,0],[0,0]],[544,228]]}]&amp;quot;, :rect {:x 187, :y 100, :width 361, :height 132}, :edges [{:y 48, :offset 72} {:x 216, :offset 252} {:y 228, :offset 684}], :ref-item-deps nil}}], :items (), :copy-id #uuid &amp;quot;36b39734-dfb2-4acc-bc95-6e6adcc15b50&amp;quot;}&quot;&gt;&lt;/span&gt;&#xa;&lt;img src=&quot;https://imgr.whimsical.com/object/FKhsd5VFeN3vsLpgU9aBUv&quot;&gt;" id="Zx0kLlHhOsVBJoh73u5d-2">
          <mxCell style="text;whiteSpace=wrap;html=1;" vertex="1" parent="WIyWlLk6GJQsqaUBKTNV-1">
            <mxGeometry x="-320" y="290" width="2990" height="2160" as="geometry" />
          </mxCell>
        </UserObject>
      </root>
    </mxGraphModel>
  </diagram>
</mxfile>
